solid av_imperm
  facet normal -2.355704054934904e-06 0.707108736038208 0.7071048617362976
    outer loop
      vertex 2.999999523162842 7.813928127288818 65.23258972167969
      vertex 2.9999992847442627 7.290668964385986 65.75585174560547
      vertex 4.2993011474609375 7.904416561126709 65.14210510253906
    endloop
  endfacet
  facet normal 3.1035090160003165e-06 0.7071029543876648 0.707110583782196
    outer loop
      vertex 2.9999992847442627 7.290668964385986 65.75585174560547
      vertex 4.443667888641357 7.39121150970459 65.65530395507812
      vertex 4.2993011474609375 7.904416561126709 65.14210510253906
    endloop
  endfacet
  facet normal 2.479707063685055e-06 0.7071028351783752 0.7071107625961304
    outer loop
      vertex 5.548671722412109 8.172405242919922 64.87411499023438
      vertex 4.2993011474609375 7.904416561126709 65.14210510253906
      vertex 4.443667888641357 7.39121150970459 65.65530395507812
    endloop
  endfacet
  facet normal -2.1619828203256475e-06 0.7071061730384827 0.707107424736023
    outer loop
      vertex 4.443667888641357 7.39121150970459 65.65530395507812
      vertex 5.831857681274414 7.688976287841797 65.3575439453125
      vertex 5.548671722412109 8.172405242919922 64.87411499023438
    endloop
  endfacet
  facet normal 0.0 0.7071067690849304 0.7071067690849304
    outer loop
      vertex 6.700098037719727 8.607593536376953 64.43892669677734
      vertex 5.548671722412109 8.172405242919922 64.87411499023438
      vertex 5.831857681274414 7.688976287841797 65.3575439453125
    endloop
  endfacet
  facet normal 0.0 0.7071067690849304 0.7071067690849304
    outer loop
      vertex 5.831857681274414 7.688976287841797 65.3575439453125
      vertex 7.111220359802246 8.17251968383789 64.8740005493164
      vertex 6.700098037719727 8.607593536376953 64.43892669677734
    endloop
  endfacet
  facet normal 8.678937319928082e-07 0.7071071863174438 0.707106351852417
    outer loop
      vertex 7.709331035614014 9.193258285522461 63.8532600402832
      vertex 6.700098037719727 8.607593536376953 64.43892669677734
      vertex 7.111220359802246 8.17251968383789 64.8740005493164
    endloop
  endfacet
  facet normal 6.695190677419305e-07 0.7071072459220886 0.707106351852417
    outer loop
      vertex 7.111220359802246 8.17251968383789 64.8740005493164
      vertex 8.232589721679688 8.823259353637695 64.22325897216797
      vertex 7.709331035614014 9.193258285522461 63.8532600402832
    endloop
  endfacet
  facet normal -7.439107321260963e-07 0.7071062326431274 0.7071073055267334
    outer loop
      vertex 8.537586212158203 9.90689468383789 63.139625549316406
      vertex 7.709331035614014 9.193258285522461 63.8532600402832
      vertex 8.232589721679688 8.823259353637695 64.22325897216797
    endloop
  endfacet
  facet normal 1.4227267683963873e-06 0.7071059346199036 0.7071076035499573
    outer loop
      vertex 8.232589721679688 8.823259353637695 64.22325897216797
      vertex 9.152873992919922 9.616186141967773 63.43033218383789
      vertex 8.537586212158203 9.90689468383789 63.139625549316406
    endloop
  endfacet
  facet normal 2.200726612500148e-06 0.7071067690849304 0.7071067690849304
    outer loop
      vertex 9.153038024902344 10.721075057983398 62.325443267822266
      vertex 8.537586212158203 9.90689468383789 63.139625549316406
      vertex 9.152873992919922 9.616186141967773 63.43033218383789
    endloop
  endfacet
  facet normal 9.903287718771026e-07 0.7071067690849304 0.7071067690849304
    outer loop
      vertex 9.152873992919922 9.616186141967773 63.43033218383789
      vertex 9.836708068847656 10.520833015441895 62.52568435668945
      vertex 9.153038024902344 10.721075057983398 62.325443267822266
    endloop
  endfacet
  facet normal 6.664190550509375e-07 0.7071062326431274 0.7071073055267334
    outer loop
      vertex 9.53203010559082 11.604514122009277 61.4420051574707
      vertex 9.153038024902344 10.721075057983398 62.325443267822266
      vertex 9.836708068847656 10.520833015441895 62.52568435668945
    endloop
  endfacet
  facet normal 1.75051218320732e-06 0.7071064114570618 0.7071071863174438
    outer loop
      vertex 9.836708068847656 10.520833015441895 62.52568435668945
      vertex 10.257810592651367 11.50243091583252 61.54408645629883
      vertex 9.53203010559082 11.604514122009277 61.4420051574707
    endloop
  endfacet
  facet normal 2.022501575993374e-06 0.7071073651313782 0.7071061730384827
    outer loop
      vertex 9.65999984741211 12.523259162902832 60.523258209228516
      vertex 9.53203010559082 11.604514122009277 61.4420051574707
      vertex 10.257810592651367 11.50243091583252 61.54408645629883
    endloop
  endfacet
  facet normal 0.0 0.7071067690849304 0.7071067690849304
    outer loop
      vertex 9.65999984741211 12.523259162902832 60.523258209228516
      vertex 10.257810592651367 11.50243091583252 61.54408645629883
      vertex 10.399999618530273 12.523259162902832 60.523258209228516
    endloop
  endfacet
  facet normal 0.0 0.7071067690849304 0.7071067690849304
    outer loop
      vertex 9.65999984741211 12.523259162902832 60.523258209228516
      vertex 10.399999618530273 12.523259162902832 60.523258209228516
      vertex 10.257810592651367 13.544087409973145 59.5024299621582
    endloop
  endfacet
  facet normal 2.022505213972181e-06 0.7071062326431274 0.7071073651313782
    outer loop
      vertex 10.257810592651367 13.544087409973145 59.5024299621582
      vertex 9.53203010559082 13.442004203796387 59.604515075683594
      vertex 9.65999984741211 12.523259162902832 60.523258209228516
    endloop
  endfacet
  facet normal 1.7505103642179165e-06 0.7071071267127991 0.7071064114570618
    outer loop
      vertex 9.53203010559082 13.442004203796387 59.604515075683594
      vertex 10.257810592651367 13.544087409973145 59.5024299621582
      vertex 9.836708068847656 14.52568531036377 58.52083206176758
    endloop
  endfacet
  facet normal 2.836148041751585e-06 0.7071070075035095 0.7071065902709961
    outer loop
      vertex 9.836708068847656 14.52568531036377 58.52083206176758
      vertex 9.153037071228027 14.325443267822266 58.72107696533203
      vertex 9.53203010559082 13.442004203796387 59.604515075683594
    endloop
  endfacet
  facet normal 2.413056336081354e-06 0.7071077227592468 0.7071058750152588
    outer loop
      vertex 9.153037071228027 14.325443267822266 58.72107696533203
      vertex 9.836708068847656 14.52568531036377 58.52083206176758
      vertex 9.152875900268555 15.430329322814941 57.616188049316406
    endloop
  endfacet
  facet normal -1.9682604488480138e-06 0.707107663154602 0.7071058750152588
    outer loop
      vertex 9.152875900268555 15.430329322814941 57.616188049316406
      vertex 8.537588119506836 15.13962173461914 57.90689468383789
      vertex 9.153037071228027 14.325443267822266 58.72107696533203
    endloop
  endfacet
  facet normal -9.76379055828147e-07 0.7071066498756409 0.70710688829422
    outer loop
      vertex 8.537588119506836 15.13962173461914 57.90689468383789
      vertex 9.152875900268555 15.430329322814941 57.616188049316406
      vertex 8.23259162902832 16.22325897216797 56.82325744628906
    endloop
  endfacet
  facet normal 2.1387309061537962e-06 0.7071071267127991 0.7071064710617065
    outer loop
      vertex 8.23259162902832 16.22325897216797 56.82325744628906
      vertex 7.709331512451172 15.85325813293457 57.193260192871094
      vertex 8.537588119506836 15.13962173461914 57.90689468383789
    endloop
  endfacet
  facet normal 1.8272198758495506e-06 0.7071073055267334 0.7071062326431274
    outer loop
      vertex 7.709331512451172 15.85325813293457 57.193260192871094
      vertex 8.23259162902832 16.22325897216797 56.82325744628906
      vertex 7.111220359802246 16.873998641967773 56.17251968383789
    endloop
  endfacet
  facet normal 0.0 0.7071067690849304 0.7071067690849304
    outer loop
      vertex 7.111220359802246 16.873998641967773 56.17251968383789
      vertex 6.700098037719727 16.43892478942871 56.60759353637695
      vertex 7.709331512451172 15.85325813293457 57.193260192871094
    endloop
  endfacet
  facet normal 0.0 0.7071067690849304 0.7071067690849304
    outer loop
      vertex 6.700098037719727 16.43892478942871 56.60759353637695
      vertex 7.111220359802246 16.873998641967773 56.17251968383789
      vertex 5.831857681274414 17.357542037963867 55.6889762878418
    endloop
  endfacet
  facet normal 1.8287759075974463e-06 0.707107663154602 0.7071059346199036
    outer loop
      vertex 5.831857681274414 17.357542037963867 55.6889762878418
      vertex 5.548671722412109 16.874114990234375 56.17240524291992
      vertex 6.700098037719727 16.43892478942871 56.60759353637695
    endloop
  endfacet
  facet normal 1.394828700540529e-06 0.7071077227592468 0.707105815410614
    outer loop
      vertex 5.548671722412109 16.874114990234375 56.17240524291992
      vertex 5.831857681274414 17.357542037963867 55.6889762878418
      vertex 4.443667888641357 17.65530776977539 55.391212463378906
    endloop
  endfacet
  facet normal -3.09961978928186e-06 0.7071046233177185 0.7071089744567871
    outer loop
      vertex 4.443667888641357 17.65530776977539 55.391212463378906
      vertex 4.2993011474609375 17.142101287841797 55.904415130615234
      vertex 5.548671722412109 16.874114990234375 56.17240524291992
    endloop
  endfacet
  facet normal -1.2727821285807295e-06 0.7071043252944946 0.7071092128753662
    outer loop
      vertex 4.2993011474609375 17.142101287841797 55.904415130615234
      vertex 4.443667888641357 17.65530776977539 55.391212463378906
      vertex 3.0 17.755849838256836 55.29066848754883
    endloop
  endfacet
  facet normal -1.8597721407331846e-07 0.7071055173873901 0.7071080803871155
    outer loop
      vertex 4.2993011474609375 17.142101287841797 55.904415130615234
      vertex 3.0 17.755849838256836 55.29066848754883
      vertex 3.0 17.232589721679688 55.813926696777344
    endloop
  endfacet
  facet normal 2.3479565243178513e-06 0.7071086764335632 0.7071048617362976
    outer loop
      vertex 2.999999523162842 7.813928127288818 65.23258972167969
      vertex 1.700698971748352 7.904416561126709 65.14210510253906
      vertex 2.9999992847442627 7.290668964385986 65.75585174560547
    endloop
  endfacet
  facet normal -3.0965375117375515e-06 0.7071029543876648 0.707110583782196
    outer loop
      vertex 2.9999992847442627 7.290668964385986 65.75585174560547
      vertex 1.700698971748352 7.904416561126709 65.14210510253906
      vertex 1.5563321113586426 7.39121150970459 65.65530395507812
    endloop
  endfacet
  facet normal -2.4797072910587303e-06 0.70710289478302 0.7071107029914856
    outer loop
      vertex 0.4513285160064697 8.172405242919922 64.87411499023438
      vertex 1.5563321113586426 7.39121150970459 65.65530395507812
      vertex 1.700698971748352 7.904416561126709 65.14210510253906
    endloop
  endfacet
  facet normal 2.1480345822055824e-06 0.7071061134338379 0.707107424736023
    outer loop
      vertex 1.5563321113586426 7.39121150970459 65.65530395507812
      vertex 0.4513285160064697 8.172405242919922 64.87411499023438
      vertex 0.16814255714416504 7.688976287841797 65.3575439453125
    endloop
  endfacet
  facet normal 0.0 0.7071067690849304 0.7071067690849304
    outer loop
      vertex -0.7000980377197266 8.607593536376953 64.43892669677734
      vertex 0.16814255714416504 7.688976287841797 65.3575439453125
      vertex 0.4513285160064697 8.172405242919922 64.87411499023438
    endloop
  endfacet
  facet normal 0.0 0.7071067690849304 0.7071067690849304
    outer loop
      vertex 0.16814255714416504 7.688976287841797 65.3575439453125
      vertex -0.7000980377197266 8.607593536376953 64.43892669677734
      vertex -1.111220359802246 8.17251968383789 64.8740005493164
    endloop
  endfacet
  facet normal -8.678937319928082e-07 0.7071072459220886 0.707106351852417
    outer loop
      vertex -1.7093310356140137 9.193258285522461 63.8532600402832
      vertex -1.111220359802246 8.17251968383789 64.8740005493164
      vertex -0.7000980377197266 8.607593536376953 64.43892669677734
    endloop
  endfacet
  facet normal -6.695190677419305e-07 0.7071072459220886 0.707106351852417
    outer loop
      vertex -1.111220359802246 8.17251968383789 64.8740005493164
      vertex -1.7093310356140137 9.193258285522461 63.8532600402832
      vertex -2.2325897216796875 8.823259353637695 64.22325897216797
    endloop
  endfacet
  facet normal 7.129142431949731e-07 0.7071062922477722 0.7071072459220886
    outer loop
      vertex -2.5375866889953613 9.90689468383789 63.139625549316406
      vertex -2.2325897216796875 8.823259353637695 64.22325897216797
      vertex -1.7093310356140137 9.193258285522461 63.8532600402832
    endloop
  endfacet
  facet normal -1.4227275642042514e-06 0.7071059942245483 0.7071076035499573
    outer loop
      vertex -2.2325897216796875 8.823259353637695 64.22325897216797
      vertex -2.5375866889953613 9.90689468383789 63.139625549316406
      vertex -3.152873992919922 9.616186141967773 63.43033218383789
    endloop
  endfacet
  facet normal -2.169732397305779e-06 0.7071067690849304 0.7071067690849304
    outer loop
      vertex -3.1530375480651855 10.721075057983398 62.325443267822266
      vertex -3.152873992919922 9.616186141967773 63.43033218383789
      vertex -2.5375866889953613 9.90689468383789 63.139625549316406
    endloop
  endfacet
  facet normal -9.903275213218876e-07 0.7071067690849304 0.7071067690849304
    outer loop
      vertex -3.152873992919922 9.616186141967773 63.43033218383789
      vertex -3.1530375480651855 10.721075057983398 62.325443267822266
      vertex -3.8367085456848145 10.520833015441895 62.52568435668945
    endloop
  endfacet
  facet normal -6.664182592430734e-07 0.7071062922477722 0.7071073055267334
    outer loop
      vertex -3.532029628753662 11.604514122009277 61.4420051574707
      vertex -3.8367085456848145 10.520833015441895 62.52568435668945
      vertex -3.1530375480651855 10.721075057983398 62.325443267822266
    endloop
  endfacet
  facet normal -1.7505100231574033e-06 0.7071064114570618 0.7071071863174438
    outer loop
      vertex -3.8367085456848145 10.520833015441895 62.52568435668945
      vertex -3.532029628753662 11.604514122009277 61.4420051574707
      vertex -4.257811069488525 11.50243091583252 61.54408645629883
    endloop
  endfacet
  facet normal -2.0302479697420495e-06 0.7071073651313782 0.7071061730384827
    outer loop
      vertex -3.6599998474121094 12.523259162902832 60.523258209228516
      vertex -4.257811069488525 11.50243091583252 61.54408645629883
      vertex -3.532029628753662 11.604514122009277 61.4420051574707
    endloop
  endfacet
  facet normal 0.0 0.7071067690849304 0.7071067690849304
    outer loop
      vertex -3.6599998474121094 12.523259162902832 60.523258209228516
      vertex -4.400000095367432 12.523259162902832 60.523258209228516
      vertex -4.257811069488525 11.50243091583252 61.54408645629883
    endloop
  endfacet
  facet normal 0.0 0.7071067690849304 0.7071067690849304
    outer loop
      vertex -3.6599998474121094 12.523259162902832 60.523258209228516
      vertex -4.257811069488525 13.544087409973145 59.5024299621582
      vertex -4.400000095367432 12.523259162902832 60.523258209228516
    endloop
  endfacet
  facet normal -1.9837571016978472e-06 0.7071061730384827 0.707107424736023
    outer loop
      vertex -4.257811069488525 13.544087409973145 59.5024299621582
      vertex -3.6599998474121094 12.523259162902832 60.523258209228516
      vertex -3.532029628753662 13.442004203796387 59.604515075683594
    endloop
  endfacet
  facet normal -1.7853789131550002e-06 0.7071071863174438 0.7071064114570618
    outer loop
      vertex -3.532029628753662 13.442004203796387 59.604515075683594
      vertex -3.8367080688476562 14.52568531036377 58.52083206176758
      vertex -4.257811069488525 13.544087409973145 59.5024299621582
    endloop
  endfacet
  facet normal -2.789654217849602e-06 0.7071070075035095 0.7071065902709961
    outer loop
      vertex -3.8367080688476562 14.52568531036377 58.52083206176758
      vertex -3.532029628753662 13.442004203796387 59.604515075683594
      vertex -3.1530370712280273 14.325443267822266 58.72107696533203
    endloop
  endfacet
  facet normal -2.4549012778152246e-06 0.7071077227592468 0.7071058750152588
    outer loop
      vertex -3.1530370712280273 14.325443267822266 58.72107696533203
      vertex -3.1528759002685547 15.430329322814941 57.616188049316406
      vertex -3.8367080688476562 14.52568531036377 58.52083206176758
    endloop
  endfacet
  facet normal 1.92176617019868e-06 0.7071077227592468 0.7071058750152588
    outer loop
      vertex -3.1528759002685547 15.430329322814941 57.616188049316406
      vertex -3.1530370712280273 14.325443267822266 58.72107696533203
      vertex -2.537588119506836 15.13962173461914 57.90689468383789
    endloop
  endfacet
  facet normal 9.484823522143415e-07 0.7071066498756409 0.7071069478988647
    outer loop
      vertex -2.537588119506836 15.13962173461914 57.90689468383789
      vertex -2.232591152191162 16.22325897216797 56.82325744628906
      vertex -3.1528759002685547 15.430329322814941 57.616188049316406
    endloop
  endfacet
  facet normal -2.1697280772059457e-06 0.7071070671081543 0.7071064710617065
    outer loop
      vertex -2.232591152191162 16.22325897216797 56.82325744628906
      vertex -2.537588119506836 15.13962173461914 57.90689468383789
      vertex -1.7093315124511719 15.85325813293457 57.193260192871094
    endloop
  endfacet
  facet normal -1.8411691371511552e-06 0.7071073055267334 0.7071062922477722
    outer loop
      vertex -1.7093315124511719 15.85325813293457 57.193260192871094
      vertex -1.111220359802246 16.873998641967773 56.17251968383789
      vertex -2.232591152191162 16.22325897216797 56.82325744628906
    endloop
  endfacet
  facet normal 0.0 0.7071067690849304 0.7071067690849304
    outer loop
      vertex -1.111220359802246 16.873998641967773 56.17251968383789
      vertex -1.7093315124511719 15.85325813293457 57.193260192871094
      vertex -0.7000980377197266 16.43892478942871 56.60759353637695
    endloop
  endfacet
  facet normal 0.0 0.7071067690849304 0.7071067690849304
    outer loop
      vertex -0.7000980377197266 16.43892478942871 56.60759353637695
      vertex 0.16814255714416504 17.357542037963867 55.6889762878418
      vertex -1.111220359802246 16.873998641967773 56.17251968383789
    endloop
  endfacet
  facet normal -1.797779532353161e-06 0.707107663154602 0.7071059346199036
    outer loop
      vertex 0.16814255714416504 17.357542037963867 55.6889762878418
      vertex -0.7000980377197266 16.43892478942871 56.60759353637695
      vertex 0.4513285160064697 16.874114990234375 56.17240524291992
    endloop
  endfacet
  facet normal -1.394828700540529e-06 0.7071077227592468 0.707105815410614
    outer loop
      vertex 0.4513285160064697 16.874114990234375 56.17240524291992
      vertex 1.5563322305679321 17.65530776977539 55.391212463378906
      vertex 0.16814255714416504 17.357542037963867 55.6889762878418
    endloop
  endfacet
  facet normal 3.099619334534509e-06 0.7071045637130737 0.7071089744567871
    outer loop
      vertex 1.5563322305679321 17.65530776977539 55.391212463378906
      vertex 0.4513285160064697 16.874114990234375 56.17240524291992
      vertex 1.7006990909576416 17.142101287841797 55.904415130615234
    endloop
  endfacet
  facet normal 1.272782355954405e-06 0.7071043252944946 0.707109272480011
    outer loop
      vertex 1.7006990909576416 17.142101287841797 55.904415130615234
      vertex 3.0 17.755849838256836 55.29066848754883
      vertex 1.5563322305679321 17.65530776977539 55.391212463378906
    endloop
  endfacet
  facet normal 1.7822817710566596e-07 0.7071055173873901 0.7071080207824707
    outer loop
      vertex 1.7006990909576416 17.142101287841797 55.904415130615234
      vertex 3.0 17.232589721679688 55.813926696777344
      vertex 3.0 17.755849838256836 55.29066848754883
    endloop
  endfacet
  facet normal 2.347954932702123e-06 -0.707108736038208 -0.7071048617362976
    outer loop
      vertex 2.999999523162842 7.290668964385986 64.7093276977539
      vertex 4.2993011474609375 7.381157398223877 64.61884307861328
      vertex 2.9999992847442627 6.767409801483154 65.23258972167969
    endloop
  endfacet
  facet normal 1.2832402944695787e-06 -0.7071075439453125 -0.7071059942245483
    outer loop
      vertex 2.9999992847442627 6.767409801483154 65.23258972167969
      vertex 4.2993011474609375 7.381157398223877 64.61884307861328
      vertex 4.443667888641357 6.867952346801758 65.13204956054688
    endloop
  endfacet
  facet normal -6.199225026648492e-07 -0.7071078419685364 -0.7071057558059692
    outer loop
      vertex 5.548671722412109 7.649145603179932 64.3508529663086
      vertex 4.443667888641357 6.867952346801758 65.13204956054688
      vertex 4.2993011474609375 7.381157398223877 64.61884307861328
    endloop
  endfacet
  facet normal -1.143757458521577e-06 -0.7071074843406677 -0.7071061134338379
    outer loop
      vertex 4.443667888641357 6.867952346801758 65.13204956054688
      vertex 5.548671722412109 7.649145603179932 64.3508529663086
      vertex 5.831857681274414 7.165717124938965 64.83428192138672
    endloop
  endfacet
  facet normal 9.298849477090698e-07 -0.7071068286895752 -0.7071067094802856
    outer loop
      vertex 6.700098037719727 8.084335327148438 63.91566467285156
      vertex 5.831857681274414 7.165717124938965 64.83428192138672
      vertex 5.548671722412109 7.649145603179932 64.3508529663086
    endloop
  endfacet
  facet normal -4.463447851321689e-07 -0.7071062326431274 -0.7071073651313782
    outer loop
      vertex 5.831857681274414 7.165717124938965 64.83428192138672
      vertex 6.700098037719727 8.084335327148438 63.91566467285156
      vertex 7.111220359802246 7.649260520935059 64.35073852539062
    endloop
  endfacet
  facet normal 2.789659561130975e-07 -0.7071058750152588 -0.707107663154602
    outer loop
      vertex 7.709331035614014 8.670000076293945 63.33000183105469
      vertex 7.111220359802246 7.649260520935059 64.35073852539062
      vertex 6.700098037719727 8.084335327148438 63.91566467285156
    endloop
  endfacet
  facet normal -8.368990620510885e-07 -0.7071055769920349 -0.7071080207824707
    outer loop
      vertex 7.111220359802246 7.649260520935059 64.35073852539062
      vertex 7.709331035614014 8.670000076293945 63.33000183105469
      vertex 8.232589721679688 8.299999237060547 63.70000076293945
    endloop
  endfacet
  facet normal -2.882648459490156e-06 -0.7071070075035095 -0.7071065306663513
    outer loop
      vertex 8.537586212158203 9.383634567260742 62.616363525390625
      vertex 8.232589721679688 8.299999237060547 63.70000076293945
      vertex 7.709331035614014 8.670000076293945 63.33000183105469
    endloop
  endfacet
  facet normal 3.347585789015284e-06 -0.7071078419685364 -0.7071056962013245
    outer loop
      vertex 8.232589721679688 8.299999237060547 63.70000076293945
      vertex 8.537586212158203 9.383634567260742 62.616363525390625
      vertex 9.152873992919922 9.092927932739258 62.907073974609375
    endloop
  endfacet
  facet normal 4.091493337909924e-06 -0.7071070671081543 -0.7071064710617065
    outer loop
      vertex 9.153038024902344 10.197815895080566 61.80218505859375
      vertex 9.152873992919922 9.092927932739258 62.907073974609375
      vertex 8.537586212158203 9.383634567260742 62.616363525390625
    endloop
  endfacet
  facet normal -1.1716571179931634e-06 -0.7071070671081543 -0.7071064710617065
    outer loop
      vertex 9.152873992919922 9.092927932739258 62.907073974609375
      vertex 9.153038024902344 10.197815895080566 61.80218505859375
      vertex 9.836708068847656 9.997573852539062 62.00242614746094
    endloop
  endfacet
  facet normal -6.664190550509375e-07 -0.7071062326431274 -0.7071073055267334
    outer loop
      vertex 9.53203010559082 11.081254959106445 60.91874694824219
      vertex 9.836708068847656 9.997573852539062 62.00242614746094
      vertex 9.153038024902344 10.197815895080566 61.80218505859375
    endloop
  endfacet
  facet normal -1.75051218320732e-06 -0.7071064114570618 -0.7071071863174438
    outer loop
      vertex 9.836708068847656 9.997573852539062 62.00242614746094
      vertex 9.53203010559082 11.081254959106445 60.91874694824219
      vertex 10.257810592651367 10.979171752929688 61.02082824707031
    endloop
  endfacet
  facet normal -2.0302506982261548e-06 -0.7071073651313782 -0.7071061730384827
    outer loop
      vertex 9.65999984741211 12.0 60.0
      vertex 10.257810592651367 10.979171752929688 61.02082824707031
      vertex 9.53203010559082 11.081254959106445 60.91874694824219
    endloop
  endfacet
  facet normal 0.0 -0.7071067690849304 -0.7071067690849304
    outer loop
      vertex 9.65999984741211 12.0 60.0
      vertex 10.399999618530273 12.0 60.0
      vertex 10.257810592651367 10.979171752929688 61.02082824707031
    endloop
  endfacet
  facet normal 0.0 -0.7071067690849304 -0.7071067690849304
    outer loop
      vertex 9.65999984741211 12.0 60.0
      vertex 10.257810592651367 13.020828247070312 58.97917175292969
      vertex 10.399999618530273 12.0 60.0
    endloop
  endfacet
  facet normal 2.045748715318041e-06 -0.7071073651313782 -0.7071061730384827
    outer loop
      vertex 10.257810592651367 13.020828247070312 58.97917175292969
      vertex 9.65999984741211 12.0 60.0
      vertex 9.53203010559082 12.918745040893555 59.08125305175781
    endloop
  endfacet
  facet normal 1.6737964187996113e-06 -0.7071064114570618 -0.7071071863174438
    outer loop
      vertex 9.53203010559082 12.918745040893555 59.08125305175781
      vertex 9.836708068847656 14.002426147460938 57.99757385253906
      vertex 10.257810592651367 13.020828247070312 58.97917175292969
    endloop
  endfacet
  facet normal 6.81916105804703e-07 -0.7071062326431274 -0.7071073055267334
    outer loop
      vertex 9.836708068847656 14.002426147460938 57.99757385253906
      vertex 9.53203010559082 12.918745040893555 59.08125305175781
      vertex 9.153037071228027 13.802184104919434 58.19781494140625
    endloop
  endfacet
  facet normal 7.811062801010848e-07 -0.7071064710617065 -0.7071071267127991
    outer loop
      vertex 9.153037071228027 13.802184104919434 58.19781494140625
      vertex 9.152875900268555 14.90707015991211 57.09292984008789
      vertex 9.836708068847656 14.002426147460938 57.99757385253906
    endloop
  endfacet
  facet normal -2.479702629898384e-07 -0.7071064710617065 -0.7071071267127991
    outer loop
      vertex 9.152875900268555 14.90707015991211 57.09292984008789
      vertex 9.153037071228027 13.802184104919434 58.19781494140625
      vertex 8.537588119506836 14.616363525390625 57.383636474609375
    endloop
  endfacet
  facet normal 2.789656150525843e-07 -0.7071070671081543 -0.7071064710617065
    outer loop
      vertex 8.537588119506836 14.616363525390625 57.383636474609375
      vertex 8.23259162902832 15.699999809265137 56.29999923706055
      vertex 9.152875900268555 14.90707015991211 57.09292984008789
    endloop
  endfacet
  facet normal -2.913635171353235e-06 -0.7071075439453125 -0.7071060538291931
    outer loop
      vertex 8.23259162902832 15.699999809265137 56.29999923706055
      vertex 8.537588119506836 14.616363525390625 57.383636474609375
      vertex 7.709331512451172 15.329999923706055 56.67000198364258
    endloop
  endfacet
  facet normal -2.0643421976274112e-06 -0.7071080803871155 -0.7071055173873901
    outer loop
      vertex 7.709331512451172 15.329999923706055 56.67000198364258
      vertex 7.111220359802246 16.350738525390625 55.649261474609375
      vertex 8.23259162902832 15.699999809265137 56.29999923706055
    endloop
  endfacet
  facet normal -1.2398483306697017e-07 -0.707107424736023 -0.7071061134338379
    outer loop
      vertex 7.111220359802246 16.350738525390625 55.649261474609375
      vertex 7.709331512451172 15.329999923706055 56.67000198364258
      vertex 6.700098037719727 15.915665626525879 56.08433532714844
    endloop
  endfacet
  facet normal -1.2274493883523974e-06 -0.7071069478988647 -0.7071065902709961
    outer loop
      vertex 6.700098037719727 15.915665626525879 56.08433532714844
      vertex 5.831857681274414 16.83428382873535 55.16571807861328
      vertex 7.111220359802246 16.350738525390625 55.649261474609375
    endloop
  endfacet
  facet normal -4.6494233174598776e-07 -0.7071066498756409 -0.70710688829422
    outer loop
      vertex 5.831857681274414 16.83428382873535 55.16571807861328
      vertex 6.700098037719727 15.915665626525879 56.08433532714844
      vertex 5.548671722412109 16.350854873657227 55.649147033691406
    endloop
  endfacet
  facet normal 1.729583914311661e-06 -0.7071073055267334 -0.7071062326431274
    outer loop
      vertex 5.548671722412109 16.350854873657227 55.649147033691406
      vertex 4.443667888641357 17.132047653198242 54.867950439453125
      vertex 5.831857681274414 16.83428382873535 55.16571807861328
    endloop
  endfacet
  facet normal 4.804400646207796e-07 -0.7071081399917603 -0.7071053981781006
    outer loop
      vertex 4.443667888641357 17.132047653198242 54.867950439453125
      vertex 5.548671722412109 16.350854873657227 55.649147033691406
      vertex 4.2993011474609375 16.61884307861328 55.38115692138672
    endloop
  endfacet
  facet normal -1.0984268783431617e-06 -0.7071079015731812 -0.7071056365966797
    outer loop
      vertex 4.2993011474609375 16.61884307861328 55.38115692138672
      vertex 3.0 17.232589721679688 54.76741027832031
      vertex 4.443667888641357 17.132047653198242 54.867950439453125
    endloop
  endfacet
  facet normal 0.0 -0.7071067690849304 -0.7071067690849304
    outer loop
      vertex 4.2993011474609375 16.61884307861328 55.38115692138672
      vertex 3.0 16.709331512451172 55.29066848754883
      vertex 3.0 17.232589721679688 54.76741027832031
    endloop
  endfacet
  facet normal -2.3557058739243075e-06 -0.707108736038208 -0.7071048617362976
    outer loop
      vertex 2.999999523162842 7.290668964385986 64.7093276977539
      vertex 2.9999992847442627 6.767409801483154 65.23258972167969
      vertex 1.700698971748352 7.381157398223877 64.61884307861328
    endloop
  endfacet
  facet normal -1.2797544286513585e-06 -0.7071076035499573 -0.7071059346199036
    outer loop
      vertex 2.9999992847442627 6.767409801483154 65.23258972167969
      vertex 1.5563321113586426 6.867952346801758 65.13204956054688
      vertex 1.700698971748352 7.381157398223877 64.61884307861328
    endloop
  endfacet
  facet normal 6.199224458214303e-07 -0.7071078419685364 -0.7071056962013245
    outer loop
      vertex 0.4513285160064697 7.649145603179932 64.3508529663086
      vertex 1.700698971748352 7.381157398223877 64.61884307861328
      vertex 1.5563321113586426 6.867952346801758 65.13204956054688
    endloop
  endfacet
  facet normal 1.1577059240153176e-06 -0.7071074843406677 -0.7071061134338379
    outer loop
      vertex 1.5563321113586426 6.867952346801758 65.13204956054688
      vertex 0.16814255714416504 7.165717124938965 64.83428192138672
      vertex 0.4513285160064697 7.649145603179932 64.3508529663086
    endloop
  endfacet
  facet normal -9.298847771788132e-07 -0.7071068286895752 -0.7071067094802856
    outer loop
      vertex -0.7000980377197266 8.084335327148438 63.91566467285156
      vertex 0.4513285160064697 7.649145603179932 64.3508529663086
      vertex 0.16814255714416504 7.165717124938965 64.83428192138672
    endloop
  endfacet
  facet normal 4.3239646174697555e-07 -0.7071062326431274 -0.7071073651313782
    outer loop
      vertex 0.16814255714416504 7.165717124938965 64.83428192138672
      vertex -1.111220359802246 7.649260520935059 64.35073852539062
      vertex -0.7000980377197266 8.084335327148438 63.91566467285156
    endloop
  endfacet
  facet normal -2.789659561130975e-07 -0.7071058750152588 -0.707107663154602
    outer loop
      vertex -1.7093310356140137 8.670000076293945 63.33000183105469
      vertex -0.7000980377197266 8.084335327148438 63.91566467285156
      vertex -1.111220359802246 7.649260520935059 64.35073852539062
    endloop
  endfacet
  facet normal 8.229507670876046e-07 -0.7071055769920349 -0.7071080207824707
    outer loop
      vertex -1.111220359802246 7.649260520935059 64.35073852539062
      vertex -2.2325897216796875 8.299999237060547 63.70000076293945
      vertex -1.7093310356140137 8.670000076293945 63.33000183105469
    endloop
  endfacet
  facet normal 2.8826482321164804e-06 -0.7071070075035095 -0.7071065902709961
    outer loop
      vertex -2.5375866889953613 9.383634567260742 62.616363525390625
      vertex -1.7093310356140137 8.670000076293945 63.33000183105469
      vertex -2.2325897216796875 8.299999237060547 63.70000076293945
    endloop
  endfacet
  facet normal -3.3615363008721033e-06 -0.7071079015731812 -0.7071056962013245
    outer loop
      vertex -2.2325897216796875 8.299999237060547 63.70000076293945
      vertex -3.152873992919922 9.092927932739258 62.907073974609375
      vertex -2.5375866889953613 9.383634567260742 62.616363525390625
    endloop
  endfacet
  facet normal -4.091496975888731e-06 -0.7071070671081543 -0.7071064710617065
    outer loop
      vertex -3.1530375480651855 10.197815895080566 61.80218505859375
      vertex -2.5375866889953613 9.383634567260742 62.616363525390625
      vertex -3.152873992919922 9.092927932739258 62.907073974609375
    endloop
  endfacet
  facet normal 1.171655640064273e-06 -0.7071070671081543 -0.7071065306663513
    outer loop
      vertex -3.152873992919922 9.092927932739258 62.907073974609375
      vertex -3.8367085456848145 9.997573852539062 62.00242614746094
      vertex -3.1530375480651855 10.197815895080566 61.80218505859375
    endloop
  endfacet
  facet normal 6.664182592430734e-07 -0.7071062922477722 -0.7071073055267334
    outer loop
      vertex -3.532029628753662 11.081254959106445 60.91874694824219
      vertex -3.1530375480651855 10.197815895080566 61.80218505859375
      vertex -3.8367085456848145 9.997573852539062 62.00242614746094
    endloop
  endfacet
  facet normal 1.7505100231574033e-06 -0.7071064114570618 -0.7071071863174438
    outer loop
      vertex -3.8367085456848145 9.997573852539062 62.00242614746094
      vertex -4.257811069488525 10.979171752929688 61.02082824707031
      vertex -3.532029628753662 11.081254959106445 60.91874694824219
    endloop
  endfacet
  facet normal 2.0224988475092687e-06 -0.7071073651313782 -0.7071062326431274
    outer loop
      vertex -3.6599998474121094 12.0 60.0
      vertex -3.532029628753662 11.081254959106445 60.91874694824219
      vertex -4.257811069488525 10.979171752929688 61.02082824707031
    endloop
  endfacet
  facet normal 0.0 -0.7071067690849304 -0.7071067690849304
    outer loop
      vertex -3.6599998474121094 12.0 60.0
      vertex -4.257811069488525 10.979171752929688 61.02082824707031
      vertex -4.399999618530273 12.0 60.0
    endloop
  endfacet
  facet normal 0.0 -0.7071067690849304 -0.7071067690849304
    outer loop
      vertex -3.6599998474121094 12.0 60.0
      vertex -4.399999618530273 12.0 60.0
      vertex -4.257811069488525 13.020828247070312 58.97917175292969
    endloop
  endfacet
  facet normal -2.0224988475092687e-06 -0.7071073651313782 -0.7071062326431274
    outer loop
      vertex -4.257811069488525 13.020828247070312 58.97917175292969
      vertex -3.532029628753662 12.918745040893555 59.08125305175781
      vertex -3.6599998474121094 12.0 60.0
    endloop
  endfacet
  facet normal -1.7505100231574033e-06 -0.7071064114570618 -0.7071071267127991
    outer loop
      vertex -3.532029628753662 12.918745040893555 59.08125305175781
      vertex -4.257811069488525 13.020828247070312 58.97917175292969
      vertex -3.8367080688476562 14.002426147460938 57.99757385253906
    endloop
  endfacet
  facet normal -6.664180887128168e-07 -0.7071062326431274 -0.7071073055267334
    outer loop
      vertex -3.8367080688476562 14.002426147460938 57.99757385253906
      vertex -3.1530370712280273 13.802184104919434 58.19781494140625
      vertex -3.532029628753662 12.918745040893555 59.08125305175781
    endloop
  endfacet
  facet normal -8.090029268714716e-07 -0.7071064710617065 -0.7071071267127991
    outer loop
      vertex -3.1530370712280273 13.802184104919434 58.19781494140625
      vertex -3.8367080688476562 14.002426147460938 57.99757385253906
      vertex -3.1528759002685547 14.90707015991211 57.09292984008789
    endloop
  endfacet
  facet normal 2.9446465532600996e-07 -0.7071064710617065 -0.7071070671081543
    outer loop
      vertex -3.1528759002685547 14.90707015991211 57.09292984008789
      vertex -2.537588119506836 14.616363525390625 57.383636474609375
      vertex -3.1530370712280273 13.802184104919434 58.19781494140625
    endloop
  endfacet
  facet normal -2.6501729166739096e-07 -0.7071070671081543 -0.7071065306663513
    outer loop
      vertex -2.537588119506836 14.616363525390625 57.383636474609375
      vertex -3.1528759002685547 14.90707015991211 57.09292984008789
      vertex -2.232591152191162 15.699999809265137 56.29999923706055
    endloop
  endfacet
  facet normal 2.8516442398540676e-06 -0.7071074843406677 -0.7071060538291931
    outer loop
      vertex -2.232591152191162 15.699999809265137 56.29999923706055
      vertex -1.7093315124511719 15.329999923706055 56.67000198364258
      vertex -2.537588119506836 14.616363525390625 57.383636474609375
    endloop
  endfacet
  facet normal 2.064343561869464e-06 -0.7071080803871155 -0.7071055173873901
    outer loop
      vertex -1.7093315124511719 15.329999923706055 56.67000198364258
      vertex -2.232591152191162 15.699999809265137 56.29999923706055
      vertex -1.111220359802246 16.350738525390625 55.649261474609375
    endloop
  endfacet
  facet normal 1.5498103778099903e-07 -0.7071074843406677 -0.7071061134338379
    outer loop
      vertex -1.111220359802246 16.350738525390625 55.649261474609375
      vertex -0.7000980377197266 15.915665626525879 56.08433532714844
      vertex -1.7093315124511719 15.329999923706055 56.67000198364258
    endloop
  endfacet
  facet normal 1.2135009228586568e-06 -0.7071070075035095 -0.7071065902709961
    outer loop
      vertex -0.7000980377197266 15.915665626525879 56.08433532714844
      vertex -1.111220359802246 16.350738525390625 55.649261474609375
      vertex 0.16814255714416504 16.83428382873535 55.16571807861328
    endloop
  endfacet
  facet normal 4.804403488378739e-07 -0.7071066498756409 -0.70710688829422
    outer loop
      vertex 0.16814255714416504 16.83428382873535 55.16571807861328
      vertex 0.4513285160064697 16.350854873657227 55.649147033691406
      vertex -0.7000980377197266 15.915665626525879 56.08433532714844
    endloop
  endfacet
  facet normal -1.7156357898784336e-06 -0.7071073055267334 -0.7071062326431274
    outer loop
      vertex 0.4513285160064697 16.350854873657227 55.649147033691406
      vertex 0.16814255714416504 16.83428382873535 55.16571807861328
      vertex 1.5563322305679321 17.132047653198242 54.867950439453125
    endloop
  endfacet
  facet normal -4.959381385560846e-07 -0.7071081399917603 -0.7071053981781006
    outer loop
      vertex 1.5563322305679321 17.132047653198242 54.867950439453125
      vertex 1.7006990909576416 16.61884307861328 55.38115692138672
      vertex 0.4513285160064697 16.350854873657227 55.649147033691406
    endloop
  endfacet
  facet normal 1.0949398756565643e-06 -0.7071080207824707 -0.7071055769920349
    outer loop
      vertex 1.7006990909576416 16.61884307861328 55.38115692138672
      vertex 1.5563322305679321 17.132047653198242 54.867950439453125
      vertex 3.0 17.232589721679688 54.76741027832031
    endloop
  endfacet
  facet normal 0.0 -0.7071067690849304 -0.7071067690849304
    outer loop
      vertex 1.7006990909576416 16.61884307861328 55.38115692138672
      vertex 3.0 17.232589721679688 54.76741027832031
      vertex 3.0 16.709331512451172 55.29066848754883
    endloop
  endfacet
  facet normal -0.0980195626616478 -0.7037036418914795 0.7036997675895691
    outer loop
      vertex 1.5563321113586426 7.39121150970459 65.65530395507812
      vertex 2.9999992847442627 6.767409801483154 65.23258972167969
      vertex 2.9999992847442627 7.290668964385986 65.75585174560547
    endloop
  endfacet
  facet normal -0.2902826964855194 -0.6766563057899475 0.6766625046730042
    outer loop
      vertex 0.16814255714416504 7.688976287841797 65.3575439453125
      vertex 1.5563321113586426 6.867952346801758 65.13204956054688
      vertex 1.5563321113586426 7.39121150970459 65.65530395507812
    endloop
  endfacet
  facet normal -0.47139671444892883 -0.6236142516136169 0.62361079454422
    outer loop
      vertex -1.111220359802246 8.17251968383789 64.8740005493164
      vertex 0.16814255714416504 7.165717124938965 64.83428192138672
      vertex 0.16814255714416504 7.688976287841797 65.3575439453125
    endloop
  endfacet
  facet normal -0.6343941688537598 -0.5466018915176392 0.5465989112854004
    outer loop
      vertex -2.2325897216796875 8.823259353637695 64.22325897216797
      vertex -1.111220359802246 7.649260520935059 64.35073852539062
      vertex -1.111220359802246 8.17251968383789 64.8740005493164
    endloop
  endfacet
  facet normal -0.7730098962783813 -0.4485833942890167 0.44858500361442566
    outer loop
      vertex -3.152873992919922 9.616186141967773 63.43033218383789
      vertex -2.2325897216796875 8.299999237060547 63.70000076293945
      vertex -2.2325897216796875 8.823259353637695 64.22325897216797
    endloop
  endfacet
  facet normal -0.8819212913513184 -0.3333278000354767 0.3333278000354767
    outer loop
      vertex -3.8367085456848145 10.520833015441895 62.52568435668945
      vertex -3.152873992919922 9.092927932739258 62.907073974609375
      vertex -3.152873992919922 9.616186141967773 63.43033218383789
    endloop
  endfacet
  facet normal -0.9569403529167175 -0.20526206493377686 0.2052624523639679
    outer loop
      vertex -4.257811069488525 11.50243091583252 61.54408645629883
      vertex -3.8367085456848145 9.997573852539062 62.00242614746094
      vertex -3.8367085456848145 10.520833015441895 62.52568435668945
    endloop
  endfacet
  facet normal -0.9951848387718201 -0.0693083107471466 0.06930842250585556
    outer loop
      vertex -4.257811069488525 11.50243091583252 61.54408645629883
      vertex -4.399999618530273 12.0 60.0
      vertex -4.257811069488525 10.979171752929688 61.02082824707031
    endloop
  endfacet
  facet normal -0.9951847195625305 0.0693080723285675 -0.06930910795927048
    outer loop
      vertex -4.257811069488525 13.544087409973145 59.5024299621582
      vertex -4.399999618530273 12.0 60.0
      vertex -4.400000095367432 12.523259162902832 60.523258209228516
    endloop
  endfacet
  facet normal -0.9569402933120728 0.20526228845119476 -0.2052626758813858
    outer loop
      vertex -3.8367080688476562 14.52568531036377 58.52083206176758
      vertex -4.257811069488525 13.020828247070312 58.97917175292969
      vertex -4.257811069488525 13.544087409973145 59.5024299621582
    endloop
  endfacet
  facet normal -0.8819212317466736 0.33332759141921997 -0.33332815766334534
    outer loop
      vertex -3.1528759002685547 15.430329322814941 57.616188049316406
      vertex -3.8367080688476562 14.002426147460938 57.99757385253906
      vertex -3.8367080688476562 14.52568531036377 58.52083206176758
    endloop
  endfacet
  facet normal -0.7730112075805664 0.44858285784721375 -0.4485836625099182
    outer loop
      vertex -2.232591152191162 16.22325897216797 56.82325744628906
      vertex -3.1528759002685547 14.90707015991211 57.09292984008789
      vertex -3.1528759002685547 15.430329322814941 57.616188049316406
    endloop
  endfacet
  facet normal -0.6343926191329956 0.5466008186340332 -0.5466018319129944
    outer loop
      vertex -1.111220359802246 16.873998641967773 56.17251968383789
      vertex -2.232591152191162 15.699999809265137 56.29999923706055
      vertex -2.232591152191162 16.22325897216797 56.82325744628906
    endloop
  endfacet
  facet normal -0.47139668464660645 0.6236113905906677 -0.6236136555671692
    outer loop
      vertex 0.16814255714416504 17.357542037963867 55.6889762878418
      vertex -1.111220359802246 16.350738525390625 55.649261474609375
      vertex -1.111220359802246 16.873998641967773 56.17251968383789
    endloop
  endfacet
  facet normal -0.29028481245040894 0.6766589879989624 -0.6766589879989624
    outer loop
      vertex 1.5563322305679321 17.65530776977539 55.391212463378906
      vertex 0.16814255714416504 16.83428382873535 55.16571807861328
      vertex 0.16814255714416504 17.357542037963867 55.6889762878418
    endloop
  endfacet
  facet normal -0.09801744669675827 0.7037031650543213 -0.703700602054596
    outer loop
      vertex 3.0 17.755849838256836 55.29066848754883
      vertex 1.5563322305679321 17.132047653198242 54.867950439453125
      vertex 1.5563322305679321 17.65530776977539 55.391212463378906
    endloop
  endfacet
  facet normal 0.09801743924617767 0.703700602054596 -0.7037031650543213
    outer loop
      vertex 4.443667888641357 17.65530776977539 55.391212463378906
      vertex 3.0 17.232589721679688 54.76741027832031
      vertex 3.0 17.755849838256836 55.29066848754883
    endloop
  endfacet
  facet normal 0.29028481245040894 0.6766602396965027 -0.6766577363014221
    outer loop
      vertex 5.831857681274414 17.357542037963867 55.6889762878418
      vertex 4.443667888641357 17.132047653198242 54.867950439453125
      vertex 4.443667888641357 17.65530776977539 55.391212463378906
    endloop
  endfacet
  facet normal 0.4713967442512512 0.6236125230789185 -0.6236125230789185
    outer loop
      vertex 7.111220359802246 16.873998641967773 56.17251968383789
      vertex 5.831857681274414 16.83428382873535 55.16571807861328
      vertex 5.831857681274414 17.357542037963867 55.6889762878418
    endloop
  endfacet
  facet normal 0.6343924403190613 0.5466004014015198 -0.5466024279594421
    outer loop
      vertex 8.23259162902832 16.22325897216797 56.82325744628906
      vertex 7.111220359802246 16.350738525390625 55.649261474609375
      vertex 7.111220359802246 16.873998641967773 56.17251968383789
    endloop
  endfacet
  facet normal 0.7730112671852112 0.4485827088356018 -0.4485835134983063
    outer loop
      vertex 9.152875900268555 15.430329322814941 57.616188049316406
      vertex 8.23259162902832 15.699999809265137 56.29999923706055
      vertex 8.23259162902832 16.22325897216797 56.82325744628906
    endloop
  endfacet
  facet normal 0.8819212913513184 0.3333275616168976 -0.33332815766334534
    outer loop
      vertex 9.836708068847656 14.52568531036377 58.52083206176758
      vertex 9.152875900268555 14.90707015991211 57.09292984008789
      vertex 9.152875900268555 15.430329322814941 57.616188049316406
    endloop
  endfacet
  facet normal 0.9569403529167175 0.20526206493377686 -0.2052624523639679
    outer loop
      vertex 10.257810592651367 13.544087409973145 59.5024299621582
      vertex 9.836708068847656 14.002426147460938 57.99757385253906
      vertex 9.836708068847656 14.52568531036377 58.52083206176758
    endloop
  endfacet
  facet normal 0.9951847195625305 0.06930852681398392 -0.06930865347385406
    outer loop
      vertex 10.399999618530273 12.523259162902832 60.523258209228516
      vertex 10.257810592651367 13.020828247070312 58.97917175292969
      vertex 10.257810592651367 13.544087409973145 59.5024299621582
    endloop
  endfacet
  facet normal 0.9951847195625305 -0.06930852681398392 0.06930865347385406
    outer loop
      vertex 10.257810592651367 11.50243091583252 61.54408645629883
      vertex 10.399999618530273 12.0 60.0
      vertex 10.399999618530273 12.523259162902832 60.523258209228516
    endloop
  endfacet
  facet normal 0.9569403529167175 -0.20526206493377686 0.2052624523639679
    outer loop
      vertex 9.836708068847656 10.520833015441895 62.52568435668945
      vertex 10.257810592651367 10.979171752929688 61.02082824707031
      vertex 10.257810592651367 11.50243091583252 61.54408645629883
    endloop
  endfacet
  facet normal 0.8819213509559631 -0.3333273231983185 0.33332791924476624
    outer loop
      vertex 9.152873992919922 9.616186141967773 63.43033218383789
      vertex 9.836708068847656 9.997573852539062 62.00242614746094
      vertex 9.836708068847656 10.520833015441895 62.52568435668945
    endloop
  endfacet
  facet normal 0.7730099558830261 -0.4485842287540436 0.4485842287540436
    outer loop
      vertex 8.232589721679688 8.823259353637695 64.22325897216797
      vertex 9.152873992919922 9.092927932739258 62.907073974609375
      vertex 9.152873992919922 9.616186141967773 63.43033218383789
    endloop
  endfacet
  facet normal 0.6343942284584045 -0.5465993881225586 0.5466013550758362
    outer loop
      vertex 7.111220359802246 8.17251968383789 64.8740005493164
      vertex 8.232589721679688 8.299999237060547 63.70000076293945
      vertex 8.232589721679688 8.823259353637695 64.22325897216797
    endloop
  endfacet
  facet normal 0.4713967740535736 -0.6236141920089722 0.62361079454422
    outer loop
      vertex 5.831857681274414 7.688976287841797 65.3575439453125
      vertex 7.111220359802246 7.649260520935059 64.35073852539062
      vertex 7.111220359802246 8.17251968383789 64.8740005493164
    endloop
  endfacet
  facet normal 0.2902826964855194 -0.6766613125801086 0.6766576170921326
    outer loop
      vertex 4.443667888641357 7.39121150970459 65.65530395507812
      vertex 5.831857681274414 7.165717124938965 64.83428192138672
      vertex 5.831857681274414 7.688976287841797 65.3575439453125
    endloop
  endfacet
  facet normal 0.09801945835351944 -0.7036985158920288 0.7037048935890198
    outer loop
      vertex 2.9999992847442627 7.290668964385986 65.75585174560547
      vertex 4.443667888641357 6.867952346801758 65.13204956054688
      vertex 4.443667888641357 7.39121150970459 65.65530395507812
    endloop
  endfacet
  facet normal -0.09801587462425232 -0.7036987543106079 0.7037051916122437
    outer loop
      vertex 1.5563321113586426 7.39121150970459 65.65530395507812
      vertex 1.5563321113586426 6.867952346801758 65.13204956054688
      vertex 2.9999992847442627 6.767409801483154 65.23258972167969
    endloop
  endfacet
  facet normal -0.290286123752594 -0.6766605377197266 0.6766568422317505
    outer loop
      vertex 0.16814255714416504 7.688976287841797 65.3575439453125
      vertex 0.16814255714416504 7.165717124938965 64.83428192138672
      vertex 1.5563321113586426 6.867952346801758 65.13204956054688
    endloop
  endfacet
  facet normal -0.47139671444892883 -0.6236142516136169 0.62361079454422
    outer loop
      vertex -1.111220359802246 8.17251968383789 64.8740005493164
      vertex -1.111220359802246 7.649260520935059 64.35073852539062
      vertex 0.16814255714416504 7.165717124938965 64.83428192138672
    endloop
  endfacet
  facet normal -0.6343927979469299 -0.5466002225875854 0.546602189540863
    outer loop
      vertex -2.2325897216796875 8.823259353637695 64.22325897216797
      vertex -2.2325897216796875 8.299999237060547 63.70000076293945
      vertex -1.111220359802246 7.649260520935059 64.35073852539062
    endloop
  endfacet
  facet normal -0.7730104327201843 -0.4485839307308197 0.4485839307308197
    outer loop
      vertex -3.152873992919922 9.616186141967773 63.43033218383789
      vertex -3.152873992919922 9.092927932739258 62.907073974609375
      vertex -2.2325897216796875 8.299999237060547 63.70000076293945
    endloop
  endfacet
  facet normal -0.8819212317466736 -0.33332765102386475 0.3333282470703125
    outer loop
      vertex -3.8367085456848145 10.520833015441895 62.52568435668945
      vertex -3.8367085456848145 9.997573852539062 62.00242614746094
      vertex -3.152873992919922 9.092927932739258 62.907073974609375
    endloop
  endfacet
  facet normal -0.9569403529167175 -0.20526206493377686 0.2052624523639679
    outer loop
      vertex -4.257811069488525 11.50243091583252 61.54408645629883
      vertex -4.257811069488525 10.979171752929688 61.02082824707031
      vertex -3.8367085456848145 9.997573852539062 62.00242614746094
    endloop
  endfacet
  facet normal -0.9951847195625305 -0.06930897384881973 0.06930820643901825
    outer loop
      vertex -4.257811069488525 11.50243091583252 61.54408645629883
      vertex -4.400000095367432 12.523259162902832 60.523258209228516
      vertex -4.399999618530273 12.0 60.0
    endloop
  endfacet
  facet normal -0.9951848387718201 0.06930830329656601 -0.06930842995643616
    outer loop
      vertex -4.257811069488525 13.544087409973145 59.5024299621582
      vertex -4.257811069488525 13.020828247070312 58.97917175292969
      vertex -4.399999618530273 12.0 60.0
    endloop
  endfacet
  facet normal -0.9569402933120728 0.20526228845119476 -0.2052626758813858
    outer loop
      vertex -3.8367080688476562 14.52568531036377 58.52083206176758
      vertex -3.8367080688476562 14.002426147460938 57.99757385253906
      vertex -4.257811069488525 13.020828247070312 58.97917175292969
    endloop
  endfacet
  facet normal -0.8819212913513184 0.3333275616168976 -0.33332815766334534
    outer loop
      vertex -3.1528759002685547 15.430329322814941 57.616188049316406
      vertex -3.1528759002685547 14.90707015991211 57.09292984008789
      vertex -3.8367080688476562 14.002426147460938 57.99757385253906
    endloop
  endfacet
  facet normal -0.7730112075805664 0.44858285784721375 -0.4485836625099182
    outer loop
      vertex -2.232591152191162 16.22325897216797 56.82325744628906
      vertex -2.232591152191162 15.699999809265137 56.29999923706055
      vertex -3.1528759002685547 14.90707015991211 57.09292984008789
    endloop
  endfacet
  facet normal -0.6343923211097717 0.5466005206108093 -0.5466024875640869
    outer loop
      vertex -1.111220359802246 16.873998641967773 56.17251968383789
      vertex -1.111220359802246 16.350738525390625 55.649261474609375
      vertex -2.232591152191162 15.699999809265137 56.29999923706055
    endloop
  endfacet
  facet normal -0.47139739990234375 0.6236122846603394 -0.6236122846603394
    outer loop
      vertex 0.16814255714416504 17.357542037963867 55.6889762878418
      vertex 0.16814255714416504 16.83428382873535 55.16571807861328
      vertex -1.111220359802246 16.350738525390625 55.649261474609375
    endloop
  endfacet
  facet normal -0.29028570652008057 0.6766600608825684 -0.6766575574874878
    outer loop
      vertex 1.5563322305679321 17.65530776977539 55.391212463378906
      vertex 1.5563322305679321 17.132047653198242 54.867950439453125
      vertex 0.16814255714416504 16.83428382873535 55.16571807861328
    endloop
  endfacet
  facet normal -0.09801560640335083 0.7037007212638855 -0.7037032842636108
    outer loop
      vertex 3.0 17.755849838256836 55.29066848754883
      vertex 3.0 17.232589721679688 54.76741027832031
      vertex 1.5563322305679321 17.132047653198242 54.867950439453125
    endloop
  endfacet
  facet normal 0.09801559895277023 0.7037032842636108 -0.7037007212638855
    outer loop
      vertex 4.443667888641357 17.65530776977539 55.391212463378906
      vertex 4.443667888641357 17.132047653198242 54.867950439453125
      vertex 3.0 17.232589721679688 54.76741027832031
    endloop
  endfacet
  facet normal 0.2902856469154358 0.6766588091850281 -0.6766588091850281
    outer loop
      vertex 5.831857681274414 17.357542037963867 55.6889762878418
      vertex 5.831857681274414 16.83428382873535 55.16571807861328
      vertex 4.443667888641357 17.132047653198242 54.867950439453125
    endloop
  endfacet
  facet normal 0.4713974595069885 0.6236110925674438 -0.6236133575439453
    outer loop
      vertex 7.111220359802246 16.873998641967773 56.17251968383789
      vertex 7.111220359802246 16.350738525390625 55.649261474609375
      vertex 5.831857681274414 16.83428382873535 55.16571807861328
    endloop
  endfacet
  facet normal 0.6343922019004822 0.5466011166572571 -0.5466021299362183
    outer loop
      vertex 8.23259162902832 16.22325897216797 56.82325744628906
      vertex 8.23259162902832 15.699999809265137 56.29999923706055
      vertex 7.111220359802246 16.350738525390625 55.649261474609375
    endloop
  endfacet
  facet normal 0.7730112671852112 0.4485827088356018 -0.4485835134983063
    outer loop
      vertex 9.152875900268555 15.430329322814941 57.616188049316406
      vertex 9.152875900268555 14.90707015991211 57.09292984008789
      vertex 8.23259162902832 15.699999809265137 56.29999923706055
    endloop
  endfacet
  facet normal 0.8819212913513184 0.3333275616168976 -0.33332815766334534
    outer loop
      vertex 9.836708068847656 14.52568531036377 58.52083206176758
      vertex 9.836708068847656 14.002426147460938 57.99757385253906
      vertex 9.152875900268555 14.90707015991211 57.09292984008789
    endloop
  endfacet
  facet normal 0.9569403529167175 0.20526206493377686 -0.2052624523639679
    outer loop
      vertex 10.257810592651367 13.544087409973145 59.5024299621582
      vertex 10.257810592651367 13.020828247070312 58.97917175292969
      vertex 9.836708068847656 14.002426147460938 57.99757385253906
    endloop
  endfacet
  facet normal 0.9951847195625305 0.06930852681398392 -0.06930865347385406
    outer loop
      vertex 10.399999618530273 12.523259162902832 60.523258209228516
      vertex 10.399999618530273 12.0 60.0
      vertex 10.257810592651367 13.020828247070312 58.97917175292969
    endloop
  endfacet
  facet normal 0.9951847195625305 -0.06930852681398392 0.06930865347385406
    outer loop
      vertex 10.257810592651367 11.50243091583252 61.54408645629883
      vertex 10.257810592651367 10.979171752929688 61.02082824707031
      vertex 10.399999618530273 12.0 60.0
    endloop
  endfacet
  facet normal 0.9569403529167175 -0.20526206493377686 0.2052624523639679
    outer loop
      vertex 9.836708068847656 10.520833015441895 62.52568435668945
      vertex 9.836708068847656 9.997573852539062 62.00242614746094
      vertex 10.257810592651367 10.979171752929688 61.02082824707031
    endloop
  endfacet
  facet normal 0.8819214105606079 -0.3333277702331543 0.3333277702331543
    outer loop
      vertex 9.152873992919922 9.616186141967773 63.43033218383789
      vertex 9.152873992919922 9.092927932739258 62.907073974609375
      vertex 9.836708068847656 9.997573852539062 62.00242614746094
    endloop
  endfacet
  facet normal 0.7730103135108948 -0.44858312606811523 0.44858473539352417
    outer loop
      vertex 8.232589721679688 8.823259353637695 64.22325897216797
      vertex 8.232589721679688 8.299999237060547 63.70000076293945
      vertex 9.152873992919922 9.092927932739258 62.907073974609375
    endloop
  endfacet
  facet normal 0.6343927979469299 -0.546602725982666 0.5465997457504272
    outer loop
      vertex 7.111220359802246 8.17251968383789 64.8740005493164
      vertex 7.111220359802246 7.649260520935059 64.35073852539062
      vertex 8.232589721679688 8.299999237060547 63.70000076293945
    endloop
  endfacet
  facet normal 0.4713967740535736 -0.6236141920089722 0.62361079454422
    outer loop
      vertex 5.831857681274414 7.688976287841797 65.3575439453125
      vertex 5.831857681274414 7.165717124938965 64.83428192138672
      vertex 7.111220359802246 7.649260520935059 64.35073852539062
    endloop
  endfacet
  facet normal 0.2902860939502716 -0.676655650138855 0.6766617894172668
    outer loop
      vertex 4.443667888641357 7.39121150970459 65.65530395507812
      vertex 4.443667888641357 6.867952346801758 65.13204956054688
      vertex 5.831857681274414 7.165717124938965 64.83428192138672
    endloop
  endfacet
  facet normal 0.09801577776670456 -0.7037038803100586 0.703700065612793
    outer loop
      vertex 2.9999992847442627 7.290668964385986 65.75585174560547
      vertex 2.9999992847442627 6.767409801483154 65.23258972167969
      vertex 4.443667888641357 6.867952346801758 65.13204956054688
    endloop
  endfacet
  facet normal 0.09801512211561203 0.7037038803100586 -0.7037001252174377
    outer loop
      vertex 2.999999523162842 7.290668964385986 64.7093276977539
      vertex 1.700698971748352 7.904416561126709 65.14210510253906
      vertex 2.999999523162842 7.813928127288818 65.23258972167969
    endloop
  endfacet
  facet normal 0.29028594493865967 0.6766605973243713 -0.6766568422317505
    outer loop
      vertex 1.700698971748352 7.381157398223877 64.61884307861328
      vertex 0.4513285160064697 8.172405242919922 64.87411499023438
      vertex 1.700698971748352 7.904416561126709 65.14210510253906
    endloop
  endfacet
  facet normal 0.4713960886001587 0.6236142516136169 -0.623611330986023
    outer loop
      vertex 0.4513285160064697 7.649145603179932 64.3508529663086
      vertex -0.7000980377197266 8.607593536376953 64.43892669677734
      vertex 0.4513285160064697 8.172405242919922 64.87411499023438
    endloop
  endfacet
  facet normal 0.6343933939933777 0.5466028451919556 -0.5465988516807556
    outer loop
      vertex -0.7000980377197266 8.084335327148438 63.91566467285156
      vertex -1.7093310356140137 9.193258285522461 63.8532600402832
      vertex -0.7000980377197266 8.607593536376953 64.43892669677734
    endloop
  endfacet
  facet normal 0.7730106115341187 0.4485836625099182 -0.4485836625099182
    outer loop
      vertex -1.7093310356140137 8.670000076293945 63.33000183105469
      vertex -2.5375866889953613 9.90689468383789 63.139625549316406
      vertex -1.7093310356140137 9.193258285522461 63.8532600402832
    endloop
  endfacet
  facet normal 0.881921112537384 0.3333287537097931 -0.3333275020122528
    outer loop
      vertex -2.5375866889953613 9.383634567260742 62.616363525390625
      vertex -3.1530375480651855 10.721075057983398 62.325443267822266
      vertex -2.5375866889953613 9.90689468383789 63.139625549316406
    endloop
  endfacet
  facet normal 0.9569404125213623 0.20526185631752014 -0.20526225864887238
    outer loop
      vertex -3.1530375480651855 10.197815895080566 61.80218505859375
      vertex -3.532029628753662 11.604514122009277 61.4420051574707
      vertex -3.1530375480651855 10.721075057983398 62.325443267822266
    endloop
  endfacet
  facet normal 0.9951847195625305 0.06930854171514511 -0.06930866837501526
    outer loop
      vertex -3.532029628753662 11.081254959106445 60.91874694824219
      vertex -3.6599998474121094 12.523259162902832 60.523258209228516
      vertex -3.532029628753662 11.604514122009277 61.4420051574707
    endloop
  endfacet
  facet normal 0.9951847791671753 -0.06930868327617645 0.0693088173866272
    outer loop
      vertex -3.6599998474121094 12.0 60.0
      vertex -3.532029628753662 13.442004203796387 59.604515075683594
      vertex -3.6599998474121094 12.523259162902832 60.523258209228516
    endloop
  endfacet
  facet normal 0.9569404125213623 -0.20526286959648132 0.2052617222070694
    outer loop
      vertex -3.532029628753662 12.918745040893555 59.08125305175781
      vertex -3.1530370712280273 14.325443267822266 58.72107696533203
      vertex -3.532029628753662 13.442004203796387 59.604515075683594
    endloop
  endfacet
  facet normal 0.8819214105606079 -0.333328515291214 0.3333267271518707
    outer loop
      vertex -3.1530370712280273 13.802184104919434 58.19781494140625
      vertex -2.537588119506836 15.13962173461914 57.90689468383789
      vertex -3.1530370712280273 14.325443267822266 58.72107696533203
    endloop
  endfacet
  facet normal 0.7730103135108948 -0.44858402013778687 0.44858402013778687
    outer loop
      vertex -2.537588119506836 14.616363525390625 57.383636474609375
      vertex -1.7093315124511719 15.85325813293457 57.193260192871094
      vertex -2.537588119506836 15.13962173461914 57.90689468383789
    endloop
  endfacet
  facet normal 0.6343938708305359 -0.5466006398200989 0.5466006398200989
    outer loop
      vertex -1.7093315124511719 15.329999923706055 56.67000198364258
      vertex -0.7000980377197266 16.43892478942871 56.60759353637695
      vertex -1.7093315124511719 15.85325813293457 57.193260192871094
    endloop
  endfacet
  facet normal 0.47139686346054077 -0.6236119270324707 0.6236129999160767
    outer loop
      vertex -0.7000980377197266 15.915665626525879 56.08433532714844
      vertex 0.4513285160064697 16.874114990234375 56.17240524291992
      vertex -0.7000980377197266 16.43892478942871 56.60759353637695
    endloop
  endfacet
  facet normal 0.29028478264808655 -0.6766577363014221 0.6766601800918579
    outer loop
      vertex 0.4513285160064697 16.350854873657227 55.649147033691406
      vertex 1.7006990909576416 17.142101287841797 55.904415130615234
      vertex 0.4513285160064697 16.874114990234375 56.17240524291992
    endloop
  endfacet
  facet normal 0.0980171337723732 -0.703701913356781 0.7037018537521362
    outer loop
      vertex 1.7006990909576416 16.61884307861328 55.38115692138672
      vertex 3.0 17.232589721679688 55.813926696777344
      vertex 1.7006990909576416 17.142101287841797 55.904415130615234
    endloop
  endfacet
  facet normal -0.0980171263217926 -0.703701913356781 0.7037018537521362
    outer loop
      vertex 3.0 16.709331512451172 55.29066848754883
      vertex 4.2993011474609375 17.142101287841797 55.904415130615234
      vertex 3.0 17.232589721679688 55.813926696777344
    endloop
  endfacet
  facet normal -0.29028475284576416 -0.6766589879989624 0.6766589879989624
    outer loop
      vertex 4.2993011474609375 16.61884307861328 55.38115692138672
      vertex 5.548671722412109 16.874114990234375 56.17240524291992
      vertex 4.2993011474609375 17.142101287841797 55.904415130615234
    endloop
  endfacet
  facet normal -0.4713970124721527 -0.6236112713813782 0.6236135959625244
    outer loop
      vertex 5.548671722412109 16.350854873657227 55.649147033691406
      vertex 6.700098037719727 16.43892478942871 56.60759353637695
      vertex 5.548671722412109 16.874114990234375 56.17240524291992
    endloop
  endfacet
  facet normal -0.6343938708305359 -0.5466001629829407 0.5466011166572571
    outer loop
      vertex 6.700098037719727 15.915665626525879 56.08433532714844
      vertex 7.709331512451172 15.85325813293457 57.193260192871094
      vertex 6.700098037719727 16.43892478942871 56.60759353637695
    endloop
  endfacet
  facet normal -0.77301025390625 -0.44858402013778687 0.4485839605331421
    outer loop
      vertex 7.709331512451172 15.329999923706055 56.67000198364258
      vertex 8.537588119506836 15.13962173461914 57.90689468383789
      vertex 7.709331512451172 15.85325813293457 57.193260192871094
    endloop
  endfacet
  facet normal -0.8819214701652527 -0.33332768082618713 0.33332762122154236
    outer loop
      vertex 8.537588119506836 14.616363525390625 57.383636474609375
      vertex 9.153037071228027 14.325443267822266 58.72107696533203
      vertex 8.537588119506836 15.13962173461914 57.90689468383789
    endloop
  endfacet
  facet normal -0.956940233707428 -0.20526310801506042 0.2052619904279709
    outer loop
      vertex 9.153037071228027 13.802184104919434 58.19781494140625
      vertex 9.53203010559082 13.442004203796387 59.604515075683594
      vertex 9.153037071228027 14.325443267822266 58.72107696533203
    endloop
  endfacet
  facet normal -0.9951847791671753 -0.06930868327617645 0.06930829584598541
    outer loop
      vertex 9.53203010559082 12.918745040893555 59.08125305175781
      vertex 9.65999984741211 12.523259162902832 60.523258209228516
      vertex 9.53203010559082 13.442004203796387 59.604515075683594
    endloop
  endfacet
  facet normal -0.9951847791671753 0.06930829584598541 -0.06930840760469437
    outer loop
      vertex 9.65999984741211 12.0 60.0
      vertex 9.53203010559082 11.604514122009277 61.4420051574707
      vertex 9.65999984741211 12.523259162902832 60.523258209228516
    endloop
  endfacet
  facet normal -0.9569404125213623 0.20526188611984253 -0.20526222884655
    outer loop
      vertex 9.53203010559082 11.081254959106445 60.91874694824219
      vertex 9.153038024902344 10.721075057983398 62.325443267822266
      vertex 9.53203010559082 11.604514122009277 61.4420051574707
    endloop
  endfacet
  facet normal -0.8819207549095154 0.3333281874656677 -0.3333287835121155
    outer loop
      vertex 9.153038024902344 10.197815895080566 61.80218505859375
      vertex 8.537586212158203 9.90689468383789 63.139625549316406
      vertex 9.153038024902344 10.721075057983398 62.325443267822266
    endloop
  endfacet
  facet normal -0.7730108499526978 0.44858428835868835 -0.4485827088356018
    outer loop
      vertex 8.537586212158203 9.383634567260742 62.616363525390625
      vertex 7.709331035614014 9.193258285522461 63.8532600402832
      vertex 8.537586212158203 9.90689468383789 63.139625549316406
    endloop
  endfacet
  facet normal -0.6343934535980225 0.5466008186340332 -0.546600878238678
    outer loop
      vertex 7.709331035614014 8.670000076293945 63.33000183105469
      vertex 6.700098037719727 8.607593536376953 64.43892669677734
      vertex 7.709331035614014 9.193258285522461 63.8532600402832
    endloop
  endfacet
  facet normal -0.47139614820480347 0.6236149668693542 -0.6236104965209961
    outer loop
      vertex 6.700098037719727 8.084335327148438 63.91566467285156
      vertex 5.548671722412109 8.172405242919922 64.87411499023438
      vertex 6.700098037719727 8.607593536376953 64.43892669677734
    endloop
  endfacet
  facet normal -0.29028597474098206 0.6766602396965027 -0.6766571998596191
    outer loop
      vertex 5.548671722412109 7.649145603179932 64.3508529663086
      vertex 4.2993011474609375 7.904416561126709 65.14210510253906
      vertex 5.548671722412109 8.172405242919922 64.87411499023438
    endloop
  endfacet
  facet normal -0.09801504015922546 0.7037039399147034 -0.7037001252174377
    outer loop
      vertex 4.2993011474609375 7.381157398223877 64.61884307861328
      vertex 2.999999523162842 7.813928127288818 65.23258972167969
      vertex 4.2993011474609375 7.904416561126709 65.14210510253906
    endloop
  endfacet
  facet normal 0.09801512211561203 0.7037039399147034 -0.703700065612793
    outer loop
      vertex 2.999999523162842 7.290668964385986 64.7093276977539
      vertex 1.700698971748352 7.381157398223877 64.61884307861328
      vertex 1.700698971748352 7.904416561126709 65.14210510253906
    endloop
  endfacet
  facet normal 0.29028576612472534 0.6766603589057922 -0.6766572594642639
    outer loop
      vertex 1.700698971748352 7.381157398223877 64.61884307861328
      vertex 0.4513285160064697 7.649145603179932 64.3508529663086
      vertex 0.4513285160064697 8.172405242919922 64.87411499023438
    endloop
  endfacet
  facet normal 0.47139668464660645 0.6236148476600647 -0.6236103177070618
    outer loop
      vertex 0.4513285160064697 7.649145603179932 64.3508529663086
      vertex -0.7000980377197266 8.084335327148438 63.91566467285156
      vertex -0.7000980377197266 8.607593536376953 64.43892669677734
    endloop
  endfacet
  facet normal 0.6343922019004822 0.5466015934944153 -0.5466015934944153
    outer loop
      vertex -0.7000980377197266 8.084335327148438 63.91566467285156
      vertex -1.7093310356140137 8.670000076293945 63.33000183105469
      vertex -1.7093310356140137 9.193258285522461 63.8532600402832
    endloop
  endfacet
  facet normal 0.7730109691619873 0.44858407974243164 -0.4485824406147003
    outer loop
      vertex -1.7093310356140137 8.670000076293945 63.33000183105469
      vertex -2.5375866889953613 9.383634567260742 62.616363525390625
      vertex -2.5375866889953613 9.90689468383789 63.139625549316406
    endloop
  endfacet
  facet normal 0.8819206357002258 0.3333282768726349 -0.33332887291908264
    outer loop
      vertex -2.5375866889953613 9.383634567260742 62.616363525390625
      vertex -3.1530375480651855 10.197815895080566 61.80218505859375
      vertex -3.1530375480651855 10.721075057983398 62.325443267822266
    endloop
  endfacet
  facet normal 0.9569404125213623 0.20526187121868134 -0.20526224374771118
    outer loop
      vertex -3.1530375480651855 10.197815895080566 61.80218505859375
      vertex -3.532029628753662 11.081254959106445 60.91874694824219
      vertex -3.532029628753662 11.604514122009277 61.4420051574707
    endloop
  endfacet
  facet normal 0.9951847791671753 0.06930854916572571 -0.06930867582559586
    outer loop
      vertex -3.532029628753662 11.081254959106445 60.91874694824219
      vertex -3.6599998474121094 12.0 60.0
      vertex -3.6599998474121094 12.523259162902832 60.523258209228516
    endloop
  endfacet
  facet normal 0.9951847195625305 -0.0693087950348854 0.06930840760469437
    outer loop
      vertex -3.6599998474121094 12.0 60.0
      vertex -3.532029628753662 12.918745040893555 59.08125305175781
      vertex -3.532029628753662 13.442004203796387 59.604515075683594
    endloop
  endfacet
  facet normal 0.9569403529167175 -0.20526286959648132 0.20526175200939178
    outer loop
      vertex -3.532029628753662 12.918745040893555 59.08125305175781
      vertex -3.1530370712280273 13.802184104919434 58.19781494140625
      vertex -3.1530370712280273 14.325443267822266 58.72107696533203
    endloop
  endfacet
  facet normal 0.8819210529327393 -0.3333280682563782 0.3333280682563782
    outer loop
      vertex -3.1530370712280273 13.802184104919434 58.19781494140625
      vertex -2.537588119506836 14.616363525390625 57.383636474609375
      vertex -2.537588119506836 15.13962173461914 57.90689468383789
    endloop
  endfacet
  facet normal 0.7730101943016052 -0.4485839903354645 0.4485839903354645
    outer loop
      vertex -2.537588119506836 14.616363525390625 57.383636474609375
      vertex -1.7093315124511719 15.329999923706055 56.67000198364258
      vertex -1.7093315124511719 15.85325813293457 57.193260192871094
    endloop
  endfacet
  facet normal 0.634393572807312 -0.546600341796875 0.5466012954711914
    outer loop
      vertex -1.7093315124511719 15.329999923706055 56.67000198364258
      vertex -0.7000980377197266 15.915665626525879 56.08433532714844
      vertex -0.7000980377197266 16.43892478942871 56.60759353637695
    endloop
  endfacet
  facet normal 0.47139644622802734 -0.6236114501953125 0.6236137747764587
    outer loop
      vertex -0.7000980377197266 15.915665626525879 56.08433532714844
      vertex 0.4513285160064697 16.350854873657227 55.649147033691406
      vertex 0.4513285160064697 16.874114990234375 56.17240524291992
    endloop
  endfacet
  facet normal 0.29028573632240295 -0.6766588091850281 0.6766588091850281
    outer loop
      vertex 0.4513285160064697 16.350854873657227 55.649147033691406
      vertex 1.7006990909576416 16.61884307861328 55.38115692138672
      vertex 1.7006990909576416 17.142101287841797 55.904415130615234
    endloop
  endfacet
  facet normal 0.0980171337723732 -0.7037018537521362 0.7037018537521362
    outer loop
      vertex 1.7006990909576416 16.61884307861328 55.38115692138672
      vertex 3.0 16.709331512451172 55.29066848754883
      vertex 3.0 17.232589721679688 55.813926696777344
    endloop
  endfacet
  facet normal -0.09801711142063141 -0.7037018537521362 0.7037018537521362
    outer loop
      vertex 3.0 16.709331512451172 55.29066848754883
      vertex 4.2993011474609375 16.61884307861328 55.38115692138672
      vertex 4.2993011474609375 17.142101287841797 55.904415130615234
    endloop
  endfacet
  facet normal -0.29028576612472534 -0.6766575574874878 0.6766600608825684
    outer loop
      vertex 4.2993011474609375 16.61884307861328 55.38115692138672
      vertex 5.548671722412109 16.350854873657227 55.649147033691406
      vertex 5.548671722412109 16.874114990234375 56.17240524291992
    endloop
  endfacet
  facet normal -0.4713965654373169 -0.6236120462417603 0.623613178730011
    outer loop
      vertex 5.548671722412109 16.350854873657227 55.649147033691406
      vertex 6.700098037719727 15.915665626525879 56.08433532714844
      vertex 6.700098037719727 16.43892478942871 56.60759353637695
    endloop
  endfacet
  facet normal -0.634393572807312 -0.5466007590293884 0.5466007590293884
    outer loop
      vertex 6.700098037719727 15.915665626525879 56.08433532714844
      vertex 7.709331512451172 15.329999923706055 56.67000198364258
      vertex 7.709331512451172 15.85325813293457 57.193260192871094
    endloop
  endfacet
  facet normal -0.7730101943016052 -0.4485839903354645 0.4485839903354645
    outer loop
      vertex 7.709331512451172 15.329999923706055 56.67000198364258
      vertex 8.537588119506836 14.616363525390625 57.383636474609375
      vertex 8.537588119506836 15.13962173461914 57.90689468383789
    endloop
  endfacet
  facet normal -0.8819211721420288 -0.3333289921283722 0.33332717418670654
    outer loop
      vertex 8.537588119506836 14.616363525390625 57.383636474609375
      vertex 9.153037071228027 13.802184104919434 58.19781494140625
      vertex 9.153037071228027 14.325443267822266 58.72107696533203
    endloop
  endfacet
  facet normal -0.956940233707428 -0.20526309311389923 0.2052619904279709
    outer loop
      vertex 9.153037071228027 13.802184104919434 58.19781494140625
      vertex 9.53203010559082 12.918745040893555 59.08125305175781
      vertex 9.53203010559082 13.442004203796387 59.604515075683594
    endloop
  endfacet
  facet normal -0.9951847791671753 -0.06930829584598541 0.06930841505527496
    outer loop
      vertex 9.53203010559082 12.918745040893555 59.08125305175781
      vertex 9.65999984741211 12.0 60.0
      vertex 9.65999984741211 12.523259162902832 60.523258209228516
    endloop
  endfacet
  facet normal -0.9951847791671753 0.06930829584598541 -0.06930841505527496
    outer loop
      vertex 9.65999984741211 12.0 60.0
      vertex 9.53203010559082 11.081254959106445 60.91874694824219
      vertex 9.53203010559082 11.604514122009277 61.4420051574707
    endloop
  endfacet
  facet normal -0.9569404125213623 0.20526187121868134 -0.20526224374771118
    outer loop
      vertex 9.53203010559082 11.081254959106445 60.91874694824219
      vertex 9.153038024902344 10.197815895080566 61.80218505859375
      vertex 9.153038024902344 10.721075057983398 62.325443267822266
    endloop
  endfacet
  facet normal -0.8819203972816467 0.33332958817481995 -0.33332836627960205
    outer loop
      vertex 9.153038024902344 10.197815895080566 61.80218505859375
      vertex 8.537586212158203 9.383634567260742 62.616363525390625
      vertex 8.537586212158203 9.90689468383789 63.139625549316406
    endloop
  endfacet
  facet normal -0.7730112671852112 0.4485831558704376 -0.4485831558704376
    outer loop
      vertex 8.537586212158203 9.383634567260742 62.616363525390625
      vertex 7.709331035614014 8.670000076293945 63.33000183105469
      vertex 7.709331035614014 9.193258285522461 63.8532600402832
    endloop
  endfacet
  facet normal -0.6343922019004822 0.5466035604476929 -0.5465995669364929
    outer loop
      vertex 7.709331035614014 8.670000076293945 63.33000183105469
      vertex 6.700098037719727 8.084335327148438 63.91566467285156
      vertex 6.700098037719727 8.607593536376953 64.43892669677734
    endloop
  endfacet
  facet normal -0.4713967740535736 0.6236138939857483 -0.6236110925674438
    outer loop
      vertex 6.700098037719727 8.084335327148438 63.91566467285156
      vertex 5.548671722412109 7.649145603179932 64.3508529663086
      vertex 5.548671722412109 8.172405242919922 64.87411499023438
    endloop
  endfacet
  facet normal -0.29028573632240295 0.6766606569290161 -0.67665696144104
    outer loop
      vertex 5.548671722412109 7.649145603179932 64.3508529663086
      vertex 4.2993011474609375 7.381157398223877 64.61884307861328
      vertex 4.2993011474609375 7.904416561126709 65.14210510253906
    endloop
  endfacet
  facet normal -0.09801504015922546 0.7037039399147034 -0.7037001252174377
    outer loop
      vertex 4.2993011474609375 7.381157398223877 64.61884307861328
      vertex 2.999999523162842 7.290668964385986 64.7093276977539
      vertex 2.999999523162842 7.813928127288818 65.23258972167969
    endloop
  endfacet
endsolid
