solid av_perm
  facet normal 0.0 0.7071061730384827 0.707107424736023
    outer loop
      vertex 3.0 12.0 61.04651641845703
      vertex 3.740000009536743 12.523259162902832 60.523258209228516
      vertex 3.0 12.523259162902832 60.523258209228516
    endloop
  endfacet
  facet normal 0.0 0.7071061730384827 0.707107424736023
    outer loop
      vertex 3.0 12.0 61.04651641845703
      vertex 3.0 12.523259162902832 60.523258209228516
      vertex 2.259999990463257 12.523259162902832 60.523258209228516
    endloop
  endfacet
  facet normal 0.0 0.7071061730384827 0.707107424736023
    outer loop
      vertex 3.0 13.046518325805664 60.0
      vertex 2.259999990463257 12.523259162902832 60.523258209228516
      vertex 3.0 12.523259162902832 60.523258209228516
    endloop
  endfacet
  facet normal 0.0 0.7071061730384827 0.707107424736023
    outer loop
      vertex 3.740000009536743 12.523259162902832 60.523258209228516
      vertex 3.0 13.046518325805664 60.0
      vertex 3.0 12.523259162902832 60.523258209228516
    endloop
  endfacet
  facet normal 2.790363566873566e-07 0.7071062922477722 0.7071072459220886
    outer loop
      vertex 3.0 12.0 61.04651641845703
      vertex 2.259999990463257 12.523259162902832 60.523258209228516
      vertex 1.6918525695800781 11.598258972167969 61.44825744628906
    endloop
  endfacet
  facet normal 0.0 0.7071064114570618 0.7071071863174438
    outer loop
      vertex 1.149999976158142 12.523259162902832 60.523258209228516
      vertex 1.6918525695800781 11.598258972167969 61.44825744628906
      vertex 2.259999990463257 12.523259162902832 60.523258209228516
    endloop
  endfacet
  facet normal 0.0 0.7071064114570618 0.7071071863174438
    outer loop
      vertex 1.6918522119522095 13.448259353637695 59.59825897216797
      vertex 1.149999976158142 12.523259162902832 60.523258209228516
      vertex 2.259999990463257 12.523259162902832 60.523258209228516
    endloop
  endfacet
  facet normal -2.7903629984393774e-07 0.7071062922477722 0.7071072459220886
    outer loop
      vertex 2.259999990463257 12.523259162902832 60.523258209228516
      vertex 3.0 13.046518325805664 60.0
      vertex 1.6918522119522095 13.448259353637695 59.59825897216797
    endloop
  endfacet
  facet normal 2.4629264316899935e-07 0.7071071863174438 0.707106351852417
    outer loop
      vertex 1.6918522119522095 13.448259353637695 59.59825897216797
      vertex 3.0 13.046518325805664 60.0
      vertex 3.0 13.831406593322754 59.215110778808594
    endloop
  endfacet
  facet normal -2.66817011151943e-07 0.7071071863174438 0.7071064114570618
    outer loop
      vertex 4.30814790725708 13.448259353637695 59.59825897216797
      vertex 3.0 13.831406593322754 59.215110778808594
      vertex 3.0 13.046518325805664 60.0
    endloop
  endfacet
  facet normal 2.7903629984393774e-07 0.707106351852417 0.7071072459220886
    outer loop
      vertex 3.0 13.046518325805664 60.0
      vertex 3.740000009536743 12.523259162902832 60.523258209228516
      vertex 4.30814790725708 13.448259353637695 59.59825897216797
    endloop
  endfacet
  facet normal 0.0 0.7071064114570618 0.7071071267127991
    outer loop
      vertex 4.30814790725708 13.448259353637695 59.59825897216797
      vertex 3.740000009536743 12.523259162902832 60.523258209228516
      vertex 4.849999904632568 12.523259162902832 60.523258209228516
    endloop
  endfacet
  facet normal 0.0 0.7071064114570618 0.7071071267127991
    outer loop
      vertex 4.308147430419922 11.598258972167969 61.44825744628906
      vertex 4.849999904632568 12.523259162902832 60.523258209228516
      vertex 3.740000009536743 12.523259162902832 60.523258209228516
    endloop
  endfacet
  facet normal -2.7903638510906603e-07 0.707106351852417 0.7071072459220886
    outer loop
      vertex 3.740000009536743 12.523259162902832 60.523258209228516
      vertex 3.0 12.0 61.04651641845703
      vertex 4.308147430419922 11.598258972167969 61.44825744628906
    endloop
  endfacet
  facet normal 2.462926715907088e-07 0.7071071863174438 0.707106351852417
    outer loop
      vertex 4.308147430419922 11.598258972167969 61.44825744628906
      vertex 3.0 12.0 61.04651641845703
      vertex 2.999999761581421 11.21511173248291 61.83140563964844
    endloop
  endfacet
  facet normal -2.6681712483878073e-07 0.7071072459220886 0.707106351852417
    outer loop
      vertex 1.6918525695800781 11.598258972167969 61.44825744628906
      vertex 2.999999761581421 11.21511173248291 61.83140563964844
      vertex 3.0 12.0 61.04651641845703
    endloop
  endfacet
  facet normal -0.38268372416496277 -0.6532808542251587 0.6532820463180542
    outer loop
      vertex 2.999999761581421 10.691852569580078 61.30814743041992
      vertex 2.999999761581421 11.21511173248291 61.83140563964844
      vertex 1.6918525695800781 11.598258972167969 61.44825744628906
    endloop
  endfacet
  facet normal -0.9238794445991516 -0.27059781551361084 0.27059853076934814
    outer loop
      vertex 1.6918524503707886 11.074999809265137 60.92499923706055
      vertex 1.6918525695800781 11.598258972167969 61.44825744628906
      vertex 1.149999976158142 12.523259162902832 60.523258209228516
    endloop
  endfacet
  facet normal -0.9238795638084412 0.27059778571128845 -0.27059826254844666
    outer loop
      vertex 1.149999976158142 12.0 60.0
      vertex 1.149999976158142 12.523259162902832 60.523258209228516
      vertex 1.6918522119522095 13.448259353637695 59.59825897216797
    endloop
  endfacet
  facet normal -0.38268348574638367 0.6532808542251587 -0.6532820463180542
    outer loop
      vertex 1.6918522119522095 12.925000190734863 59.07500076293945
      vertex 1.6918522119522095 13.448259353637695 59.59825897216797
      vertex 3.0 13.831406593322754 59.215110778808594
    endloop
  endfacet
  facet normal 0.38268351554870605 0.6532809138298035 -0.653282105922699
    outer loop
      vertex 3.0 13.308147430419922 58.69185256958008
      vertex 3.0 13.831406593322754 59.215110778808594
      vertex 4.30814790725708 13.448259353637695 59.59825897216797
    endloop
  endfacet
  facet normal 0.9238795638084412 0.2705976665019989 -0.2705981433391571
    outer loop
      vertex 4.30814790725708 12.925000190734863 59.07500076293945
      vertex 4.30814790725708 13.448259353637695 59.59825897216797
      vertex 4.849999904632568 12.523259162902832 60.523258209228516
    endloop
  endfacet
  facet normal 0.9238795638084412 -0.2705978751182556 0.2705984115600586
    outer loop
      vertex 4.849999904632568 12.0 60.0
      vertex 4.849999904632568 12.523259162902832 60.523258209228516
      vertex 4.308147430419922 11.598258972167969 61.44825744628906
    endloop
  endfacet
  facet normal 0.38268348574638367 -0.6532808542251587 0.6532820463180542
    outer loop
      vertex 4.308147430419922 11.074999809265137 60.92499923706055
      vertex 4.308147430419922 11.598258972167969 61.44825744628906
      vertex 2.999999761581421 11.21511173248291 61.83140563964844
    endloop
  endfacet
  facet normal -0.3826836943626404 -0.6532807946205139 0.653282105922699
    outer loop
      vertex 2.999999761581421 10.691852569580078 61.30814743041992
      vertex 1.6918525695800781 11.598258972167969 61.44825744628906
      vertex 1.6918524503707886 11.074999809265137 60.92499923706055
    endloop
  endfacet
  facet normal -0.9238795042037964 -0.2705978751182556 0.2705984115600586
    outer loop
      vertex 1.6918524503707886 11.074999809265137 60.92499923706055
      vertex 1.149999976158142 12.523259162902832 60.523258209228516
      vertex 1.149999976158142 12.0 60.0
    endloop
  endfacet
  facet normal -0.9238796234130859 0.27059781551361084 -0.27059829235076904
    outer loop
      vertex 1.149999976158142 12.0 60.0
      vertex 1.6918522119522095 13.448259353637695 59.59825897216797
      vertex 1.6918522119522095 12.925000190734863 59.07500076293945
    endloop
  endfacet
  facet normal -0.38268351554870605 0.6532808542251587 -0.6532820463180542
    outer loop
      vertex 1.6918522119522095 12.925000190734863 59.07500076293945
      vertex 3.0 13.831406593322754 59.215110778808594
      vertex 3.0 13.308147430419922 58.69185256958008
    endloop
  endfacet
  facet normal 0.38268348574638367 0.6532808542251587 -0.6532820463180542
    outer loop
      vertex 3.0 13.308147430419922 58.69185256958008
      vertex 4.30814790725708 13.448259353637695 59.59825897216797
      vertex 4.30814790725708 12.925000190734863 59.07500076293945
    endloop
  endfacet
  facet normal 0.9238795638084412 0.2705976665019989 -0.2705981433391571
    outer loop
      vertex 4.30814790725708 12.925000190734863 59.07500076293945
      vertex 4.849999904632568 12.523259162902832 60.523258209228516
      vertex 4.849999904632568 12.0 60.0
    endloop
  endfacet
  facet normal 0.9238795638084412 -0.2705978751182556 0.2705984115600586
    outer loop
      vertex 4.849999904632568 12.0 60.0
      vertex 4.308147430419922 11.598258972167969 61.44825744628906
      vertex 4.308147430419922 11.074999809265137 60.92499923706055
    endloop
  endfacet
  facet normal 0.38268351554870605 -0.6532808542251587 0.6532820463180542
    outer loop
      vertex 4.308147430419922 11.074999809265137 60.92499923706055
      vertex 2.999999761581421 11.21511173248291 61.83140563964844
      vertex 2.999999761581421 10.691852569580078 61.30814743041992
    endloop
  endfacet
  facet normal 0.0 -0.7071061730384827 -0.707107424736023
    outer loop
      vertex 3.0 11.476740837097168 60.523258209228516
      vertex 3.0 12.0 60.0
      vertex 3.740000009536743 12.0 60.0
    endloop
  endfacet
  facet normal 0.0 -0.7071061730384827 -0.707107424736023
    outer loop
      vertex 3.0 11.476740837097168 60.523258209228516
      vertex 2.259999990463257 12.0 60.0
      vertex 3.0 12.0 60.0
    endloop
  endfacet
  facet normal 0.0 -0.7071061730384827 -0.707107424736023
    outer loop
      vertex 3.0 12.523259162902832 59.476741790771484
      vertex 3.0 12.0 60.0
      vertex 2.259999990463257 12.0 60.0
    endloop
  endfacet
  facet normal 0.0 -0.7071061730384827 -0.707107424736023
    outer loop
      vertex 3.740000009536743 12.0 60.0
      vertex 3.0 12.0 60.0
      vertex 3.0 12.523259162902832 59.476741790771484
    endloop
  endfacet
  facet normal -2.790363566873566e-07 -0.7071062922477722 -0.7071072459220886
    outer loop
      vertex 3.0 11.476740837097168 60.523258209228516
      vertex 1.6918524503707886 11.074999809265137 60.92499923706055
      vertex 2.259999990463257 12.0 60.0
    endloop
  endfacet
  facet normal 0.0 -0.7071064114570618 -0.7071071863174438
    outer loop
      vertex 1.149999976158142 12.0 60.0
      vertex 2.259999990463257 12.0 60.0
      vertex 1.6918524503707886 11.074999809265137 60.92499923706055
    endloop
  endfacet
  facet normal 0.0 -0.7071064114570618 -0.7071071863174438
    outer loop
      vertex 1.6918522119522095 12.925000190734863 59.07500076293945
      vertex 2.259999990463257 12.0 60.0
      vertex 1.149999976158142 12.0 60.0
    endloop
  endfacet
  facet normal 2.7903629984393774e-07 -0.7071062922477722 -0.7071072459220886
    outer loop
      vertex 2.259999990463257 12.0 60.0
      vertex 1.6918522119522095 12.925000190734863 59.07500076293945
      vertex 3.0 12.523259162902832 59.476741790771484
    endloop
  endfacet
  facet normal -2.6681703957365244e-07 -0.7071071863174438 -0.707106351852417
    outer loop
      vertex 1.6918522119522095 12.925000190734863 59.07500076293945
      vertex 3.0 13.308147430419922 58.69185256958008
      vertex 3.0 12.523259162902832 59.476741790771484
    endloop
  endfacet
  facet normal 2.4629264316899935e-07 -0.7071071863174438 -0.7071064114570618
    outer loop
      vertex 4.30814790725708 12.925000190734863 59.07500076293945
      vertex 3.0 12.523259162902832 59.476741790771484
      vertex 3.0 13.308147430419922 58.69185256958008
    endloop
  endfacet
  facet normal -2.790362714222283e-07 -0.7071062922477722 -0.7071072459220886
    outer loop
      vertex 3.0 12.523259162902832 59.476741790771484
      vertex 4.30814790725708 12.925000190734863 59.07500076293945
      vertex 3.740000009536743 12.0 60.0
    endloop
  endfacet
  facet normal 0.0 -0.7071064114570618 -0.7071071267127991
    outer loop
      vertex 4.30814790725708 12.925000190734863 59.07500076293945
      vertex 4.849999904632568 12.0 60.0
      vertex 3.740000009536743 12.0 60.0
    endloop
  endfacet
  facet normal 0.0 -0.7071064114570618 -0.7071071267127991
    outer loop
      vertex 4.308147430419922 11.074999809265137 60.92499923706055
      vertex 3.740000009536743 12.0 60.0
      vertex 4.849999904632568 12.0 60.0
    endloop
  endfacet
  facet normal 2.790363566873566e-07 -0.7071062922477722 -0.7071072459220886
    outer loop
      vertex 3.740000009536743 12.0 60.0
      vertex 4.308147430419922 11.074999809265137 60.92499923706055
      vertex 3.0 11.476740837097168 60.523258209228516
    endloop
  endfacet
  facet normal -2.668170964170713e-07 -0.7071072459220886 -0.7071062922477722
    outer loop
      vertex 4.308147430419922 11.074999809265137 60.92499923706055
      vertex 2.999999761581421 10.691852569580078 61.30814743041992
      vertex 3.0 11.476740837097168 60.523258209228516
    endloop
  endfacet
  facet normal 2.4629272843412764e-07 -0.7071072459220886 -0.707106351852417
    outer loop
      vertex 1.6918524503707886 11.074999809265137 60.92499923706055
      vertex 3.0 11.476740837097168 60.523258209228516
      vertex 2.999999761581421 10.691852569580078 61.30814743041992
    endloop
  endfacet
endsolid
