solid mv_imperm
  facet normal 0.0 0.0 1.0
    outer loop
      vertex 1.9999995231628418 -7.94955587387085 62.70650100708008
      vertex 1.9999949932098389 -9.262125968933105 62.70650100708008
      vertex 3.1089110374450684 -7.898157119750977 62.70650100708008
    endloop
  endfacet
  facet normal 0.0 0.0 1.0
    outer loop
      vertex 1.9999949932098389 -9.262125968933105 62.70650100708008
      vertex 4.124935150146484 -8.94631576538086 62.70650100708008
      vertex 3.1089110374450684 -7.898157119750977 62.70650100708008
    endloop
  endfacet
  facet normal 0.0 0.0 1.0
    outer loop
      vertex 3.1089110374450684 -7.898157119750977 62.70650100708008
      vertex 4.124935150146484 -8.94631576538086 62.70650100708008
      vertex 4.183667182922363 -7.716758728027344 62.70650100708008
    endloop
  endfacet
  facet normal 0.0 0.0 1.0
    outer loop
      vertex 4.124935150146484 -8.94631576538086 62.70650100708008
      vertex 5.8544793128967285 -8.240421295166016 62.70650100708008
      vertex 4.183667182922363 -7.716758728027344 62.70650100708008
    endloop
  endfacet
  facet normal 0.0 0.0 1.0
    outer loop
      vertex 4.183667182922363 -7.716758728027344 62.70650100708008
      vertex 5.8544793128967285 -8.240421295166016 62.70650100708008
      vertex 5.369955062866211 -7.378722667694092 62.70650100708008
    endloop
  endfacet
  facet normal 0.0 0.0 1.0
    outer loop
      vertex 5.369955062866211 -7.378722667694092 62.70650100708008
      vertex 5.8544793128967285 -8.240421295166016 62.70650100708008
      vertex 6.477258682250977 -6.872300148010254 62.70650100708008
    endloop
  endfacet
  facet normal 0.0 0.0 1.0
    outer loop
      vertex 5.8544793128967285 -8.240421295166016 62.70650100708008
      vertex 7.306517601013184 -7.3031182289123535 62.70650100708008
      vertex 6.477258682250977 -6.872300148010254 62.70650100708008
    endloop
  endfacet
  facet normal 0.0 0.0 1.0
    outer loop
      vertex 6.477258682250977 -6.872300148010254 62.70650100708008
      vertex 7.306517601013184 -7.3031182289123535 62.70650100708008
      vertex 7.436971187591553 -6.135692119598389 62.70650100708008
    endloop
  endfacet
  facet normal 0.0 0.0 1.0
    outer loop
      vertex 7.306517601013184 -7.3031182289123535 62.70650100708008
      vertex 8.222986221313477 -6.493096351623535 62.70650100708008
      vertex 7.436971187591553 -6.135692119598389 62.70650100708008
    endloop
  endfacet
  facet normal 0.0 0.0 1.0
    outer loop
      vertex 7.436971187591553 -6.135692119598389 62.70650100708008
      vertex 8.222986221313477 -6.493096351623535 62.70650100708008
      vertex 8.193126678466797 -5.457082748413086 62.70650100708008
    endloop
  endfacet
  facet normal 0.0 0.0 1.0
    outer loop
      vertex 8.222986221313477 -6.493096351623535 62.70650100708008
      vertex 9.127965927124023 -5.408159255981445 62.70650100708008
      vertex 8.193126678466797 -5.457082748413086 62.70650100708008
    endloop
  endfacet
  facet normal 0.0 0.0 1.0
    outer loop
      vertex 8.193126678466797 -5.457082748413086 62.70650100708008
      vertex 9.127965927124023 -5.408159255981445 62.70650100708008
      vertex 8.694385528564453 -4.744315147399902 62.70650100708008
    endloop
  endfacet
  facet normal 0.0 0.0 1.0
    outer loop
      vertex 9.127965927124023 -5.408159255981445 62.70650100708008
      vertex 9.698265075683594 -4.375558376312256 62.70650100708008
      vertex 8.694385528564453 -4.744315147399902 62.70650100708008
    endloop
  endfacet
  facet normal 0.0 0.0 1.0
    outer loop
      vertex 8.694385528564453 -4.744315147399902 62.70650100708008
      vertex 9.698265075683594 -4.375558376312256 62.70650100708008
      vertex 9.067033767700195 -4.061732292175293 62.70650100708008
    endloop
  endfacet
  facet normal 0.0 0.0 1.0
    outer loop
      vertex 9.698265075683594 -4.375558376312256 62.70650100708008
      vertex 9.923559188842773 -3.6092660427093506 62.70650100708008
      vertex 9.067033767700195 -4.061732292175293 62.70650100708008
    endloop
  endfacet
  facet normal 0.0 0.0 1.0
    outer loop
      vertex 9.067033767700195 -4.061732292175293 62.70650100708008
      vertex 9.923559188842773 -3.6092660427093506 62.70650100708008
      vertex 9.254249572753906 -3.323802947998047 62.70650100708008
    endloop
  endfacet
  facet normal 0.0 0.0 1.0
    outer loop
      vertex 9.923559188842773 -3.6092660427093506 62.70650100708008
      vertex 10.019140243530273 -2.6902031898498535 62.70650100708008
      vertex 9.254249572753906 -3.323802947998047 62.70650100708008
    endloop
  endfacet
  facet normal 0.0 0.0 1.0
    outer loop
      vertex 9.254249572753906 -3.323802947998047 62.70650100708008
      vertex 10.019140243530273 -2.6902031898498535 62.70650100708008
      vertex 9.251091957092285 -2.7537589073181152 62.70650100708008
    endloop
  endfacet
  facet normal 0.0 0.0 1.0
    outer loop
      vertex 9.251091957092285 -2.7537589073181152 62.70650100708008
      vertex 10.019140243530273 -2.6902031898498535 62.70650100708008
      vertex 9.234542846679688 -2.254892110824585 62.70650100708008
    endloop
  endfacet
  facet normal 0.0 0.0 1.0
    outer loop
      vertex 10.019140243530273 -2.6902031898498535 62.70650100708008
      vertex 9.722305297851562 -1.855994701385498 62.70650100708008
      vertex 9.234542846679688 -2.254892110824585 62.70650100708008
    endloop
  endfacet
  facet normal 0.0 0.0 1.0
    outer loop
      vertex 9.234542846679688 -2.254892110824585 62.70650100708008
      vertex 9.722305297851562 -1.855994701385498 62.70650100708008
      vertex 9.143610000610352 -1.9082077741622925 62.70650100708008
    endloop
  endfacet
  facet normal 0.0 0.0 1.0
    outer loop
      vertex 9.722305297851562 -1.855994701385498 62.70650100708008
      vertex 9.294389724731445 -1.2454707622528076 62.70650100708008
      vertex 9.143610000610352 -1.9082077741622925 62.70650100708008
    endloop
  endfacet
  facet normal 0.0 0.0 1.0
    outer loop
      vertex 9.143610000610352 -1.9082077741622925 62.70650100708008
      vertex 9.294389724731445 -1.2454707622528076 62.70650100708008
      vertex 8.931146621704102 -1.5362584590911865 62.70650100708008
    endloop
  endfacet
  facet normal 0.0 0.0 1.0
    outer loop
      vertex 8.931146621704102 -1.5362584590911865 62.70650100708008
      vertex 9.294389724731445 -1.2454707622528076 62.70650100708008
      vertex 8.637977600097656 -1.169081449508667 62.70650100708008
    endloop
  endfacet
  facet normal 0.0 0.0 1.0
    outer loop
      vertex 9.294389724731445 -1.2454707622528076 62.70650100708008
      vertex 8.593050003051758 -0.6230071783065796 62.70650100708008
      vertex 8.637977600097656 -1.169081449508667 62.70650100708008
    endloop
  endfacet
  facet normal 0.0 0.0 1.0
    outer loop
      vertex 8.637977600097656 -1.169081449508667 62.70650100708008
      vertex 8.593050003051758 -0.6230071783065796 62.70650100708008
      vertex 8.261322021484375 -0.8924888372421265 62.70650100708008
    endloop
  endfacet
  facet normal 0.0 0.0 1.0
    outer loop
      vertex 8.261322021484375 -0.8924888372421265 62.70650100708008
      vertex 8.593050003051758 -0.6230071783065796 62.70650100708008
      vertex 7.732574939727783 -0.5966147184371948 62.70650100708008
    endloop
  endfacet
  facet normal 0.0 0.0 1.0
    outer loop
      vertex 8.593050003051758 -0.6230071783065796 62.70650100708008
      vertex 7.658980846405029 -0.06914734840393066 62.70650100708008
      vertex 7.732574939727783 -0.5966147184371948 62.70650100708008
    endloop
  endfacet
  facet normal 0.0 0.0 1.0
    outer loop
      vertex 7.732574939727783 -0.5966147184371948 62.70650100708008
      vertex 7.658980846405029 -0.06914734840393066 62.70650100708008
      vertex 6.991950035095215 -0.269824743270874 62.70650100708008
    endloop
  endfacet
  facet normal 0.0 0.0 1.0
    outer loop
      vertex 7.658980846405029 -0.06914734840393066 62.70650100708008
      vertex 6.557694911956787 0.38237738609313965 62.70650100708008
      vertex 6.991950035095215 -0.269824743270874 62.70650100708008
    endloop
  endfacet
  facet normal 0.0 0.0 1.0
    outer loop
      vertex 6.991950035095215 -0.269824743270874 62.70650100708008
      vertex 6.557694911956787 0.38237738609313965 62.70650100708008
      vertex 6.105690002441406 0.05169820785522461 62.70650100708008
    endloop
  endfacet
  facet normal 0.0 0.0 1.0
    outer loop
      vertex 6.557694911956787 0.38237738609313965 62.70650100708008
      vertex 5.824388027191162 0.579906702041626 62.70650100708008
      vertex 6.105690002441406 0.05169820785522461 62.70650100708008
    endloop
  endfacet
  facet normal 0.0 0.0 1.0
    outer loop
      vertex 6.105690002441406 0.05169820785522461 62.70650100708008
      vertex 5.824388027191162 0.579906702041626 62.70650100708008
      vertex 5.384183883666992 0.2563135623931885 62.70650100708008
    endloop
  endfacet
  facet normal 0.0 0.0 1.0
    outer loop
      vertex 5.824388027191162 0.579906702041626 62.70650100708008
      vertex 5.091080665588379 0.7774362564086914 62.70650100708008
      vertex 5.384183883666992 0.2563135623931885 62.70650100708008
    endloop
  endfacet
  facet normal 0.0 0.0 1.0
    outer loop
      vertex 5.384183883666992 0.2563135623931885 62.70650100708008
      vertex 5.091080665588379 0.7774362564086914 62.70650100708008
      vertex 4.742983818054199 0.42338037490844727 62.70650100708008
    endloop
  endfacet
  facet normal 0.0 0.0 1.0
    outer loop
      vertex 5.091080665588379 0.7774362564086914 62.70650100708008
      vertex 4.357852935791016 0.8902676105499268 62.70650100708008
      vertex 4.742983818054199 0.42338037490844727 62.70650100708008
    endloop
  endfacet
  facet normal 0.0 0.0 1.0
    outer loop
      vertex 4.742983818054199 0.42338037490844727 62.70650100708008
      vertex 4.357852935791016 0.8902676105499268 62.70650100708008
      vertex 3.7237932682037354 0.5623972415924072 62.70650100708008
    endloop
  endfacet
  facet normal 0.0 0.0 1.0
    outer loop
      vertex 4.357852935791016 0.8902676105499268 62.70650100708008
      vertex 3.6246252059936523 1.003098726272583 62.70650100708008
      vertex 3.7237932682037354 0.5623972415924072 62.70650100708008
    endloop
  endfacet
  facet normal 0.0 0.0 1.0
    outer loop
      vertex 3.7237932682037354 0.5623972415924072 62.70650100708008
      vertex 3.6246252059936523 1.003098726272583 62.70650100708008
      vertex 2.7046029567718506 0.5884006023406982 62.70650100708008
    endloop
  endfacet
  facet normal 0.0 0.0 1.0
    outer loop
      vertex 3.6246252059936523 1.003098726272583 62.70650100708008
      vertex 2.812310218811035 1.0450880527496338 62.70650100708008
      vertex 2.7046029567718506 0.5884006023406982 62.70650100708008
    endloop
  endfacet
  facet normal 0.0 0.0 1.0
    outer loop
      vertex 2.812310218811035 1.0450880527496338 62.70650100708008
      vertex 1.9999955892562866 1.0870773792266846 62.70650100708008
      vertex 2.7046029567718506 0.5884006023406982 62.70650100708008
    endloop
  endfacet
  facet normal 0.0 0.0 1.0
    outer loop
      vertex 2.7046029567718506 0.5884006023406982 62.70650100708008
      vertex 1.9999955892562866 1.0870773792266846 62.70650100708008
      vertex 2.0 0.5785796642303467 62.70650100708008
    endloop
  endfacet
  facet normal 0.0 0.0 1.0
    outer loop
      vertex 1.9999995231628418 -7.94955587387085 62.70650100708008
      vertex 0.8910888433456421 -7.898157119750977 62.70650100708008
      vertex 1.9999949932098389 -9.262125968933105 62.70650100708008
    endloop
  endfacet
  facet normal 0.0 0.0 1.0
    outer loop
      vertex 1.9999949932098389 -9.262125968933105 62.70650100708008
      vertex 0.8910888433456421 -7.898157119750977 62.70650100708008
      vertex -0.12493538856506348 -8.94631576538086 62.70650100708008
    endloop
  endfacet
  facet normal 0.0 0.0 1.0
    outer loop
      vertex 0.8910888433456421 -7.898157119750977 62.70650100708008
      vertex -0.18366694450378418 -7.716758728027344 62.70650100708008
      vertex -0.12493538856506348 -8.94631576538086 62.70650100708008
    endloop
  endfacet
  facet normal 0.0 0.0 1.0
    outer loop
      vertex -0.12493538856506348 -8.94631576538086 62.70650100708008
      vertex -0.18366694450378418 -7.716758728027344 62.70650100708008
      vertex -1.8544793128967285 -8.240421295166016 62.70650100708008
    endloop
  endfacet
  facet normal 0.0 0.0 1.0
    outer loop
      vertex -0.18366694450378418 -7.716758728027344 62.70650100708008
      vertex -1.36995530128479 -7.378722667694092 62.70650100708008
      vertex -1.8544793128967285 -8.240421295166016 62.70650100708008
    endloop
  endfacet
  facet normal 0.0 0.0 1.0
    outer loop
      vertex -1.36995530128479 -7.378722667694092 62.70650100708008
      vertex -2.4772586822509766 -6.872300148010254 62.70650100708008
      vertex -1.8544793128967285 -8.240421295166016 62.70650100708008
    endloop
  endfacet
  facet normal 0.0 0.0 1.0
    outer loop
      vertex -1.8544793128967285 -8.240421295166016 62.70650100708008
      vertex -2.4772586822509766 -6.872300148010254 62.70650100708008
      vertex -3.3065176010131836 -7.3031182289123535 62.70650100708008
    endloop
  endfacet
  facet normal 0.0 0.0 1.0
    outer loop
      vertex -2.4772586822509766 -6.872300148010254 62.70650100708008
      vertex -3.4369711875915527 -6.135692119598389 62.70650100708008
      vertex -3.3065176010131836 -7.3031182289123535 62.70650100708008
    endloop
  endfacet
  facet normal 0.0 0.0 1.0
    outer loop
      vertex -3.3065176010131836 -7.3031182289123535 62.70650100708008
      vertex -3.4369711875915527 -6.135692119598389 62.70650100708008
      vertex -4.222986698150635 -6.493096351623535 62.70650100708008
    endloop
  endfacet
  facet normal 0.0 0.0 1.0
    outer loop
      vertex -3.4369711875915527 -6.135692119598389 62.70650100708008
      vertex -4.193126201629639 -5.457082748413086 62.70650100708008
      vertex -4.222986698150635 -6.493096351623535 62.70650100708008
    endloop
  endfacet
  facet normal 0.0 0.0 1.0
    outer loop
      vertex -4.222986698150635 -6.493096351623535 62.70650100708008
      vertex -4.193126201629639 -5.457082748413086 62.70650100708008
      vertex -5.127965927124023 -5.408159255981445 62.70650100708008
    endloop
  endfacet
  facet normal 0.0 0.0 1.0
    outer loop
      vertex -4.193126201629639 -5.457082748413086 62.70650100708008
      vertex -4.694385051727295 -4.744315147399902 62.70650100708008
      vertex -5.127965927124023 -5.408159255981445 62.70650100708008
    endloop
  endfacet
  facet normal 0.0 0.0 1.0
    outer loop
      vertex -5.127965927124023 -5.408159255981445 62.70650100708008
      vertex -4.694385051727295 -4.744315147399902 62.70650100708008
      vertex -5.6982645988464355 -4.375558376312256 62.70650100708008
    endloop
  endfacet
  facet normal 0.0 0.0 1.0
    outer loop
      vertex -4.694385051727295 -4.744315147399902 62.70650100708008
      vertex -5.067033290863037 -4.061732292175293 62.70650100708008
      vertex -5.6982645988464355 -4.375558376312256 62.70650100708008
    endloop
  endfacet
  facet normal 0.0 0.0 1.0
    outer loop
      vertex -5.6982645988464355 -4.375558376312256 62.70650100708008
      vertex -5.067033290863037 -4.061732292175293 62.70650100708008
      vertex -5.923559188842773 -3.6092660427093506 62.70650100708008
    endloop
  endfacet
  facet normal 0.0 0.0 1.0
    outer loop
      vertex -5.067033290863037 -4.061732292175293 62.70650100708008
      vertex -5.2542500495910645 -3.323802947998047 62.70650100708008
      vertex -5.923559188842773 -3.6092660427093506 62.70650100708008
    endloop
  endfacet
  facet normal 0.0 0.0 1.0
    outer loop
      vertex -5.923559188842773 -3.6092660427093506 62.70650100708008
      vertex -5.2542500495910645 -3.323802947998047 62.70650100708008
      vertex -6.019140243530273 -2.6902031898498535 62.70650100708008
    endloop
  endfacet
  facet normal 0.0 0.0 1.0
    outer loop
      vertex -5.2542500495910645 -3.323802947998047 62.70650100708008
      vertex -5.251091957092285 -2.7537589073181152 62.70650100708008
      vertex -6.019140243530273 -2.6902031898498535 62.70650100708008
    endloop
  endfacet
  facet normal 0.0 0.0 1.0
    outer loop
      vertex -5.251091957092285 -2.7537589073181152 62.70650100708008
      vertex -5.2345428466796875 -2.254892110824585 62.70650100708008
      vertex -6.019140243530273 -2.6902031898498535 62.70650100708008
    endloop
  endfacet
  facet normal 0.0 0.0 1.0
    outer loop
      vertex -6.019140243530273 -2.6902031898498535 62.70650100708008
      vertex -5.2345428466796875 -2.254892110824585 62.70650100708008
      vertex -5.7223052978515625 -1.855994701385498 62.70650100708008
    endloop
  endfacet
  facet normal 0.0 0.0 1.0
    outer loop
      vertex -5.2345428466796875 -2.254892110824585 62.70650100708008
      vertex -5.143609523773193 -1.9082077741622925 62.70650100708008
      vertex -5.7223052978515625 -1.855994701385498 62.70650100708008
    endloop
  endfacet
  facet normal 0.0 0.0 1.0
    outer loop
      vertex -5.7223052978515625 -1.855994701385498 62.70650100708008
      vertex -5.143609523773193 -1.9082077741622925 62.70650100708008
      vertex -5.2943902015686035 -1.2454707622528076 62.70650100708008
    endloop
  endfacet
  facet normal 0.0 0.0 1.0
    outer loop
      vertex -5.143609523773193 -1.9082077741622925 62.70650100708008
      vertex -4.93114709854126 -1.5362584590911865 62.70650100708008
      vertex -5.2943902015686035 -1.2454707622528076 62.70650100708008
    endloop
  endfacet
  facet normal 0.0 0.0 1.0
    outer loop
      vertex -4.93114709854126 -1.5362584590911865 62.70650100708008
      vertex -4.637977123260498 -1.169081449508667 62.70650100708008
      vertex -5.2943902015686035 -1.2454707622528076 62.70650100708008
    endloop
  endfacet
  facet normal 0.0 0.0 1.0
    outer loop
      vertex -5.2943902015686035 -1.2454707622528076 62.70650100708008
      vertex -4.637977123260498 -1.169081449508667 62.70650100708008
      vertex -4.593050479888916 -0.6230071783065796 62.70650100708008
    endloop
  endfacet
  facet normal 0.0 0.0 1.0
    outer loop
      vertex -4.637977123260498 -1.169081449508667 62.70650100708008
      vertex -4.261322498321533 -0.8924888372421265 62.70650100708008
      vertex -4.593050479888916 -0.6230071783065796 62.70650100708008
    endloop
  endfacet
  facet normal 0.0 0.0 1.0
    outer loop
      vertex -4.261322498321533 -0.8924888372421265 62.70650100708008
      vertex -3.732574939727783 -0.5966147184371948 62.70650100708008
      vertex -4.593050479888916 -0.6230071783065796 62.70650100708008
    endloop
  endfacet
  facet normal 0.0 0.0 1.0
    outer loop
      vertex -4.593050479888916 -0.6230071783065796 62.70650100708008
      vertex -3.732574939727783 -0.5966147184371948 62.70650100708008
      vertex -3.6589808464050293 -0.06914734840393066 62.70650100708008
    endloop
  endfacet
  facet normal 0.0 0.0 1.0
    outer loop
      vertex -3.732574939727783 -0.5966147184371948 62.70650100708008
      vertex -2.991950035095215 -0.269824743270874 62.70650100708008
      vertex -3.6589808464050293 -0.06914734840393066 62.70650100708008
    endloop
  endfacet
  facet normal 0.0 0.0 1.0
    outer loop
      vertex -3.6589808464050293 -0.06914734840393066 62.70650100708008
      vertex -2.991950035095215 -0.269824743270874 62.70650100708008
      vertex -2.557694911956787 0.38237738609313965 62.70650100708008
    endloop
  endfacet
  facet normal 0.0 0.0 1.0
    outer loop
      vertex -2.991950035095215 -0.269824743270874 62.70650100708008
      vertex -2.1056900024414062 0.05169820785522461 62.70650100708008
      vertex -2.557694911956787 0.38237738609313965 62.70650100708008
    endloop
  endfacet
  facet normal 0.0 0.0 1.0
    outer loop
      vertex -2.557694911956787 0.38237738609313965 62.70650100708008
      vertex -2.1056900024414062 0.05169820785522461 62.70650100708008
      vertex -1.824388027191162 0.579906702041626 62.70650100708008
    endloop
  endfacet
  facet normal 0.0 0.0 1.0
    outer loop
      vertex -2.1056900024414062 0.05169820785522461 62.70650100708008
      vertex -1.3841841220855713 0.2563135623931885 62.70650100708008
      vertex -1.824388027191162 0.579906702041626 62.70650100708008
    endloop
  endfacet
  facet normal 0.0 0.0 1.0
    outer loop
      vertex -1.824388027191162 0.579906702041626 62.70650100708008
      vertex -1.3841841220855713 0.2563135623931885 62.70650100708008
      vertex -1.091080665588379 0.7774362564086914 62.70650100708008
    endloop
  endfacet
  facet normal 0.0 0.0 1.0
    outer loop
      vertex -1.3841841220855713 0.2563135623931885 62.70650100708008
      vertex -0.7429838180541992 0.42338037490844727 62.70650100708008
      vertex -1.091080665588379 0.7774362564086914 62.70650100708008
    endloop
  endfacet
  facet normal 0.0 0.0 1.0
    outer loop
      vertex -1.091080665588379 0.7774362564086914 62.70650100708008
      vertex -0.7429838180541992 0.42338037490844727 62.70650100708008
      vertex -0.3578529357910156 0.8902676105499268 62.70650100708008
    endloop
  endfacet
  facet normal 0.0 0.0 1.0
    outer loop
      vertex -0.7429838180541992 0.42338037490844727 62.70650100708008
      vertex 0.27620673179626465 0.5623972415924072 62.70650100708008
      vertex -0.3578529357910156 0.8902676105499268 62.70650100708008
    endloop
  endfacet
  facet normal 0.0 0.0 1.0
    outer loop
      vertex -0.3578529357910156 0.8902676105499268 62.70650100708008
      vertex 0.27620673179626465 0.5623972415924072 62.70650100708008
      vertex 0.3753749132156372 1.003098726272583 62.70650100708008
    endloop
  endfacet
  facet normal 0.0 0.0 1.0
    outer loop
      vertex 0.27620673179626465 0.5623972415924072 62.70650100708008
      vertex 1.2953970432281494 0.5884006023406982 62.70650100708008
      vertex 0.3753749132156372 1.003098726272583 62.70650100708008
    endloop
  endfacet
  facet normal 0.0 0.0 1.0
    outer loop
      vertex 0.3753749132156372 1.003098726272583 62.70650100708008
      vertex 1.2953970432281494 0.5884006023406982 62.70650100708008
      vertex 1.1876896619796753 1.0450880527496338 62.70650100708008
    endloop
  endfacet
  facet normal 0.0 0.0 1.0
    outer loop
      vertex 1.1876896619796753 1.0450880527496338 62.70650100708008
      vertex 1.2953970432281494 0.5884006023406982 62.70650100708008
      vertex 1.9999955892562866 1.0870773792266846 62.70650100708008
    endloop
  endfacet
  facet normal 0.0 0.0 1.0
    outer loop
      vertex 1.2953970432281494 0.5884006023406982 62.70650100708008
      vertex 2.0 0.5785796642303467 62.70650100708008
      vertex 1.9999955892562866 1.0870773792266846 62.70650100708008
    endloop
  endfacet
  facet normal 0.0 0.0 -1.0
    outer loop
      vertex 1.9999995231628418 -7.94955587387085 62.0
      vertex 3.1089110374450684 -7.898157119750977 62.0
      vertex 1.9999949932098389 -9.262125968933105 62.0
    endloop
  endfacet
  facet normal 0.0 0.0 -1.0
    outer loop
      vertex 1.9999949932098389 -9.262125968933105 62.0
      vertex 3.1089110374450684 -7.898157119750977 62.0
      vertex 4.124935150146484 -8.94631576538086 62.0
    endloop
  endfacet
  facet normal 0.0 0.0 -1.0
    outer loop
      vertex 3.1089110374450684 -7.898157119750977 62.0
      vertex 4.183667182922363 -7.716758728027344 62.0
      vertex 4.124935150146484 -8.94631576538086 62.0
    endloop
  endfacet
  facet normal 0.0 0.0 -1.0
    outer loop
      vertex 4.124935150146484 -8.94631576538086 62.0
      vertex 4.183667182922363 -7.716758728027344 62.0
      vertex 5.8544793128967285 -8.240421295166016 62.0
    endloop
  endfacet
  facet normal 0.0 0.0 -1.0
    outer loop
      vertex 4.183667182922363 -7.716758728027344 62.0
      vertex 5.369955062866211 -7.378722667694092 62.0
      vertex 5.8544793128967285 -8.240421295166016 62.0
    endloop
  endfacet
  facet normal 0.0 0.0 -1.0
    outer loop
      vertex 5.369955062866211 -7.378722667694092 62.0
      vertex 6.477258682250977 -6.872300148010254 62.0
      vertex 5.8544793128967285 -8.240421295166016 62.0
    endloop
  endfacet
  facet normal 0.0 0.0 -1.0
    outer loop
      vertex 5.8544793128967285 -8.240421295166016 62.0
      vertex 6.477258682250977 -6.872300148010254 62.0
      vertex 7.306517601013184 -7.3031182289123535 62.0
    endloop
  endfacet
  facet normal 0.0 0.0 -1.0
    outer loop
      vertex 6.477258682250977 -6.872300148010254 62.0
      vertex 7.436971187591553 -6.135692119598389 62.0
      vertex 7.306517601013184 -7.3031182289123535 62.0
    endloop
  endfacet
  facet normal 0.0 0.0 -1.0
    outer loop
      vertex 7.306517601013184 -7.3031182289123535 62.0
      vertex 7.436971187591553 -6.135692119598389 62.0
      vertex 8.222986221313477 -6.493096351623535 62.0
    endloop
  endfacet
  facet normal 0.0 0.0 -1.0
    outer loop
      vertex 7.436971187591553 -6.135692119598389 62.0
      vertex 8.193126678466797 -5.457082748413086 62.0
      vertex 8.222986221313477 -6.493096351623535 62.0
    endloop
  endfacet
  facet normal 0.0 0.0 -1.0
    outer loop
      vertex 8.222986221313477 -6.493096351623535 62.0
      vertex 8.193126678466797 -5.457082748413086 62.0
      vertex 9.127965927124023 -5.408159255981445 62.0
    endloop
  endfacet
  facet normal 0.0 0.0 -1.0
    outer loop
      vertex 8.193126678466797 -5.457082748413086 62.0
      vertex 8.694385528564453 -4.744315147399902 62.0
      vertex 9.127965927124023 -5.408159255981445 62.0
    endloop
  endfacet
  facet normal 0.0 0.0 -1.0
    outer loop
      vertex 9.127965927124023 -5.408159255981445 62.0
      vertex 8.694385528564453 -4.744315147399902 62.0
      vertex 9.698265075683594 -4.375558376312256 62.0
    endloop
  endfacet
  facet normal 0.0 0.0 -1.0
    outer loop
      vertex 8.694385528564453 -4.744315147399902 62.0
      vertex 9.067033767700195 -4.061732292175293 62.0
      vertex 9.698265075683594 -4.375558376312256 62.0
    endloop
  endfacet
  facet normal 0.0 0.0 -1.0
    outer loop
      vertex 9.698265075683594 -4.375558376312256 62.0
      vertex 9.067033767700195 -4.061732292175293 62.0
      vertex 9.923559188842773 -3.6092660427093506 62.0
    endloop
  endfacet
  facet normal 0.0 0.0 -1.0
    outer loop
      vertex 9.067033767700195 -4.061732292175293 62.0
      vertex 9.254249572753906 -3.323802947998047 62.0
      vertex 9.923559188842773 -3.6092660427093506 62.0
    endloop
  endfacet
  facet normal 0.0 0.0 -1.0
    outer loop
      vertex 9.923559188842773 -3.6092660427093506 62.0
      vertex 9.254249572753906 -3.323802947998047 62.0
      vertex 10.019140243530273 -2.6902031898498535 62.0
    endloop
  endfacet
  facet normal 0.0 0.0 -1.0
    outer loop
      vertex 9.254249572753906 -3.323802947998047 62.0
      vertex 9.251091957092285 -2.7537589073181152 62.0
      vertex 10.019140243530273 -2.6902031898498535 62.0
    endloop
  endfacet
  facet normal 0.0 0.0 -1.0
    outer loop
      vertex 9.251091957092285 -2.7537589073181152 62.0
      vertex 9.234542846679688 -2.254892110824585 62.0
      vertex 10.019140243530273 -2.6902031898498535 62.0
    endloop
  endfacet
  facet normal 0.0 0.0 -1.0
    outer loop
      vertex 10.019140243530273 -2.6902031898498535 62.0
      vertex 9.234542846679688 -2.254892110824585 62.0
      vertex 9.722305297851562 -1.855994701385498 62.0
    endloop
  endfacet
  facet normal 0.0 0.0 -1.0
    outer loop
      vertex 9.234542846679688 -2.254892110824585 62.0
      vertex 9.143610000610352 -1.9082077741622925 62.0
      vertex 9.722305297851562 -1.855994701385498 62.0
    endloop
  endfacet
  facet normal 0.0 0.0 -1.0
    outer loop
      vertex 9.722305297851562 -1.855994701385498 62.0
      vertex 9.143610000610352 -1.9082077741622925 62.0
      vertex 9.294389724731445 -1.2454707622528076 62.0
    endloop
  endfacet
  facet normal 0.0 0.0 -1.0
    outer loop
      vertex 9.143610000610352 -1.9082077741622925 62.0
      vertex 8.931146621704102 -1.5362584590911865 62.0
      vertex 9.294389724731445 -1.2454707622528076 62.0
    endloop
  endfacet
  facet normal 0.0 0.0 -1.0
    outer loop
      vertex 8.931146621704102 -1.5362584590911865 62.0
      vertex 8.637977600097656 -1.169081449508667 62.0
      vertex 9.294389724731445 -1.2454707622528076 62.0
    endloop
  endfacet
  facet normal 0.0 0.0 -1.0
    outer loop
      vertex 9.294389724731445 -1.2454707622528076 62.0
      vertex 8.637977600097656 -1.169081449508667 62.0
      vertex 8.593050003051758 -0.6230071783065796 62.0
    endloop
  endfacet
  facet normal 0.0 0.0 -1.0
    outer loop
      vertex 8.637977600097656 -1.169081449508667 62.0
      vertex 8.261322021484375 -0.8924888372421265 62.0
      vertex 8.593050003051758 -0.6230071783065796 62.0
    endloop
  endfacet
  facet normal 0.0 0.0 -1.0
    outer loop
      vertex 8.261322021484375 -0.8924888372421265 62.0
      vertex 7.732574939727783 -0.5966147184371948 62.0
      vertex 8.593050003051758 -0.6230071783065796 62.0
    endloop
  endfacet
  facet normal 0.0 0.0 -1.0
    outer loop
      vertex 8.593050003051758 -0.6230071783065796 62.0
      vertex 7.732574939727783 -0.5966147184371948 62.0
      vertex 7.658980846405029 -0.06914734840393066 62.0
    endloop
  endfacet
  facet normal 0.0 0.0 -1.0
    outer loop
      vertex 7.732574939727783 -0.5966147184371948 62.0
      vertex 6.991950035095215 -0.269824743270874 62.0
      vertex 7.658980846405029 -0.06914734840393066 62.0
    endloop
  endfacet
  facet normal 0.0 0.0 -1.0
    outer loop
      vertex 7.658980846405029 -0.06914734840393066 62.0
      vertex 6.991950035095215 -0.269824743270874 62.0
      vertex 6.557694911956787 0.38237738609313965 62.0
    endloop
  endfacet
  facet normal 0.0 0.0 -1.0
    outer loop
      vertex 6.991950035095215 -0.269824743270874 62.0
      vertex 6.105690002441406 0.05169820785522461 62.0
      vertex 6.557694911956787 0.38237738609313965 62.0
    endloop
  endfacet
  facet normal 0.0 0.0 -1.0
    outer loop
      vertex 6.557694911956787 0.38237738609313965 62.0
      vertex 6.105690002441406 0.05169820785522461 62.0
      vertex 5.824388027191162 0.579906702041626 62.0
    endloop
  endfacet
  facet normal 0.0 0.0 -1.0
    outer loop
      vertex 6.105690002441406 0.05169820785522461 62.0
      vertex 5.384183883666992 0.2563135623931885 62.0
      vertex 5.824388027191162 0.579906702041626 62.0
    endloop
  endfacet
  facet normal 0.0 0.0 -1.0
    outer loop
      vertex 5.824388027191162 0.579906702041626 62.0
      vertex 5.384183883666992 0.2563135623931885 62.0
      vertex 5.091080665588379 0.7774362564086914 62.0
    endloop
  endfacet
  facet normal 0.0 0.0 -1.0
    outer loop
      vertex 5.384183883666992 0.2563135623931885 62.0
      vertex 4.742983818054199 0.42338037490844727 62.0
      vertex 5.091080665588379 0.7774362564086914 62.0
    endloop
  endfacet
  facet normal 0.0 0.0 -1.0
    outer loop
      vertex 5.091080665588379 0.7774362564086914 62.0
      vertex 4.742983818054199 0.42338037490844727 62.0
      vertex 4.357852935791016 0.8902676105499268 62.0
    endloop
  endfacet
  facet normal 0.0 0.0 -1.0
    outer loop
      vertex 4.742983818054199 0.42338037490844727 62.0
      vertex 3.7237932682037354 0.5623972415924072 62.0
      vertex 4.357852935791016 0.8902676105499268 62.0
    endloop
  endfacet
  facet normal 0.0 0.0 -1.0
    outer loop
      vertex 4.357852935791016 0.8902676105499268 62.0
      vertex 3.7237932682037354 0.5623972415924072 62.0
      vertex 3.6246252059936523 1.003098726272583 62.0
    endloop
  endfacet
  facet normal 0.0 0.0 -1.0
    outer loop
      vertex 3.7237932682037354 0.5623972415924072 62.0
      vertex 2.7046029567718506 0.5884006023406982 62.0
      vertex 3.6246252059936523 1.003098726272583 62.0
    endloop
  endfacet
  facet normal 0.0 0.0 -1.0
    outer loop
      vertex 3.6246252059936523 1.003098726272583 62.0
      vertex 2.7046029567718506 0.5884006023406982 62.0
      vertex 2.812310218811035 1.0450880527496338 62.0
    endloop
  endfacet
  facet normal 0.0 0.0 -1.0
    outer loop
      vertex 2.812310218811035 1.0450880527496338 62.0
      vertex 2.7046029567718506 0.5884006023406982 62.0
      vertex 1.9999955892562866 1.0870773792266846 62.0
    endloop
  endfacet
  facet normal 0.0 0.0 -1.0
    outer loop
      vertex 2.7046029567718506 0.5884006023406982 62.0
      vertex 2.0 0.5785796642303467 62.0
      vertex 1.9999955892562866 1.0870773792266846 62.0
    endloop
  endfacet
  facet normal 0.0 0.0 -1.0
    outer loop
      vertex 1.9999995231628418 -7.94955587387085 62.0
      vertex 1.9999949932098389 -9.262125968933105 62.0
      vertex 0.8910888433456421 -7.898157119750977 62.0
    endloop
  endfacet
  facet normal 0.0 0.0 -1.0
    outer loop
      vertex 1.9999949932098389 -9.262125968933105 62.0
      vertex -0.12493538856506348 -8.94631576538086 62.0
      vertex 0.8910888433456421 -7.898157119750977 62.0
    endloop
  endfacet
  facet normal 0.0 0.0 -1.0
    outer loop
      vertex 0.8910888433456421 -7.898157119750977 62.0
      vertex -0.12493538856506348 -8.94631576538086 62.0
      vertex -0.18366694450378418 -7.716758728027344 62.0
    endloop
  endfacet
  facet normal 0.0 0.0 -1.0
    outer loop
      vertex -0.12493538856506348 -8.94631576538086 62.0
      vertex -1.8544793128967285 -8.240421295166016 62.0
      vertex -0.18366694450378418 -7.716758728027344 62.0
    endloop
  endfacet
  facet normal 0.0 0.0 -1.0
    outer loop
      vertex -0.18366694450378418 -7.716758728027344 62.0
      vertex -1.8544793128967285 -8.240421295166016 62.0
      vertex -1.36995530128479 -7.378722667694092 62.0
    endloop
  endfacet
  facet normal 0.0 0.0 -1.0
    outer loop
      vertex -1.36995530128479 -7.378722667694092 62.0
      vertex -1.8544793128967285 -8.240421295166016 62.0
      vertex -2.4772586822509766 -6.872300148010254 62.0
    endloop
  endfacet
  facet normal 0.0 0.0 -1.0
    outer loop
      vertex -1.8544793128967285 -8.240421295166016 62.0
      vertex -3.3065176010131836 -7.3031182289123535 62.0
      vertex -2.4772586822509766 -6.872300148010254 62.0
    endloop
  endfacet
  facet normal 0.0 0.0 -1.0
    outer loop
      vertex -2.4772586822509766 -6.872300148010254 62.0
      vertex -3.3065176010131836 -7.3031182289123535 62.0
      vertex -3.4369711875915527 -6.135692119598389 62.0
    endloop
  endfacet
  facet normal 0.0 0.0 -1.0
    outer loop
      vertex -3.3065176010131836 -7.3031182289123535 62.0
      vertex -4.222986698150635 -6.493096351623535 62.0
      vertex -3.4369711875915527 -6.135692119598389 62.0
    endloop
  endfacet
  facet normal 0.0 0.0 -1.0
    outer loop
      vertex -3.4369711875915527 -6.135692119598389 62.0
      vertex -4.222986698150635 -6.493096351623535 62.0
      vertex -4.193126201629639 -5.457082748413086 62.0
    endloop
  endfacet
  facet normal 0.0 0.0 -1.0
    outer loop
      vertex -4.222986698150635 -6.493096351623535 62.0
      vertex -5.127965927124023 -5.408159255981445 62.0
      vertex -4.193126201629639 -5.457082748413086 62.0
    endloop
  endfacet
  facet normal 0.0 0.0 -1.0
    outer loop
      vertex -4.193126201629639 -5.457082748413086 62.0
      vertex -5.127965927124023 -5.408159255981445 62.0
      vertex -4.694385051727295 -4.744315147399902 62.0
    endloop
  endfacet
  facet normal 0.0 0.0 -1.0
    outer loop
      vertex -5.127965927124023 -5.408159255981445 62.0
      vertex -5.6982645988464355 -4.375558376312256 62.0
      vertex -4.694385051727295 -4.744315147399902 62.0
    endloop
  endfacet
  facet normal 0.0 0.0 -1.0
    outer loop
      vertex -4.694385051727295 -4.744315147399902 62.0
      vertex -5.6982645988464355 -4.375558376312256 62.0
      vertex -5.067033290863037 -4.061732292175293 62.0
    endloop
  endfacet
  facet normal 0.0 0.0 -1.0
    outer loop
      vertex -5.6982645988464355 -4.375558376312256 62.0
      vertex -5.923559188842773 -3.6092660427093506 62.0
      vertex -5.067033290863037 -4.061732292175293 62.0
    endloop
  endfacet
  facet normal 0.0 0.0 -1.0
    outer loop
      vertex -5.067033290863037 -4.061732292175293 62.0
      vertex -5.923559188842773 -3.6092660427093506 62.0
      vertex -5.2542500495910645 -3.323802947998047 62.0
    endloop
  endfacet
  facet normal 0.0 0.0 -1.0
    outer loop
      vertex -5.923559188842773 -3.6092660427093506 62.0
      vertex -6.019140243530273 -2.6902031898498535 62.0
      vertex -5.2542500495910645 -3.323802947998047 62.0
    endloop
  endfacet
  facet normal 0.0 0.0 -1.0
    outer loop
      vertex -5.2542500495910645 -3.323802947998047 62.0
      vertex -6.019140243530273 -2.6902031898498535 62.0
      vertex -5.251091957092285 -2.7537589073181152 62.0
    endloop
  endfacet
  facet normal 0.0 0.0 -1.0
    outer loop
      vertex -5.251091957092285 -2.7537589073181152 62.0
      vertex -6.019140243530273 -2.6902031898498535 62.0
      vertex -5.2345428466796875 -2.254892110824585 62.0
    endloop
  endfacet
  facet normal 0.0 0.0 -1.0
    outer loop
      vertex -6.019140243530273 -2.6902031898498535 62.0
      vertex -5.7223052978515625 -1.855994701385498 62.0
      vertex -5.2345428466796875 -2.254892110824585 62.0
    endloop
  endfacet
  facet normal 0.0 0.0 -1.0
    outer loop
      vertex -5.2345428466796875 -2.254892110824585 62.0
      vertex -5.7223052978515625 -1.855994701385498 62.0
      vertex -5.143609523773193 -1.9082077741622925 62.0
    endloop
  endfacet
  facet normal 0.0 0.0 -1.0
    outer loop
      vertex -5.7223052978515625 -1.855994701385498 62.0
      vertex -5.2943902015686035 -1.2454707622528076 62.0
      vertex -5.143609523773193 -1.9082077741622925 62.0
    endloop
  endfacet
  facet normal 0.0 0.0 -1.0
    outer loop
      vertex -5.143609523773193 -1.9082077741622925 62.0
      vertex -5.2943902015686035 -1.2454707622528076 62.0
      vertex -4.93114709854126 -1.5362584590911865 62.0
    endloop
  endfacet
  facet normal 0.0 0.0 -1.0
    outer loop
      vertex -4.93114709854126 -1.5362584590911865 62.0
      vertex -5.2943902015686035 -1.2454707622528076 62.0
      vertex -4.637977123260498 -1.169081449508667 62.0
    endloop
  endfacet
  facet normal 0.0 0.0 -1.0
    outer loop
      vertex -5.2943902015686035 -1.2454707622528076 62.0
      vertex -4.593050479888916 -0.6230071783065796 62.0
      vertex -4.637977123260498 -1.169081449508667 62.0
    endloop
  endfacet
  facet normal 0.0 0.0 -1.0
    outer loop
      vertex -4.637977123260498 -1.169081449508667 62.0
      vertex -4.593050479888916 -0.6230071783065796 62.0
      vertex -4.261322498321533 -0.8924888372421265 62.0
    endloop
  endfacet
  facet normal 0.0 0.0 -1.0
    outer loop
      vertex -4.261322498321533 -0.8924888372421265 62.0
      vertex -4.593050479888916 -0.6230071783065796 62.0
      vertex -3.732574939727783 -0.5966147184371948 62.0
    endloop
  endfacet
  facet normal 0.0 0.0 -1.0
    outer loop
      vertex -4.593050479888916 -0.6230071783065796 62.0
      vertex -3.6589808464050293 -0.06914734840393066 62.0
      vertex -3.732574939727783 -0.5966147184371948 62.0
    endloop
  endfacet
  facet normal 0.0 0.0 -1.0
    outer loop
      vertex -3.732574939727783 -0.5966147184371948 62.0
      vertex -3.6589808464050293 -0.06914734840393066 62.0
      vertex -2.991950035095215 -0.269824743270874 62.0
    endloop
  endfacet
  facet normal 0.0 0.0 -1.0
    outer loop
      vertex -3.6589808464050293 -0.06914734840393066 62.0
      vertex -2.557694911956787 0.38237738609313965 62.0
      vertex -2.991950035095215 -0.269824743270874 62.0
    endloop
  endfacet
  facet normal 0.0 0.0 -1.0
    outer loop
      vertex -2.991950035095215 -0.269824743270874 62.0
      vertex -2.557694911956787 0.38237738609313965 62.0
      vertex -2.1056900024414062 0.05169820785522461 62.0
    endloop
  endfacet
  facet normal 0.0 0.0 -1.0
    outer loop
      vertex -2.557694911956787 0.38237738609313965 62.0
      vertex -1.824388027191162 0.579906702041626 62.0
      vertex -2.1056900024414062 0.05169820785522461 62.0
    endloop
  endfacet
  facet normal 0.0 0.0 -1.0
    outer loop
      vertex -2.1056900024414062 0.05169820785522461 62.0
      vertex -1.824388027191162 0.579906702041626 62.0
      vertex -1.3841841220855713 0.2563135623931885 62.0
    endloop
  endfacet
  facet normal 0.0 0.0 -1.0
    outer loop
      vertex -1.824388027191162 0.579906702041626 62.0
      vertex -1.091080665588379 0.7774362564086914 62.0
      vertex -1.3841841220855713 0.2563135623931885 62.0
    endloop
  endfacet
  facet normal 0.0 0.0 -1.0
    outer loop
      vertex -1.3841841220855713 0.2563135623931885 62.0
      vertex -1.091080665588379 0.7774362564086914 62.0
      vertex -0.7429838180541992 0.42338037490844727 62.0
    endloop
  endfacet
  facet normal 0.0 0.0 -1.0
    outer loop
      vertex -1.091080665588379 0.7774362564086914 62.0
      vertex -0.3578529357910156 0.8902676105499268 62.0
      vertex -0.7429838180541992 0.42338037490844727 62.0
    endloop
  endfacet
  facet normal 0.0 0.0 -1.0
    outer loop
      vertex -0.7429838180541992 0.42338037490844727 62.0
      vertex -0.3578529357910156 0.8902676105499268 62.0
      vertex 0.27620673179626465 0.5623972415924072 62.0
    endloop
  endfacet
  facet normal 0.0 0.0 -1.0
    outer loop
      vertex -0.3578529357910156 0.8902676105499268 62.0
      vertex 0.3753749132156372 1.003098726272583 62.0
      vertex 0.27620673179626465 0.5623972415924072 62.0
    endloop
  endfacet
  facet normal 0.0 0.0 -1.0
    outer loop
      vertex 0.27620673179626465 0.5623972415924072 62.0
      vertex 0.3753749132156372 1.003098726272583 62.0
      vertex 1.2953970432281494 0.5884006023406982 62.0
    endloop
  endfacet
  facet normal 0.0 0.0 -1.0
    outer loop
      vertex 0.3753749132156372 1.003098726272583 62.0
      vertex 1.1876896619796753 1.0450880527496338 62.0
      vertex 1.2953970432281494 0.5884006023406982 62.0
    endloop
  endfacet
  facet normal 0.0 0.0 -1.0
    outer loop
      vertex 1.1876896619796753 1.0450880527496338 62.0
      vertex 1.9999955892562866 1.0870773792266846 62.0
      vertex 1.2953970432281494 0.5884006023406982 62.0
    endloop
  endfacet
  facet normal 0.0 0.0 -1.0
    outer loop
      vertex 1.2953970432281494 0.5884006023406982 62.0
      vertex 1.9999955892562866 1.0870773792266846 62.0
      vertex 2.0 0.5785796642303467 62.0
    endloop
  endfacet
  facet normal 0.15209254622459412 0.9883663058280945 0.0
    outer loop
      vertex 4.357852935791016 0.8902676105499268 62.0
      vertex 3.6246252059936523 1.003098726272583 62.70650100708008
      vertex 4.357852935791016 0.8902676105499268 62.70650100708008
    endloop
  endfacet
  facet normal 0.051622021943330765 0.9986667037010193 0.0
    outer loop
      vertex 3.6246252059936523 1.003098726272583 62.0
      vertex 2.812310218811035 1.0450880527496338 62.70650100708008
      vertex 3.6246252059936523 1.003098726272583 62.70650100708008
    endloop
  endfacet
  facet normal 0.051622044295072556 0.9986667037010193 0.0
    outer loop
      vertex 2.812310218811035 1.0450880527496338 62.0
      vertex 1.9999955892562866 1.0870773792266846 62.70650100708008
      vertex 2.812310218811035 1.0450880527496338 62.70650100708008
    endloop
  endfacet
  facet normal -0.05162259563803673 0.9986667037010193 0.0
    outer loop
      vertex 1.9999955892562866 1.0870773792266846 62.0
      vertex 1.1876896619796753 1.0450880527496338 62.70650100708008
      vertex 1.9999955892562866 1.0870773792266846 62.70650100708008
    endloop
  endfacet
  facet normal -0.051622044295072556 0.9986667633056641 0.0
    outer loop
      vertex 1.1876896619796753 1.0450880527496338 62.0
      vertex 0.3753749132156372 1.003098726272583 62.70650100708008
      vertex 1.1876896619796753 1.0450880527496338 62.70650100708008
    endloop
  endfacet
  facet normal -0.15209251642227173 0.9883663058280945 0.0
    outer loop
      vertex 0.3753749132156372 1.003098726272583 62.0
      vertex -0.3578529357910156 0.8902676105499268 62.70650100708008
      vertex 0.3753749132156372 1.003098726272583 62.70650100708008
    endloop
  endfacet
  facet normal -0.1520928591489792 0.9883662462234497 0.0
    outer loop
      vertex -0.3578529357910156 0.8902676105499268 62.0
      vertex -1.091080665588379 0.7774362564086914 62.70650100708008
      vertex -0.3578529357910156 0.8902676105499268 62.70650100708008
    endloop
  endfacet
  facet normal -0.26009705662727356 0.9655824303627014 0.0
    outer loop
      vertex -1.091080665588379 0.7774362564086914 62.0
      vertex -1.824388027191162 0.579906702041626 62.70650100708008
      vertex -1.091080665588379 0.7774362564086914 62.70650100708008
    endloop
  endfacet
  facet normal -0.2600969076156616 0.9655824899673462 0.0
    outer loop
      vertex -1.824388027191162 0.579906702041626 62.0
      vertex -2.557694911956787 0.38237738609313965 62.70650100708008
      vertex -1.824388027191162 0.579906702041626 62.70650100708008
    endloop
  endfacet
  facet normal -0.37935149669647217 0.9252526760101318 0.0
    outer loop
      vertex -2.557694911956787 0.38237738609313965 62.0
      vertex -3.6589808464050293 -0.06914734840393066 62.70650100708008
      vertex -2.557694911956787 0.38237738609313965 62.70650100708008
    endloop
  endfacet
  facet normal -0.5100321173667908 0.8601553440093994 0.0
    outer loop
      vertex -3.6589808464050293 -0.06914734840393066 62.0
      vertex -4.593050479888916 -0.6230071783065796 62.70650100708008
      vertex -3.6589808464050293 -0.06914734840393066 62.70650100708008
    endloop
  endfacet
  facet normal -0.6637980341911316 0.7479119300842285 0.0
    outer loop
      vertex -4.593050479888916 -0.6230071783065796 62.0
      vertex -5.2943902015686035 -1.2454707622528076 62.70650100708008
      vertex -4.593050479888916 -0.6230071783065796 62.70650100708008
    endloop
  endfacet
  facet normal -0.8188862800598145 0.5739558935165405 0.0
    outer loop
      vertex -5.2943902015686035 -1.2454707622528076 62.0
      vertex -5.7223052978515625 -1.855994701385498 62.70650100708008
      vertex -5.2943902015686035 -1.2454707622528076 62.70650100708008
    endloop
  endfacet
  facet normal -0.9421336054801941 0.3352377712726593 0.0
    outer loop
      vertex -5.7223052978515625 -1.855994701385498 62.0
      vertex -6.019140243530273 -2.6902031898498535 62.70650100708008
      vertex -5.7223052978515625 -1.855994701385498 62.70650100708008
    endloop
  endfacet
  facet normal -0.9946356415748596 -0.10344050824642181 0.0
    outer loop
      vertex -6.019140243530273 -2.6902031898498535 62.0
      vertex -5.923559188842773 -3.6092660427093506 62.70650100708008
      vertex -6.019140243530273 -2.6902031898498535 62.70650100708008
    endloop
  endfacet
  facet normal -0.9593944549560547 -0.28206777572631836 0.0
    outer loop
      vertex -5.923559188842773 -3.6092660427093506 62.0
      vertex -5.6982645988464355 -4.375558376312256 62.70650100708008
      vertex -5.923559188842773 -3.6092660427093506 62.70650100708008
    endloop
  endfacet
  facet normal -0.8753668069839478 -0.48345932364463806 0.0
    outer loop
      vertex -5.6982645988464355 -4.375558376312256 62.0
      vertex -5.127965927124023 -5.408159255981445 62.70650100708008
      vertex -5.6982645988464355 -4.375558376312256 62.70650100708008
    endloop
  endfacet
  facet normal -0.767920196056366 -0.640545666217804 0.0
    outer loop
      vertex -5.127965927124023 -5.408159255981445 62.0
      vertex -4.222986698150635 -6.493096351623535 62.70650100708008
      vertex -5.127965927124023 -5.408159255981445 62.70650100708008
    endloop
  endfacet
  facet normal -0.6622524261474609 -0.7492808103561401 0.0
    outer loop
      vertex -4.222986698150635 -6.493096351623535 62.0
      vertex -3.3065176010131836 -7.3031182289123535 62.70650100708008
      vertex -4.222986698150635 -6.493096351623535 62.70650100708008
    endloop
  endfacet
  facet normal -0.5423328280448914 -0.8401637077331543 0.0
    outer loop
      vertex -3.3065176010131836 -7.3031182289123535 62.0
      vertex -1.8544793128967285 -8.240421295166016 62.70650100708008
      vertex -3.3065176010131836 -7.3031182289123535 62.70650100708008
    endloop
  endfacet
  facet normal -0.377877801656723 -0.9258554577827454 0.0
    outer loop
      vertex -1.8544793128967285 -8.240421295166016 62.0
      vertex -0.12493538856506348 -8.94631576538086 62.70650100708008
      vertex -1.8544793128967285 -8.240421295166016 62.70650100708008
    endloop
  endfacet
  facet normal -0.14700675010681152 -0.9891355037689209 0.0
    outer loop
      vertex -0.12493538856506348 -8.94631576538086 62.0
      vertex 1.9999949932098389 -9.262125968933105 62.70650100708008
      vertex -0.12493538856506348 -8.94631576538086 62.70650100708008
    endloop
  endfacet
  facet normal 0.1470060795545578 -0.9891355633735657 0.0
    outer loop
      vertex 1.9999949932098389 -9.262125968933105 62.0
      vertex 4.124935150146484 -8.94631576538086 62.70650100708008
      vertex 1.9999949932098389 -9.262125968933105 62.70650100708008
    endloop
  endfacet
  facet normal 0.3778778314590454 -0.9258555769920349 0.0
    outer loop
      vertex 4.124935150146484 -8.94631576538086 62.0
      vertex 5.8544793128967285 -8.240421295166016 62.70650100708008
      vertex 4.124935150146484 -8.94631576538086 62.70650100708008
    endloop
  endfacet
  facet normal 0.5423328280448914 -0.8401637077331543 0.0
    outer loop
      vertex 5.8544793128967285 -8.240421295166016 62.0
      vertex 7.306517601013184 -7.3031182289123535 62.70650100708008
      vertex 5.8544793128967285 -8.240421295166016 62.70650100708008
    endloop
  endfacet
  facet normal 0.6622526049613953 -0.7492806911468506 0.0
    outer loop
      vertex 7.306517601013184 -7.3031182289123535 62.0
      vertex 8.222986221313477 -6.493096351623535 62.70650100708008
      vertex 7.306517601013184 -7.3031182289123535 62.70650100708008
    endloop
  endfacet
  facet normal 0.7679200172424316 -0.6405458450317383 0.0
    outer loop
      vertex 8.222986221313477 -6.493096351623535 62.0
      vertex 9.127965927124023 -5.408159255981445 62.70650100708008
      vertex 8.222986221313477 -6.493096351623535 62.70650100708008
    endloop
  endfacet
  facet normal 0.875366747379303 -0.4834596812725067 0.0
    outer loop
      vertex 9.127965927124023 -5.408159255981445 62.0
      vertex 9.698265075683594 -4.375558376312256 62.70650100708008
      vertex 9.127965927124023 -5.408159255981445 62.70650100708008
    endloop
  endfacet
  facet normal 0.959394633769989 -0.28206726908683777 0.0
    outer loop
      vertex 9.698265075683594 -4.375558376312256 62.0
      vertex 9.923559188842773 -3.6092660427093506 62.70650100708008
      vertex 9.698265075683594 -4.375558376312256 62.70650100708008
    endloop
  endfacet
  facet normal 0.9946356415748596 -0.10344050824642181 0.0
    outer loop
      vertex 9.923559188842773 -3.6092660427093506 62.0
      vertex 10.019140243530273 -2.6902031898498535 62.70650100708008
      vertex 9.923559188842773 -3.6092660427093506 62.70650100708008
    endloop
  endfacet
  facet normal 0.9421336054801941 0.3352377712726593 0.0
    outer loop
      vertex 10.019140243530273 -2.6902031898498535 62.0
      vertex 9.722305297851562 -1.855994701385498 62.70650100708008
      vertex 10.019140243530273 -2.6902031898498535 62.70650100708008
    endloop
  endfacet
  facet normal 0.8188859224319458 0.5739562511444092 0.0
    outer loop
      vertex 9.722305297851562 -1.855994701385498 62.0
      vertex 9.294389724731445 -1.2454707622528076 62.70650100708008
      vertex 9.722305297851562 -1.855994701385498 62.70650100708008
    endloop
  endfacet
  facet normal 0.6637980341911316 0.7479119300842285 0.0
    outer loop
      vertex 9.294389724731445 -1.2454707622528076 62.0
      vertex 8.593050003051758 -0.6230071783065796 62.70650100708008
      vertex 9.294389724731445 -1.2454707622528076 62.70650100708008
    endloop
  endfacet
  facet normal 0.5100322961807251 0.8601552844047546 0.0
    outer loop
      vertex 8.593050003051758 -0.6230071783065796 62.0
      vertex 7.658980846405029 -0.06914734840393066 62.70650100708008
      vertex 8.593050003051758 -0.6230071783065796 62.70650100708008
    endloop
  endfacet
  facet normal 0.37935149669647217 0.9252526760101318 0.0
    outer loop
      vertex 7.658980846405029 -0.06914734840393066 62.0
      vertex 6.557694911956787 0.38237738609313965 62.70650100708008
      vertex 7.658980846405029 -0.06914734840393066 62.70650100708008
    endloop
  endfacet
  facet normal 0.2600969076156616 0.9655824899673462 0.0
    outer loop
      vertex 6.557694911956787 0.38237738609313965 62.0
      vertex 5.824388027191162 0.579906702041626 62.70650100708008
      vertex 6.557694911956787 0.38237738609313965 62.70650100708008
    endloop
  endfacet
  facet normal 0.26009705662727356 0.9655824303627014 0.0
    outer loop
      vertex 5.824388027191162 0.579906702041626 62.0
      vertex 5.091080665588379 0.7774362564086914 62.70650100708008
      vertex 5.824388027191162 0.579906702041626 62.70650100708008
    endloop
  endfacet
  facet normal 0.1520928591489792 0.9883662462234497 0.0
    outer loop
      vertex 5.091080665588379 0.7774362564086914 62.0
      vertex 4.357852935791016 0.8902676105499268 62.70650100708008
      vertex 5.091080665588379 0.7774362564086914 62.70650100708008
    endloop
  endfacet
  facet normal 0.15209254622459412 0.9883663058280945 0.0
    outer loop
      vertex 4.357852935791016 0.8902676105499268 62.0
      vertex 3.6246252059936523 1.003098726272583 62.0
      vertex 3.6246252059936523 1.003098726272583 62.70650100708008
    endloop
  endfacet
  facet normal 0.051622021943330765 0.9986667037010193 0.0
    outer loop
      vertex 3.6246252059936523 1.003098726272583 62.0
      vertex 2.812310218811035 1.0450880527496338 62.0
      vertex 2.812310218811035 1.0450880527496338 62.70650100708008
    endloop
  endfacet
  facet normal 0.051622044295072556 0.9986667037010193 0.0
    outer loop
      vertex 2.812310218811035 1.0450880527496338 62.0
      vertex 1.9999955892562866 1.0870773792266846 62.0
      vertex 1.9999955892562866 1.0870773792266846 62.70650100708008
    endloop
  endfacet
  facet normal -0.05162259563803673 0.9986667037010193 0.0
    outer loop
      vertex 1.9999955892562866 1.0870773792266846 62.0
      vertex 1.1876896619796753 1.0450880527496338 62.0
      vertex 1.1876896619796753 1.0450880527496338 62.70650100708008
    endloop
  endfacet
  facet normal -0.051622044295072556 0.9986667633056641 0.0
    outer loop
      vertex 1.1876896619796753 1.0450880527496338 62.0
      vertex 0.3753749132156372 1.003098726272583 62.0
      vertex 0.3753749132156372 1.003098726272583 62.70650100708008
    endloop
  endfacet
  facet normal -0.15209251642227173 0.9883663058280945 0.0
    outer loop
      vertex 0.3753749132156372 1.003098726272583 62.0
      vertex -0.3578529357910156 0.8902676105499268 62.0
      vertex -0.3578529357910156 0.8902676105499268 62.70650100708008
    endloop
  endfacet
  facet normal -0.1520928591489792 0.9883662462234497 0.0
    outer loop
      vertex -0.3578529357910156 0.8902676105499268 62.0
      vertex -1.091080665588379 0.7774362564086914 62.0
      vertex -1.091080665588379 0.7774362564086914 62.70650100708008
    endloop
  endfacet
  facet normal -0.26009705662727356 0.9655824303627014 0.0
    outer loop
      vertex -1.091080665588379 0.7774362564086914 62.0
      vertex -1.824388027191162 0.579906702041626 62.0
      vertex -1.824388027191162 0.579906702041626 62.70650100708008
    endloop
  endfacet
  facet normal -0.2600969076156616 0.9655824899673462 0.0
    outer loop
      vertex -1.824388027191162 0.579906702041626 62.0
      vertex -2.557694911956787 0.38237738609313965 62.0
      vertex -2.557694911956787 0.38237738609313965 62.70650100708008
    endloop
  endfacet
  facet normal -0.37935149669647217 0.9252526760101318 0.0
    outer loop
      vertex -2.557694911956787 0.38237738609313965 62.0
      vertex -3.6589808464050293 -0.06914734840393066 62.0
      vertex -3.6589808464050293 -0.06914734840393066 62.70650100708008
    endloop
  endfacet
  facet normal -0.5100321173667908 0.8601553440093994 0.0
    outer loop
      vertex -3.6589808464050293 -0.06914734840393066 62.0
      vertex -4.593050479888916 -0.6230071783065796 62.0
      vertex -4.593050479888916 -0.6230071783065796 62.70650100708008
    endloop
  endfacet
  facet normal -0.6637980341911316 0.7479119300842285 0.0
    outer loop
      vertex -4.593050479888916 -0.6230071783065796 62.0
      vertex -5.2943902015686035 -1.2454707622528076 62.0
      vertex -5.2943902015686035 -1.2454707622528076 62.70650100708008
    endloop
  endfacet
  facet normal -0.8188862800598145 0.5739558935165405 0.0
    outer loop
      vertex -5.2943902015686035 -1.2454707622528076 62.0
      vertex -5.7223052978515625 -1.855994701385498 62.0
      vertex -5.7223052978515625 -1.855994701385498 62.70650100708008
    endloop
  endfacet
  facet normal -0.9421336054801941 0.3352377712726593 0.0
    outer loop
      vertex -5.7223052978515625 -1.855994701385498 62.0
      vertex -6.019140243530273 -2.6902031898498535 62.0
      vertex -6.019140243530273 -2.6902031898498535 62.70650100708008
    endloop
  endfacet
  facet normal -0.9946356415748596 -0.10344050824642181 0.0
    outer loop
      vertex -6.019140243530273 -2.6902031898498535 62.0
      vertex -5.923559188842773 -3.6092660427093506 62.0
      vertex -5.923559188842773 -3.6092660427093506 62.70650100708008
    endloop
  endfacet
  facet normal -0.9593944549560547 -0.28206777572631836 0.0
    outer loop
      vertex -5.923559188842773 -3.6092660427093506 62.0
      vertex -5.6982645988464355 -4.375558376312256 62.0
      vertex -5.6982645988464355 -4.375558376312256 62.70650100708008
    endloop
  endfacet
  facet normal -0.8753668069839478 -0.48345932364463806 0.0
    outer loop
      vertex -5.6982645988464355 -4.375558376312256 62.0
      vertex -5.127965927124023 -5.408159255981445 62.0
      vertex -5.127965927124023 -5.408159255981445 62.70650100708008
    endloop
  endfacet
  facet normal -0.767920196056366 -0.640545666217804 0.0
    outer loop
      vertex -5.127965927124023 -5.408159255981445 62.0
      vertex -4.222986698150635 -6.493096351623535 62.0
      vertex -4.222986698150635 -6.493096351623535 62.70650100708008
    endloop
  endfacet
  facet normal -0.6622524261474609 -0.7492808103561401 0.0
    outer loop
      vertex -4.222986698150635 -6.493096351623535 62.0
      vertex -3.3065176010131836 -7.3031182289123535 62.0
      vertex -3.3065176010131836 -7.3031182289123535 62.70650100708008
    endloop
  endfacet
  facet normal -0.5423328280448914 -0.8401637077331543 0.0
    outer loop
      vertex -3.3065176010131836 -7.3031182289123535 62.0
      vertex -1.8544793128967285 -8.240421295166016 62.0
      vertex -1.8544793128967285 -8.240421295166016 62.70650100708008
    endloop
  endfacet
  facet normal -0.377877801656723 -0.9258554577827454 0.0
    outer loop
      vertex -1.8544793128967285 -8.240421295166016 62.0
      vertex -0.12493538856506348 -8.94631576538086 62.0
      vertex -0.12493538856506348 -8.94631576538086 62.70650100708008
    endloop
  endfacet
  facet normal -0.14700675010681152 -0.9891355037689209 0.0
    outer loop
      vertex -0.12493538856506348 -8.94631576538086 62.0
      vertex 1.9999949932098389 -9.262125968933105 62.0
      vertex 1.9999949932098389 -9.262125968933105 62.70650100708008
    endloop
  endfacet
  facet normal 0.1470060795545578 -0.9891355633735657 0.0
    outer loop
      vertex 1.9999949932098389 -9.262125968933105 62.0
      vertex 4.124935150146484 -8.94631576538086 62.0
      vertex 4.124935150146484 -8.94631576538086 62.70650100708008
    endloop
  endfacet
  facet normal 0.3778778314590454 -0.9258555769920349 0.0
    outer loop
      vertex 4.124935150146484 -8.94631576538086 62.0
      vertex 5.8544793128967285 -8.240421295166016 62.0
      vertex 5.8544793128967285 -8.240421295166016 62.70650100708008
    endloop
  endfacet
  facet normal 0.5423328280448914 -0.8401637077331543 0.0
    outer loop
      vertex 5.8544793128967285 -8.240421295166016 62.0
      vertex 7.306517601013184 -7.3031182289123535 62.0
      vertex 7.306517601013184 -7.3031182289123535 62.70650100708008
    endloop
  endfacet
  facet normal 0.6622526049613953 -0.7492806911468506 0.0
    outer loop
      vertex 7.306517601013184 -7.3031182289123535 62.0
      vertex 8.222986221313477 -6.493096351623535 62.0
      vertex 8.222986221313477 -6.493096351623535 62.70650100708008
    endloop
  endfacet
  facet normal 0.7679200172424316 -0.6405458450317383 0.0
    outer loop
      vertex 8.222986221313477 -6.493096351623535 62.0
      vertex 9.127965927124023 -5.408159255981445 62.0
      vertex 9.127965927124023 -5.408159255981445 62.70650100708008
    endloop
  endfacet
  facet normal 0.875366747379303 -0.4834596812725067 0.0
    outer loop
      vertex 9.127965927124023 -5.408159255981445 62.0
      vertex 9.698265075683594 -4.375558376312256 62.0
      vertex 9.698265075683594 -4.375558376312256 62.70650100708008
    endloop
  endfacet
  facet normal 0.959394633769989 -0.28206726908683777 0.0
    outer loop
      vertex 9.698265075683594 -4.375558376312256 62.0
      vertex 9.923559188842773 -3.6092660427093506 62.0
      vertex 9.923559188842773 -3.6092660427093506 62.70650100708008
    endloop
  endfacet
  facet normal 0.9946356415748596 -0.10344050824642181 0.0
    outer loop
      vertex 9.923559188842773 -3.6092660427093506 62.0
      vertex 10.019140243530273 -2.6902031898498535 62.0
      vertex 10.019140243530273 -2.6902031898498535 62.70650100708008
    endloop
  endfacet
  facet normal 0.9421336054801941 0.3352377712726593 0.0
    outer loop
      vertex 10.019140243530273 -2.6902031898498535 62.0
      vertex 9.722305297851562 -1.855994701385498 62.0
      vertex 9.722305297851562 -1.855994701385498 62.70650100708008
    endloop
  endfacet
  facet normal 0.8188859224319458 0.5739562511444092 0.0
    outer loop
      vertex 9.722305297851562 -1.855994701385498 62.0
      vertex 9.294389724731445 -1.2454707622528076 62.0
      vertex 9.294389724731445 -1.2454707622528076 62.70650100708008
    endloop
  endfacet
  facet normal 0.6637980341911316 0.7479119300842285 0.0
    outer loop
      vertex 9.294389724731445 -1.2454707622528076 62.0
      vertex 8.593050003051758 -0.6230071783065796 62.0
      vertex 8.593050003051758 -0.6230071783065796 62.70650100708008
    endloop
  endfacet
  facet normal 0.5100322961807251 0.8601552844047546 0.0
    outer loop
      vertex 8.593050003051758 -0.6230071783065796 62.0
      vertex 7.658980846405029 -0.06914734840393066 62.0
      vertex 7.658980846405029 -0.06914734840393066 62.70650100708008
    endloop
  endfacet
  facet normal 0.37935149669647217 0.9252526760101318 0.0
    outer loop
      vertex 7.658980846405029 -0.06914734840393066 62.0
      vertex 6.557694911956787 0.38237738609313965 62.0
      vertex 6.557694911956787 0.38237738609313965 62.70650100708008
    endloop
  endfacet
  facet normal 0.2600969076156616 0.9655824899673462 0.0
    outer loop
      vertex 6.557694911956787 0.38237738609313965 62.0
      vertex 5.824388027191162 0.579906702041626 62.0
      vertex 5.824388027191162 0.579906702041626 62.70650100708008
    endloop
  endfacet
  facet normal 0.26009705662727356 0.9655824303627014 0.0
    outer loop
      vertex 5.824388027191162 0.579906702041626 62.0
      vertex 5.091080665588379 0.7774362564086914 62.0
      vertex 5.091080665588379 0.7774362564086914 62.70650100708008
    endloop
  endfacet
  facet normal 0.1520928591489792 0.9883662462234497 0.0
    outer loop
      vertex 5.091080665588379 0.7774362564086914 62.0
      vertex 4.357852935791016 0.8902676105499268 62.0
      vertex 4.357852935791016 0.8902676105499268 62.70650100708008
    endloop
  endfacet
  facet normal -0.274044007062912 0.9617171883583069 0.0
    outer loop
      vertex 5.369955062866211 -7.378722667694092 62.70650100708008
      vertex 4.183667182922363 -7.716758728027344 62.0
      vertex 4.183667182922363 -7.716758728027344 62.70650100708008
    endloop
  endfacet
  facet normal -0.4159136712551117 0.9094040989875793 0.0
    outer loop
      vertex 6.477258682250977 -6.872300148010254 62.70650100708008
      vertex 5.369955062866211 -7.378722667694092 62.0
      vertex 5.369955062866211 -7.378722667694092 62.70650100708008
    endloop
  endfacet
  facet normal -0.6088627576828003 0.7932755947113037 0.0
    outer loop
      vertex 7.436971187591553 -6.135692119598389 62.70650100708008
      vertex 6.477258682250977 -6.872300148010254 62.0
      vertex 6.477258682250977 -6.872300148010254 62.70650100708008
    endloop
  endfacet
  facet normal -0.6679142713546753 0.7442381978034973 0.0
    outer loop
      vertex 8.193126678466797 -5.457082748413086 62.70650100708008
      vertex 7.436971187591553 -6.135692119598389 62.0
      vertex 7.436971187591553 -6.135692119598389 62.70650100708008
    endloop
  endfacet
  facet normal -0.8179783821105957 0.5752490758895874 0.0
    outer loop
      vertex 8.694385528564453 -4.744315147399902 62.70650100708008
      vertex 8.193126678466797 -5.457082748413086 62.0
      vertex 8.193126678466797 -5.457082748413086 62.70650100708008
    endloop
  endfacet
  facet normal -0.8777170181274414 0.4791795015335083 0.0
    outer loop
      vertex 9.067033767700195 -4.061732292175293 62.70650100708008
      vertex 8.694385528564453 -4.744315147399902 62.0
      vertex 8.694385528564453 -4.744315147399902 62.70650100708008
    endloop
  endfacet
  facet normal -0.9692918062210083 0.24591344594955444 0.0
    outer loop
      vertex 9.254249572753906 -3.323802947998047 62.70650100708008
      vertex 9.067033767700195 -4.061732292175293 62.0
      vertex 9.067033767700195 -4.061732292175293 62.70650100708008
    endloop
  endfacet
  facet normal -0.9999846816062927 -0.00553916348144412 0.0
    outer loop
      vertex 9.251091957092285 -2.7537589073181152 62.70650100708008
      vertex 9.254249572753906 -3.323802947998047 62.0
      vertex 9.254249572753906 -3.323802947998047 62.70650100708008
    endloop
  endfacet
  facet normal -0.9994502663612366 -0.0331551693379879 0.0
    outer loop
      vertex 9.234542846679688 -2.254892110824585 62.70650100708008
      vertex 9.251091957092285 -2.7537589073181152 62.0
      vertex 9.251091957092285 -2.7537589073181152 62.70650100708008
    endloop
  endfacet
  facet normal -0.9672800898551941 -0.25371068716049194 0.0
    outer loop
      vertex 9.143610000610352 -1.9082077741622925 62.70650100708008
      vertex 9.234542846679688 -2.254892110824585 62.0
      vertex 9.234542846679688 -2.254892110824585 62.70650100708008
    endloop
  endfacet
  facet normal -0.8683226704597473 -0.4959997534751892 0.0
    outer loop
      vertex 8.931146621704102 -1.5362584590911865 62.70650100708008
      vertex 9.143610000610352 -1.9082077741622925 62.0
      vertex 9.143610000610352 -1.9082077741622925 62.70650100708008
    endloop
  endfacet
  facet normal -0.7814629673957825 -0.6239517331123352 0.0
    outer loop
      vertex 8.637977600097656 -1.169081449508667 62.70650100708008
      vertex 8.931146621704102 -1.5362584590911865 62.0
      vertex 8.931146621704102 -1.5362584590911865 62.70650100708008
    endloop
  endfacet
  facet normal -0.591890275478363 -0.8060185313224792 0.0
    outer loop
      vertex 8.261322021484375 -0.8924888372421265 62.70650100708008
      vertex 8.637977600097656 -1.169081449508667 62.0
      vertex 8.637977600097656 -1.169081449508667 62.70650100708008
    endloop
  endfacet
  facet normal -0.48832160234451294 -0.8726637363433838 0.0
    outer loop
      vertex 7.732574939727783 -0.5966147184371948 62.70650100708008
      vertex 8.261322021484375 -0.8924888372421265 62.0
      vertex 8.261322021484375 -0.8924888372421265 62.70650100708008
    endloop
  endfacet
  facet normal -0.40368539094924927 -0.9148978590965271 0.0
    outer loop
      vertex 6.991950035095215 -0.269824743270874 62.70650100708008
      vertex 7.732574939727783 -0.5966147184371948 62.0
      vertex 7.732574939727783 -0.5966147184371948 62.70650100708008
    endloop
  endfacet
  facet normal -0.3410371243953705 -0.9400497674942017 0.0
    outer loop
      vertex 6.105690002441406 0.05169820785522461 62.70650100708008
      vertex 6.991950035095215 -0.269824743270874 62.0
      vertex 6.991950035095215 -0.269824743270874 62.70650100708008
    endloop
  endfacet
  facet normal -0.2728353440761566 -0.9620606899261475 0.0
    outer loop
      vertex 5.384183883666992 0.2563135623931885 62.70650100708008
      vertex 6.105690002441406 0.05169820785522461 62.0
      vertex 6.105690002441406 0.05169820785522461 62.70650100708008
    endloop
  endfacet
  facet normal -0.25213536620140076 -0.9676920175552368 0.0
    outer loop
      vertex 4.742983818054199 0.42338037490844727 62.70650100708008
      vertex 5.384183883666992 0.2563135623931885 62.0
      vertex 5.384183883666992 0.2563135623931885 62.70650100708008
    endloop
  endfacet
  facet normal -0.13514788448810577 -0.9908254742622375 0.0
    outer loop
      vertex 3.7237932682037354 0.5623972415924072 62.70650100708008
      vertex 4.742983818054199 0.42338037490844727 62.0
      vertex 4.742983818054199 0.42338037490844727 62.70650100708008
    endloop
  endfacet
  facet normal -0.025505447760224342 -0.9996747374534607 0.0
    outer loop
      vertex 2.7046029567718506 0.5884006023406982 62.70650100708008
      vertex 3.7237932682037354 0.5623972415924072 62.0
      vertex 3.7237932682037354 0.5623972415924072 62.70650100708008
    endloop
  endfacet
  facet normal 0.01393690425902605 -0.9999029040336609 0.0
    outer loop
      vertex 2.0 0.5785796642303467 62.70650100708008
      vertex 2.7046029567718506 0.5884006023406982 62.0
      vertex 2.7046029567718506 0.5884006023406982 62.70650100708008
    endloop
  endfacet
  facet normal -0.01393690425902605 -0.9999029040336609 0.0
    outer loop
      vertex 1.2953970432281494 0.5884006023406982 62.70650100708008
      vertex 2.0 0.5785796642303467 62.0
      vertex 2.0 0.5785796642303467 62.70650100708008
    endloop
  endfacet
  facet normal 0.025505447760224342 -0.9996747374534607 0.0
    outer loop
      vertex 0.27620673179626465 0.5623972415924072 62.70650100708008
      vertex 1.2953970432281494 0.5884006023406982 62.0
      vertex 1.2953970432281494 0.5884006023406982 62.70650100708008
    endloop
  endfacet
  facet normal 0.13514788448810577 -0.9908254742622375 0.0
    outer loop
      vertex -0.7429838180541992 0.42338037490844727 62.70650100708008
      vertex 0.27620673179626465 0.5623972415924072 62.0
      vertex 0.27620673179626465 0.5623972415924072 62.70650100708008
    endloop
  endfacet
  facet normal 0.2521352767944336 -0.9676920175552368 0.0
    outer loop
      vertex -1.3841841220855713 0.2563135623931885 62.70650100708008
      vertex -0.7429838180541992 0.42338037490844727 62.0
      vertex -0.7429838180541992 0.42338037490844727 62.70650100708008
    endloop
  endfacet
  facet normal 0.27283546328544617 -0.9620607495307922 0.0
    outer loop
      vertex -2.1056900024414062 0.05169820785522461 62.70650100708008
      vertex -1.3841841220855713 0.2563135623931885 62.0
      vertex -1.3841841220855713 0.2563135623931885 62.70650100708008
    endloop
  endfacet
  facet normal 0.3410371243953705 -0.9400497674942017 0.0
    outer loop
      vertex -2.991950035095215 -0.269824743270874 62.70650100708008
      vertex -2.1056900024414062 0.05169820785522461 62.0
      vertex -2.1056900024414062 0.05169820785522461 62.70650100708008
    endloop
  endfacet
  facet normal 0.40368539094924927 -0.9148978590965271 0.0
    outer loop
      vertex -3.732574939727783 -0.5966147184371948 62.70650100708008
      vertex -2.991950035095215 -0.269824743270874 62.0
      vertex -2.991950035095215 -0.269824743270874 62.70650100708008
    endloop
  endfacet
  facet normal 0.4883212745189667 -0.8726639747619629 0.0
    outer loop
      vertex -4.261322498321533 -0.8924888372421265 62.70650100708008
      vertex -3.732574939727783 -0.5966147184371948 62.0
      vertex -3.732574939727783 -0.5966147184371948 62.70650100708008
    endloop
  endfacet
  facet normal 0.5918912887573242 -0.8060178756713867 0.0
    outer loop
      vertex -4.637977123260498 -1.169081449508667 62.70650100708008
      vertex -4.261322498321533 -0.8924888372421265 62.0
      vertex -4.261322498321533 -0.8924888372421265 62.70650100708008
    endloop
  endfacet
  facet normal 0.7814618945121765 -0.6239529848098755 0.0
    outer loop
      vertex -4.93114709854126 -1.5362584590911865 62.70650100708008
      vertex -4.637977123260498 -1.169081449508667 62.0
      vertex -4.637977123260498 -1.169081449508667 62.70650100708008
    endloop
  endfacet
  facet normal 0.8683236241340637 -0.4959980249404907 0.0
    outer loop
      vertex -5.143609523773193 -1.9082077741622925 62.70650100708008
      vertex -4.93114709854126 -1.5362584590911865 62.0
      vertex -4.93114709854126 -1.5362584590911865 62.70650100708008
    endloop
  endfacet
  facet normal 0.967279851436615 -0.253711998462677 0.0
    outer loop
      vertex -5.2345428466796875 -2.254892110824585 62.70650100708008
      vertex -5.143609523773193 -1.9082077741622925 62.0
      vertex -5.143609523773193 -1.9082077741622925 62.70650100708008
    endloop
  endfacet
  facet normal 0.9994502663612366 -0.0331551693379879 0.0
    outer loop
      vertex -5.251091957092285 -2.7537589073181152 62.70650100708008
      vertex -5.2345428466796875 -2.254892110824585 62.0
      vertex -5.2345428466796875 -2.254892110824585 62.70650100708008
    endloop
  endfacet
  facet normal 0.9999846816062927 -0.005540000274777412 0.0
    outer loop
      vertex -5.2542500495910645 -3.323802947998047 62.70650100708008
      vertex -5.251091957092285 -2.7537589073181152 62.0
      vertex -5.251091957092285 -2.7537589073181152 62.70650100708008
    endloop
  endfacet
  facet normal 0.9692915081977844 0.24591462314128876 0.0
    outer loop
      vertex -5.067033290863037 -4.061732292175293 62.70650100708008
      vertex -5.2542500495910645 -3.323802947998047 62.0
      vertex -5.2542500495910645 -3.323802947998047 62.70650100708008
    endloop
  endfacet
  facet normal 0.8777170181274414 0.4791795015335083 0.0
    outer loop
      vertex -4.694385051727295 -4.744315147399902 62.70650100708008
      vertex -5.067033290863037 -4.061732292175293 62.0
      vertex -5.067033290863037 -4.061732292175293 62.70650100708008
    endloop
  endfacet
  facet normal 0.8179783821105957 0.5752490758895874 0.0
    outer loop
      vertex -4.193126201629639 -5.457082748413086 62.70650100708008
      vertex -4.694385051727295 -4.744315147399902 62.0
      vertex -4.694385051727295 -4.744315147399902 62.70650100708008
    endloop
  endfacet
  facet normal 0.6679145097732544 0.744238018989563 0.0
    outer loop
      vertex -3.4369711875915527 -6.135692119598389 62.70650100708008
      vertex -4.193126201629639 -5.457082748413086 62.0
      vertex -4.193126201629639 -5.457082748413086 62.70650100708008
    endloop
  endfacet
  facet normal 0.6088627576828003 0.7932755947113037 0.0
    outer loop
      vertex -2.4772586822509766 -6.872300148010254 62.70650100708008
      vertex -3.4369711875915527 -6.135692119598389 62.0
      vertex -3.4369711875915527 -6.135692119598389 62.70650100708008
    endloop
  endfacet
  facet normal 0.41591376066207886 0.9094040393829346 0.0
    outer loop
      vertex -1.36995530128479 -7.378722667694092 62.70650100708008
      vertex -2.4772586822509766 -6.872300148010254 62.0
      vertex -2.4772586822509766 -6.872300148010254 62.70650100708008
    endloop
  endfacet
  facet normal 0.2740439176559448 0.9617172479629517 0.0
    outer loop
      vertex -0.18366694450378418 -7.716758728027344 62.70650100708008
      vertex -1.36995530128479 -7.378722667694092 62.0
      vertex -1.36995530128479 -7.378722667694092 62.70650100708008
    endloop
  endfacet
  facet normal 0.16642718017101288 0.9860537648200989 0.0
    outer loop
      vertex 0.8910888433456421 -7.898157119750977 62.70650100708008
      vertex -0.18366694450378418 -7.716758728027344 62.0
      vertex -0.18366694450378418 -7.716758728027344 62.70650100708008
    endloop
  endfacet
  facet normal 0.04630096256732941 0.9989275336265564 0.0
    outer loop
      vertex 1.9999995231628418 -7.94955587387085 62.70650100708008
      vertex 0.8910888433456421 -7.898157119750977 62.0
      vertex 0.8910888433456421 -7.898157119750977 62.70650100708008
    endloop
  endfacet
  facet normal -0.04630093276500702 0.9989275932312012 0.0
    outer loop
      vertex 3.1089110374450684 -7.898157119750977 62.70650100708008
      vertex 1.9999995231628418 -7.94955587387085 62.0
      vertex 1.9999995231628418 -7.94955587387085 62.70650100708008
    endloop
  endfacet
  facet normal -0.1664271205663681 0.9860537648200989 0.0
    outer loop
      vertex 4.183667182922363 -7.716758728027344 62.70650100708008
      vertex 3.1089110374450684 -7.898157119750977 62.0
      vertex 3.1089110374450684 -7.898157119750977 62.70650100708008
    endloop
  endfacet
  facet normal -0.274044007062912 0.9617171883583069 0.0
    outer loop
      vertex 5.369955062866211 -7.378722667694092 62.70650100708008
      vertex 5.369955062866211 -7.378722667694092 62.0
      vertex 4.183667182922363 -7.716758728027344 62.0
    endloop
  endfacet
  facet normal -0.4159136712551117 0.9094040989875793 0.0
    outer loop
      vertex 6.477258682250977 -6.872300148010254 62.70650100708008
      vertex 6.477258682250977 -6.872300148010254 62.0
      vertex 5.369955062866211 -7.378722667694092 62.0
    endloop
  endfacet
  facet normal -0.6088627576828003 0.7932755947113037 0.0
    outer loop
      vertex 7.436971187591553 -6.135692119598389 62.70650100708008
      vertex 7.436971187591553 -6.135692119598389 62.0
      vertex 6.477258682250977 -6.872300148010254 62.0
    endloop
  endfacet
  facet normal -0.6679142713546753 0.7442381978034973 0.0
    outer loop
      vertex 8.193126678466797 -5.457082748413086 62.70650100708008
      vertex 8.193126678466797 -5.457082748413086 62.0
      vertex 7.436971187591553 -6.135692119598389 62.0
    endloop
  endfacet
  facet normal -0.8179783821105957 0.5752490758895874 0.0
    outer loop
      vertex 8.694385528564453 -4.744315147399902 62.70650100708008
      vertex 8.694385528564453 -4.744315147399902 62.0
      vertex 8.193126678466797 -5.457082748413086 62.0
    endloop
  endfacet
  facet normal -0.8777170181274414 0.4791795015335083 0.0
    outer loop
      vertex 9.067033767700195 -4.061732292175293 62.70650100708008
      vertex 9.067033767700195 -4.061732292175293 62.0
      vertex 8.694385528564453 -4.744315147399902 62.0
    endloop
  endfacet
  facet normal -0.9692918062210083 0.24591344594955444 0.0
    outer loop
      vertex 9.254249572753906 -3.323802947998047 62.70650100708008
      vertex 9.254249572753906 -3.323802947998047 62.0
      vertex 9.067033767700195 -4.061732292175293 62.0
    endloop
  endfacet
  facet normal -0.9999846816062927 -0.00553916348144412 0.0
    outer loop
      vertex 9.251091957092285 -2.7537589073181152 62.70650100708008
      vertex 9.251091957092285 -2.7537589073181152 62.0
      vertex 9.254249572753906 -3.323802947998047 62.0
    endloop
  endfacet
  facet normal -0.9994502663612366 -0.0331551693379879 0.0
    outer loop
      vertex 9.234542846679688 -2.254892110824585 62.70650100708008
      vertex 9.234542846679688 -2.254892110824585 62.0
      vertex 9.251091957092285 -2.7537589073181152 62.0
    endloop
  endfacet
  facet normal -0.9672800898551941 -0.25371068716049194 0.0
    outer loop
      vertex 9.143610000610352 -1.9082077741622925 62.70650100708008
      vertex 9.143610000610352 -1.9082077741622925 62.0
      vertex 9.234542846679688 -2.254892110824585 62.0
    endloop
  endfacet
  facet normal -0.8683226704597473 -0.4959997534751892 0.0
    outer loop
      vertex 8.931146621704102 -1.5362584590911865 62.70650100708008
      vertex 8.931146621704102 -1.5362584590911865 62.0
      vertex 9.143610000610352 -1.9082077741622925 62.0
    endloop
  endfacet
  facet normal -0.7814629673957825 -0.6239517331123352 0.0
    outer loop
      vertex 8.637977600097656 -1.169081449508667 62.70650100708008
      vertex 8.637977600097656 -1.169081449508667 62.0
      vertex 8.931146621704102 -1.5362584590911865 62.0
    endloop
  endfacet
  facet normal -0.591890275478363 -0.8060185313224792 0.0
    outer loop
      vertex 8.261322021484375 -0.8924888372421265 62.70650100708008
      vertex 8.261322021484375 -0.8924888372421265 62.0
      vertex 8.637977600097656 -1.169081449508667 62.0
    endloop
  endfacet
  facet normal -0.48832160234451294 -0.8726637363433838 0.0
    outer loop
      vertex 7.732574939727783 -0.5966147184371948 62.70650100708008
      vertex 7.732574939727783 -0.5966147184371948 62.0
      vertex 8.261322021484375 -0.8924888372421265 62.0
    endloop
  endfacet
  facet normal -0.40368539094924927 -0.9148978590965271 0.0
    outer loop
      vertex 6.991950035095215 -0.269824743270874 62.70650100708008
      vertex 6.991950035095215 -0.269824743270874 62.0
      vertex 7.732574939727783 -0.5966147184371948 62.0
    endloop
  endfacet
  facet normal -0.3410371243953705 -0.9400497674942017 0.0
    outer loop
      vertex 6.105690002441406 0.05169820785522461 62.70650100708008
      vertex 6.105690002441406 0.05169820785522461 62.0
      vertex 6.991950035095215 -0.269824743270874 62.0
    endloop
  endfacet
  facet normal -0.2728353440761566 -0.9620606899261475 0.0
    outer loop
      vertex 5.384183883666992 0.2563135623931885 62.70650100708008
      vertex 5.384183883666992 0.2563135623931885 62.0
      vertex 6.105690002441406 0.05169820785522461 62.0
    endloop
  endfacet
  facet normal -0.25213536620140076 -0.9676920175552368 0.0
    outer loop
      vertex 4.742983818054199 0.42338037490844727 62.70650100708008
      vertex 4.742983818054199 0.42338037490844727 62.0
      vertex 5.384183883666992 0.2563135623931885 62.0
    endloop
  endfacet
  facet normal -0.13514788448810577 -0.9908254742622375 0.0
    outer loop
      vertex 3.7237932682037354 0.5623972415924072 62.70650100708008
      vertex 3.7237932682037354 0.5623972415924072 62.0
      vertex 4.742983818054199 0.42338037490844727 62.0
    endloop
  endfacet
  facet normal -0.025505447760224342 -0.9996747374534607 0.0
    outer loop
      vertex 2.7046029567718506 0.5884006023406982 62.70650100708008
      vertex 2.7046029567718506 0.5884006023406982 62.0
      vertex 3.7237932682037354 0.5623972415924072 62.0
    endloop
  endfacet
  facet normal 0.01393690425902605 -0.9999029040336609 0.0
    outer loop
      vertex 2.0 0.5785796642303467 62.70650100708008
      vertex 2.0 0.5785796642303467 62.0
      vertex 2.7046029567718506 0.5884006023406982 62.0
    endloop
  endfacet
  facet normal -0.01393690425902605 -0.9999029040336609 0.0
    outer loop
      vertex 1.2953970432281494 0.5884006023406982 62.70650100708008
      vertex 1.2953970432281494 0.5884006023406982 62.0
      vertex 2.0 0.5785796642303467 62.0
    endloop
  endfacet
  facet normal 0.025505447760224342 -0.9996747374534607 0.0
    outer loop
      vertex 0.27620673179626465 0.5623972415924072 62.70650100708008
      vertex 0.27620673179626465 0.5623972415924072 62.0
      vertex 1.2953970432281494 0.5884006023406982 62.0
    endloop
  endfacet
  facet normal 0.13514788448810577 -0.9908254742622375 0.0
    outer loop
      vertex -0.7429838180541992 0.42338037490844727 62.70650100708008
      vertex -0.7429838180541992 0.42338037490844727 62.0
      vertex 0.27620673179626465 0.5623972415924072 62.0
    endloop
  endfacet
  facet normal 0.2521352767944336 -0.9676920175552368 0.0
    outer loop
      vertex -1.3841841220855713 0.2563135623931885 62.70650100708008
      vertex -1.3841841220855713 0.2563135623931885 62.0
      vertex -0.7429838180541992 0.42338037490844727 62.0
    endloop
  endfacet
  facet normal 0.27283546328544617 -0.9620607495307922 0.0
    outer loop
      vertex -2.1056900024414062 0.05169820785522461 62.70650100708008
      vertex -2.1056900024414062 0.05169820785522461 62.0
      vertex -1.3841841220855713 0.2563135623931885 62.0
    endloop
  endfacet
  facet normal 0.3410371243953705 -0.9400497674942017 0.0
    outer loop
      vertex -2.991950035095215 -0.269824743270874 62.70650100708008
      vertex -2.991950035095215 -0.269824743270874 62.0
      vertex -2.1056900024414062 0.05169820785522461 62.0
    endloop
  endfacet
  facet normal 0.40368539094924927 -0.9148978590965271 0.0
    outer loop
      vertex -3.732574939727783 -0.5966147184371948 62.70650100708008
      vertex -3.732574939727783 -0.5966147184371948 62.0
      vertex -2.991950035095215 -0.269824743270874 62.0
    endloop
  endfacet
  facet normal 0.4883212745189667 -0.8726639747619629 0.0
    outer loop
      vertex -4.261322498321533 -0.8924888372421265 62.70650100708008
      vertex -4.261322498321533 -0.8924888372421265 62.0
      vertex -3.732574939727783 -0.5966147184371948 62.0
    endloop
  endfacet
  facet normal 0.5918912887573242 -0.8060178756713867 0.0
    outer loop
      vertex -4.637977123260498 -1.169081449508667 62.70650100708008
      vertex -4.637977123260498 -1.169081449508667 62.0
      vertex -4.261322498321533 -0.8924888372421265 62.0
    endloop
  endfacet
  facet normal 0.7814618945121765 -0.6239529848098755 0.0
    outer loop
      vertex -4.93114709854126 -1.5362584590911865 62.70650100708008
      vertex -4.93114709854126 -1.5362584590911865 62.0
      vertex -4.637977123260498 -1.169081449508667 62.0
    endloop
  endfacet
  facet normal 0.8683236241340637 -0.4959980249404907 0.0
    outer loop
      vertex -5.143609523773193 -1.9082077741622925 62.70650100708008
      vertex -5.143609523773193 -1.9082077741622925 62.0
      vertex -4.93114709854126 -1.5362584590911865 62.0
    endloop
  endfacet
  facet normal 0.967279851436615 -0.253711998462677 0.0
    outer loop
      vertex -5.2345428466796875 -2.254892110824585 62.70650100708008
      vertex -5.2345428466796875 -2.254892110824585 62.0
      vertex -5.143609523773193 -1.9082077741622925 62.0
    endloop
  endfacet
  facet normal 0.9994502663612366 -0.0331551693379879 0.0
    outer loop
      vertex -5.251091957092285 -2.7537589073181152 62.70650100708008
      vertex -5.251091957092285 -2.7537589073181152 62.0
      vertex -5.2345428466796875 -2.254892110824585 62.0
    endloop
  endfacet
  facet normal 0.9999846816062927 -0.005540000274777412 0.0
    outer loop
      vertex -5.2542500495910645 -3.323802947998047 62.70650100708008
      vertex -5.2542500495910645 -3.323802947998047 62.0
      vertex -5.251091957092285 -2.7537589073181152 62.0
    endloop
  endfacet
  facet normal 0.9692915081977844 0.24591462314128876 0.0
    outer loop
      vertex -5.067033290863037 -4.061732292175293 62.70650100708008
      vertex -5.067033290863037 -4.061732292175293 62.0
      vertex -5.2542500495910645 -3.323802947998047 62.0
    endloop
  endfacet
  facet normal 0.8777170181274414 0.4791795015335083 0.0
    outer loop
      vertex -4.694385051727295 -4.744315147399902 62.70650100708008
      vertex -4.694385051727295 -4.744315147399902 62.0
      vertex -5.067033290863037 -4.061732292175293 62.0
    endloop
  endfacet
  facet normal 0.8179783821105957 0.5752490758895874 0.0
    outer loop
      vertex -4.193126201629639 -5.457082748413086 62.70650100708008
      vertex -4.193126201629639 -5.457082748413086 62.0
      vertex -4.694385051727295 -4.744315147399902 62.0
    endloop
  endfacet
  facet normal 0.6679145097732544 0.744238018989563 0.0
    outer loop
      vertex -3.4369711875915527 -6.135692119598389 62.70650100708008
      vertex -3.4369711875915527 -6.135692119598389 62.0
      vertex -4.193126201629639 -5.457082748413086 62.0
    endloop
  endfacet
  facet normal 0.6088627576828003 0.7932755947113037 0.0
    outer loop
      vertex -2.4772586822509766 -6.872300148010254 62.70650100708008
      vertex -2.4772586822509766 -6.872300148010254 62.0
      vertex -3.4369711875915527 -6.135692119598389 62.0
    endloop
  endfacet
  facet normal 0.41591376066207886 0.9094040393829346 0.0
    outer loop
      vertex -1.36995530128479 -7.378722667694092 62.70650100708008
      vertex -1.36995530128479 -7.378722667694092 62.0
      vertex -2.4772586822509766 -6.872300148010254 62.0
    endloop
  endfacet
  facet normal 0.2740439176559448 0.9617172479629517 0.0
    outer loop
      vertex -0.18366694450378418 -7.716758728027344 62.70650100708008
      vertex -0.18366694450378418 -7.716758728027344 62.0
      vertex -1.36995530128479 -7.378722667694092 62.0
    endloop
  endfacet
  facet normal 0.16642718017101288 0.9860537648200989 0.0
    outer loop
      vertex 0.8910888433456421 -7.898157119750977 62.70650100708008
      vertex 0.8910888433456421 -7.898157119750977 62.0
      vertex -0.18366694450378418 -7.716758728027344 62.0
    endloop
  endfacet
  facet normal 0.04630096256732941 0.9989275336265564 0.0
    outer loop
      vertex 1.9999995231628418 -7.94955587387085 62.70650100708008
      vertex 1.9999995231628418 -7.94955587387085 62.0
      vertex 0.8910888433456421 -7.898157119750977 62.0
    endloop
  endfacet
  facet normal -0.04630093276500702 0.9989275932312012 0.0
    outer loop
      vertex 3.1089110374450684 -7.898157119750977 62.70650100708008
      vertex 3.1089110374450684 -7.898157119750977 62.0
      vertex 1.9999995231628418 -7.94955587387085 62.0
    endloop
  endfacet
  facet normal -0.1664271205663681 0.9860537648200989 0.0
    outer loop
      vertex 4.183667182922363 -7.716758728027344 62.70650100708008
      vertex 4.183667182922363 -7.716758728027344 62.0
      vertex 3.1089110374450684 -7.898157119750977 62.0
    endloop
  endfacet
endsolid
