solid mv_perm
  facet normal 0.0032710072118788958 0.0007776813581585884 0.9999943375587463
    outer loop
      vertex 8.719683647155762 -1.9347095489501953 62.70650100708008
      vertex 8.478411674499512 -2.219770669937134 62.70751190185547
      vertex 8.790462493896484 -2.232412576675415 62.70650100708008
    endloop
  endfacet
  facet normal 0.001332063926383853 0.002418783726170659 0.9999961853027344
    outer loop
      vertex 8.456960678100586 -1.790023684501648 62.70650100708008
      vertex 8.478411674499512 -2.219770669937134 62.70751190185547
      vertex 8.719683647155762 -1.9347095489501953 62.70650100708008
    endloop
  endfacet
  facet normal 0.003208169713616371 -0.0007734069367870688 0.9999946355819702
    outer loop
      vertex 8.790462493896484 -2.232412576675415 62.70650100708008
      vertex 8.478411674499512 -2.219770669937134 62.70751190185547
      vertex 8.680337905883789 -2.689220428466797 62.70650100708008
    endloop
  endfacet
  facet normal -0.0018623798387125134 0.0022593310568481684 0.999995768070221
    outer loop
      vertex 8.22150993347168 -1.9841071367263794 62.70650100708008
      vertex 8.478411674499512 -2.219770669937134 62.70751190185547
      vertex 8.456960678100586 -1.790023684501648 62.70650100708008
    endloop
  endfacet
  facet normal -1.9236476873629726e-06 -0.0021541835740208626 0.9999976754188538
    outer loop
      vertex 8.680337905883789 -2.689220428466797 62.70650100708008
      vertex 8.478411674499512 -2.219770669937134 62.70751190185547
      vertex 8.003255844116211 -2.6886157989501953 62.70650100708008
    endloop
  endfacet
  facet normal -0.0030641432385891676 0.0009492598474025726 0.9999948740005493
    outer loop
      vertex 8.22150993347168 -1.9841071367263794 62.70650100708008
      vertex 8.003255844116211 -2.6886157989501953 62.70650100708008
      vertex 8.478411674499512 -2.219770669937134 62.70751190185547
    endloop
  endfacet
  facet normal 0.0 0.0 1.0
    outer loop
      vertex 8.680337905883789 -2.689220428466797 62.70650100708008
      vertex 8.003255844116211 -2.6886157989501953 62.70650100708008
      vertex 8.420308113098145 -3.1285293102264404 62.70650100708008
    endloop
  endfacet
  facet normal 0.0 0.0 1.0
    outer loop
      vertex 8.003255844116211 -2.6886157989501953 62.70650100708008
      vertex 7.575969696044922 -3.391479730606079 62.70650100708008
      vertex 8.420308113098145 -3.1285293102264404 62.70650100708008
    endloop
  endfacet
  facet normal 0.0 0.0 1.0
    outer loop
      vertex 8.420308113098145 -3.1285293102264404 62.70650100708008
      vertex 7.575969696044922 -3.391479730606079 62.70650100708008
      vertex 7.958540916442871 -3.9411568641662598 62.70650100708008
    endloop
  endfacet
  facet normal 0.0 0.0 1.0
    outer loop
      vertex 7.575969696044922 -3.391479730606079 62.70650100708008
      vertex 6.944950580596924 -4.086702823638916 62.70650100708008
      vertex 7.958540916442871 -3.9411568641662598 62.70650100708008
    endloop
  endfacet
  facet normal 0.0 0.0 1.0
    outer loop
      vertex 7.958540916442871 -3.9411568641662598 62.70650100708008
      vertex 6.944950580596924 -4.086702823638916 62.70650100708008
      vertex 7.0904974937438965 -4.618673324584961 62.70650100708008
    endloop
  endfacet
  facet normal 0.0 0.0 1.0
    outer loop
      vertex 6.944950580596924 -4.086702823638916 62.70650100708008
      vertex 6.080764293670654 -4.586811542510986 62.70650100708008
      vertex 7.0904974937438965 -4.618673324584961 62.70650100708008
    endloop
  endfacet
  facet normal 0.0 0.0 1.0
    outer loop
      vertex 7.0904974937438965 -4.618673324584961 62.70650100708008
      vertex 6.080764293670654 -4.586811542510986 62.70650100708008
      vertex 6.154219627380371 -5.252039909362793 62.70650100708008
    endloop
  endfacet
  facet normal 0.0 0.0 1.0
    outer loop
      vertex 6.080764293670654 -4.586811542510986 62.70650100708008
      vertex 5.128256797790527 -4.953149318695068 62.70650100708008
      vertex 6.154219627380371 -5.252039909362793 62.70650100708008
    endloop
  endfacet
  facet normal 0.0 0.0 1.0
    outer loop
      vertex 6.154219627380371 -5.252039909362793 62.70650100708008
      vertex 5.128256797790527 -4.953149318695068 62.70650100708008
      vertex 5.229793548583984 -5.705687522888184 62.70650100708008
    endloop
  endfacet
  facet normal 0.0 0.0 1.0
    outer loop
      vertex 5.128256797790527 -4.953149318695068 62.70650100708008
      vertex 4.117769241333008 -5.20815896987915 62.70650100708008
      vertex 5.229793548583984 -5.705687522888184 62.70650100708008
    endloop
  endfacet
  facet normal 0.0 0.0 1.0
    outer loop
      vertex 5.229793548583984 -5.705687522888184 62.70650100708008
      vertex 4.117769241333008 -5.20815896987915 62.70650100708008
      vertex 4.045014381408691 -5.931713581085205 62.70650100708008
    endloop
  endfacet
  facet normal 0.0 0.0 1.0
    outer loop
      vertex 4.117769241333008 -5.20815896987915 62.70650100708008
      vertex 3.0666327476501465 -5.359641075134277 62.70650100708008
      vertex 4.045014381408691 -5.931713581085205 62.70650100708008
    endloop
  endfacet
  facet normal 0.0 0.0 1.0
    outer loop
      vertex 4.045014381408691 -5.931713581085205 62.70650100708008
      vertex 3.0666327476501465 -5.359641075134277 62.70650100708008
      vertex 2.879239559173584 -6.023646831512451 62.70650100708008
    endloop
  endfacet
  facet normal 0.0 0.0 1.0
    outer loop
      vertex 3.0666327476501465 -5.359641075134277 62.70650100708008
      vertex 2.0 -5.409379005432129 62.70650100708008
      vertex 2.879239559173584 -6.023646831512451 62.70650100708008
    endloop
  endfacet
  facet normal 0.0 0.0 1.0
    outer loop
      vertex 2.879239559173584 -6.023646831512451 62.70650100708008
      vertex 2.0 -5.409379005432129 62.70650100708008
      vertex 2.0 -6.045982837677002 62.70650100708008
    endloop
  endfacet
  facet normal -0.003271002322435379 0.0007776854909025133 0.9999943375587463
    outer loop
      vertex -4.719683647155762 -1.9347095489501953 62.70650100708008
      vertex -4.790462970733643 -2.232412576675415 62.70650100708008
      vertex -4.478411674499512 -2.219770669937134 62.70751190185547
    endloop
  endfacet
  facet normal -0.0013320656726136804 0.002418782329186797 0.9999962449073792
    outer loop
      vertex -4.456961154937744 -1.790023684501648 62.70650100708008
      vertex -4.719683647155762 -1.9347095489501953 62.70650100708008
      vertex -4.478411674499512 -2.219770669937134 62.70751190185547
    endloop
  endfacet
  facet normal -0.0032081645913422108 -0.0007734057726338506 0.9999946355819702
    outer loop
      vertex -4.790462970733643 -2.232412576675415 62.70650100708008
      vertex -4.680338382720947 -2.689220428466797 62.70650100708008
      vertex -4.478411674499512 -2.219770669937134 62.70751190185547
    endloop
  endfacet
  facet normal 0.0018623777432367206 0.0022593329194933176 0.9999957084655762
    outer loop
      vertex -4.22150993347168 -1.9841071367263794 62.70650100708008
      vertex -4.456961154937744 -1.790023684501648 62.70650100708008
      vertex -4.478411674499512 -2.219770669937134 62.70751190185547
    endloop
  endfacet
  facet normal 1.9236681509937625e-06 -0.0021541835740208626 0.9999977350234985
    outer loop
      vertex -4.680338382720947 -2.689220428466797 62.70650100708008
      vertex -4.003255367279053 -2.6886157989501953 62.70650100708008
      vertex -4.478411674499512 -2.219770669937134 62.70751190185547
    endloop
  endfacet
  facet normal 0.0030641418416053057 0.0009492614190094173 0.9999949336051941
    outer loop
      vertex -4.22150993347168 -1.9841071367263794 62.70650100708008
      vertex -4.478411674499512 -2.219770669937134 62.70751190185547
      vertex -4.003255367279053 -2.6886157989501953 62.70650100708008
    endloop
  endfacet
  facet normal 0.0 0.0 1.0
    outer loop
      vertex -4.680338382720947 -2.689220428466797 62.70650100708008
      vertex -4.4203081130981445 -3.1285293102264404 62.70650100708008
      vertex -4.003255367279053 -2.6886157989501953 62.70650100708008
    endloop
  endfacet
  facet normal 0.0 0.0 1.0
    outer loop
      vertex -4.003255367279053 -2.6886157989501953 62.70650100708008
      vertex -4.4203081130981445 -3.1285293102264404 62.70650100708008
      vertex -3.575969696044922 -3.391479730606079 62.70650100708008
    endloop
  endfacet
  facet normal 0.0 0.0 1.0
    outer loop
      vertex -4.4203081130981445 -3.1285293102264404 62.70650100708008
      vertex -3.958540916442871 -3.9411568641662598 62.70650100708008
      vertex -3.575969696044922 -3.391479730606079 62.70650100708008
    endloop
  endfacet
  facet normal 0.0 0.0 1.0
    outer loop
      vertex -3.575969696044922 -3.391479730606079 62.70650100708008
      vertex -3.958540916442871 -3.9411568641662598 62.70650100708008
      vertex -2.944950580596924 -4.086702823638916 62.70650100708008
    endloop
  endfacet
  facet normal 0.0 0.0 1.0
    outer loop
      vertex -3.958540916442871 -3.9411568641662598 62.70650100708008
      vertex -3.0904974937438965 -4.618673324584961 62.70650100708008
      vertex -2.944950580596924 -4.086702823638916 62.70650100708008
    endloop
  endfacet
  facet normal 0.0 0.0 1.0
    outer loop
      vertex -2.944950580596924 -4.086702823638916 62.70650100708008
      vertex -3.0904974937438965 -4.618673324584961 62.70650100708008
      vertex -2.0807642936706543 -4.586811542510986 62.70650100708008
    endloop
  endfacet
  facet normal 0.0 0.0 1.0
    outer loop
      vertex -3.0904974937438965 -4.618673324584961 62.70650100708008
      vertex -2.154219627380371 -5.252039909362793 62.70650100708008
      vertex -2.0807642936706543 -4.586811542510986 62.70650100708008
    endloop
  endfacet
  facet normal 0.0 0.0 1.0
    outer loop
      vertex -2.0807642936706543 -4.586811542510986 62.70650100708008
      vertex -2.154219627380371 -5.252039909362793 62.70650100708008
      vertex -1.1282567977905273 -4.953149318695068 62.70650100708008
    endloop
  endfacet
  facet normal 0.0 0.0 1.0
    outer loop
      vertex -2.154219627380371 -5.252039909362793 62.70650100708008
      vertex -1.2297933101654053 -5.705687522888184 62.70650100708008
      vertex -1.1282567977905273 -4.953149318695068 62.70650100708008
    endloop
  endfacet
  facet normal 0.0 0.0 1.0
    outer loop
      vertex -1.1282567977905273 -4.953149318695068 62.70650100708008
      vertex -1.2297933101654053 -5.705687522888184 62.70650100708008
      vertex -0.11776947975158691 -5.20815896987915 62.70650100708008
    endloop
  endfacet
  facet normal 0.0 0.0 1.0
    outer loop
      vertex -1.2297933101654053 -5.705687522888184 62.70650100708008
      vertex -0.04501461982727051 -5.931713581085205 62.70650100708008
      vertex -0.11776947975158691 -5.20815896987915 62.70650100708008
    endloop
  endfacet
  facet normal 0.0 0.0 1.0
    outer loop
      vertex -0.11776947975158691 -5.20815896987915 62.70650100708008
      vertex -0.04501461982727051 -5.931713581085205 62.70650100708008
      vertex 0.933367133140564 -5.359641075134277 62.70650100708008
    endloop
  endfacet
  facet normal 0.0 0.0 1.0
    outer loop
      vertex -0.04501461982727051 -5.931713581085205 62.70650100708008
      vertex 1.1207603216171265 -6.023646831512451 62.70650100708008
      vertex 0.933367133140564 -5.359641075134277 62.70650100708008
    endloop
  endfacet
  facet normal 0.0 0.0 1.0
    outer loop
      vertex 0.933367133140564 -5.359641075134277 62.70650100708008
      vertex 1.1207603216171265 -6.023646831512451 62.70650100708008
      vertex 2.0 -5.409379005432129 62.70650100708008
    endloop
  endfacet
  facet normal 0.0 0.0 1.0
    outer loop
      vertex 1.1207603216171265 -6.023646831512451 62.70650100708008
      vertex 2.0 -6.045982837677002 62.70650100708008
      vertex 2.0 -5.409379005432129 62.70650100708008
    endloop
  endfacet
  facet normal -0.35896944999694824 0.9333493113517761 0.0
    outer loop
      vertex 5.128256797790527 -4.953149318695068 62.0
      vertex 5.128256797790527 -4.953149318695068 62.70650100708008
      vertex 6.080764293670654 -4.586811542510986 62.70650100708008
    endloop
  endfacet
  facet normal -0.5008789896965027 0.8655173778533936 0.0
    outer loop
      vertex 6.080764293670654 -4.586811542510986 62.0
      vertex 6.080764293670654 -4.586811542510986 62.70650100708008
      vertex 6.944950580596924 -4.086702823638916 62.70650100708008
    endloop
  endfacet
  facet normal -0.7404709458351135 0.6720883846282959 0.0
    outer loop
      vertex 6.944950580596924 -4.086702823638916 62.0
      vertex 6.944950580596924 -4.086702823638916 62.70650100708008
      vertex 7.575969696044922 -3.391479730606079 62.70650100708008
    endloop
  endfacet
  facet normal -0.8544921875 0.5194642543792725 0.0
    outer loop
      vertex 7.575969696044922 -3.391479730606079 62.0
      vertex 7.575969696044922 -3.391479730606079 62.70650100708008
      vertex 8.003255844116211 -2.6886157989501953 62.70650100708008
    endloop
  endfacet
  facet normal -0.955212414264679 0.2959211766719818 0.0
    outer loop
      vertex 8.003255844116211 -2.6886157989501953 62.0
      vertex 8.003255844116211 -2.6886157989501953 62.70650100708008
      vertex 8.22150993347168 -1.9841071367263794 62.70650100708008
    endloop
  endfacet
  facet normal -0.6360642313957214 0.7716361284255981 0.0
    outer loop
      vertex 8.22150993347168 -1.9841071367263794 62.0
      vertex 8.22150993347168 -1.9841071367263794 62.70650100708008
      vertex 8.456960678100586 -1.790023684501648 62.70650100708008
    endloop
  endfacet
  facet normal 0.482400506734848 0.8759508728981018 0.0
    outer loop
      vertex 8.456960678100586 -1.790023684501648 62.0
      vertex 8.456960678100586 -1.790023684501648 62.70650100708008
      vertex 8.719683647155762 -1.9347095489501953 62.70650100708008
    endloop
  endfacet
  facet normal 0.9728819131851196 0.23130251467227936 0.0
    outer loop
      vertex 8.719683647155762 -1.9347095489501953 62.0
      vertex 8.719683647155762 -1.9347095489501953 62.70650100708008
      vertex 8.790462493896484 -2.232412576675415 62.70650100708008
    endloop
  endfacet
  facet normal 0.9721498489379883 -0.2343602478504181 0.0
    outer loop
      vertex 8.790462493896484 -2.232412576675415 62.0
      vertex 8.790462493896484 -2.232412576675415 62.70650100708008
      vertex 8.680337905883789 -2.689220428466797 62.70650100708008
    endloop
  endfacet
  facet normal 0.8605504035949707 -0.5093653798103333 0.0
    outer loop
      vertex 8.680337905883789 -2.689220428466797 62.0
      vertex 8.680337905883789 -2.689220428466797 62.70650100708008
      vertex 8.420308113098145 -3.1285293102264404 62.70650100708008
    endloop
  endfacet
  facet normal 0.8694349527359009 -0.4940474331378937 0.0
    outer loop
      vertex 8.420308113098145 -3.1285293102264404 62.0
      vertex 8.420308113098145 -3.1285293102264404 62.70650100708008
      vertex 7.958540916442871 -3.9411568641662598 62.70650100708008
    endloop
  endfacet
  facet normal 0.6152817010879517 -0.7883074283599854 0.0
    outer loop
      vertex 7.958540916442871 -3.9411568641662598 62.0
      vertex 7.958540916442871 -3.9411568641662598 62.70650100708008
      vertex 7.0904974937438965 -4.618673324584961 62.70650100708008
    endloop
  endfacet
  facet normal 0.5603106617927551 -0.8282825350761414 0.0
    outer loop
      vertex 7.0904974937438965 -4.618673324584961 62.0
      vertex 7.0904974937438965 -4.618673324584961 62.70650100708008
      vertex 6.154219627380371 -5.252039909362793 62.70650100708008
    endloop
  endfacet
  facet normal 0.44054678082466125 -0.8977296948432922 0.0
    outer loop
      vertex 6.154219627380371 -5.252039909362793 62.0
      vertex 6.154219627380371 -5.252039909362793 62.70650100708008
      vertex 5.229793548583984 -5.705687522888184 62.70650100708008
    endloop
  endfacet
  facet normal 0.18739518523216248 -0.9822846055030823 0.0
    outer loop
      vertex 5.229793548583984 -5.705687522888184 62.0
      vertex 5.229793548583984 -5.705687522888184 62.70650100708008
      vertex 4.045014381408691 -5.931713581085205 62.70650100708008
    endloop
  endfacet
  facet normal 0.07861614227294922 -0.9969049692153931 0.0
    outer loop
      vertex 4.045014381408691 -5.931713581085205 62.0
      vertex 4.045014381408691 -5.931713581085205 62.70650100708008
      vertex 2.879239559173584 -6.023646831512451 62.70650100708008
    endloop
  endfacet
  facet normal 0.02539558708667755 -0.9996775388717651 0.0
    outer loop
      vertex 2.879239559173584 -6.023646831512451 62.0
      vertex 2.879239559173584 -6.023646831512451 62.70650100708008
      vertex 2.0 -6.045982837677002 62.70650100708008
    endloop
  endfacet
  facet normal -0.025395583361387253 -0.9996775388717651 0.0
    outer loop
      vertex 2.0 -6.045982837677002 62.0
      vertex 2.0 -6.045982837677002 62.70650100708008
      vertex 1.1207603216171265 -6.023646831512451 62.70650100708008
    endloop
  endfacet
  facet normal -0.07861613482236862 -0.9969049692153931 0.0
    outer loop
      vertex 1.1207603216171265 -6.023646831512451 62.0
      vertex 1.1207603216171265 -6.023646831512451 62.70650100708008
      vertex -0.04501461982727051 -5.931713581085205 62.70650100708008
    endloop
  endfacet
  facet normal -0.18739525973796844 -0.9822846055030823 0.0
    outer loop
      vertex -0.04501461982727051 -5.931713581085205 62.0
      vertex -0.04501461982727051 -5.931713581085205 62.70650100708008
      vertex -1.2297933101654053 -5.705687522888184 62.70650100708008
    endloop
  endfacet
  facet normal -0.4405466616153717 -0.8977296948432922 0.0
    outer loop
      vertex -1.2297933101654053 -5.705687522888184 62.0
      vertex -1.2297933101654053 -5.705687522888184 62.70650100708008
      vertex -2.154219627380371 -5.252039909362793 62.70650100708008
    endloop
  endfacet
  facet normal -0.5603106617927551 -0.8282825350761414 0.0
    outer loop
      vertex -2.154219627380371 -5.252039909362793 62.0
      vertex -2.154219627380371 -5.252039909362793 62.70650100708008
      vertex -3.0904974937438965 -4.618673324584961 62.70650100708008
    endloop
  endfacet
  facet normal -0.6152817010879517 -0.7883074283599854 0.0
    outer loop
      vertex -3.0904974937438965 -4.618673324584961 62.0
      vertex -3.0904974937438965 -4.618673324584961 62.70650100708008
      vertex -3.958540916442871 -3.9411568641662598 62.70650100708008
    endloop
  endfacet
  facet normal -0.8694349527359009 -0.4940474331378937 0.0
    outer loop
      vertex -3.958540916442871 -3.9411568641662598 62.0
      vertex -3.958540916442871 -3.9411568641662598 62.70650100708008
      vertex -4.4203081130981445 -3.1285293102264404 62.70650100708008
    endloop
  endfacet
  facet normal -0.8605499863624573 -0.5093660950660706 0.0
    outer loop
      vertex -4.4203081130981445 -3.1285293102264404 62.0
      vertex -4.4203081130981445 -3.1285293102264404 62.70650100708008
      vertex -4.680338382720947 -2.689220428466797 62.70650100708008
    endloop
  endfacet
  facet normal -0.9721498489379883 -0.2343602478504181 0.0
    outer loop
      vertex -4.680338382720947 -2.689220428466797 62.0
      vertex -4.680338382720947 -2.689220428466797 62.70650100708008
      vertex -4.790462970733643 -2.232412576675415 62.70650100708008
    endloop
  endfacet
  facet normal -0.9728816151618958 0.23130400478839874 0.0
    outer loop
      vertex -4.790462970733643 -2.232412576675415 62.0
      vertex -4.790462970733643 -2.232412576675415 62.70650100708008
      vertex -4.719683647155762 -1.9347095489501953 62.70650100708008
    endloop
  endfacet
  facet normal -0.48240119218826294 0.8759504556655884 0.0
    outer loop
      vertex -4.719683647155762 -1.9347095489501953 62.0
      vertex -4.719683647155762 -1.9347095489501953 62.70650100708008
      vertex -4.456961154937744 -1.790023684501648 62.70650100708008
    endloop
  endfacet
  facet normal 0.6360634565353394 0.7716366648674011 0.0
    outer loop
      vertex -4.456961154937744 -1.790023684501648 62.0
      vertex -4.456961154937744 -1.790023684501648 62.70650100708008
      vertex -4.22150993347168 -1.9841071367263794 62.70650100708008
    endloop
  endfacet
  facet normal 0.9552121758460999 0.2959217429161072 0.0
    outer loop
      vertex -4.22150993347168 -1.9841071367263794 62.0
      vertex -4.22150993347168 -1.9841071367263794 62.70650100708008
      vertex -4.003255367279053 -2.6886157989501953 62.70650100708008
    endloop
  endfacet
  facet normal 0.8544924259185791 0.519463837146759 0.0
    outer loop
      vertex -4.003255367279053 -2.6886157989501953 62.0
      vertex -4.003255367279053 -2.6886157989501953 62.70650100708008
      vertex -3.575969696044922 -3.391479730606079 62.70650100708008
    endloop
  endfacet
  facet normal 0.7404709458351135 0.6720883846282959 0.0
    outer loop
      vertex -3.575969696044922 -3.391479730606079 62.0
      vertex -3.575969696044922 -3.391479730606079 62.70650100708008
      vertex -2.944950580596924 -4.086702823638916 62.70650100708008
    endloop
  endfacet
  facet normal 0.5008789896965027 0.8655173778533936 0.0
    outer loop
      vertex -2.944950580596924 -4.086702823638916 62.0
      vertex -2.944950580596924 -4.086702823638916 62.70650100708008
      vertex -2.0807642936706543 -4.586811542510986 62.70650100708008
    endloop
  endfacet
  facet normal 0.35896944999694824 0.9333493113517761 0.0
    outer loop
      vertex -2.0807642936706543 -4.586811542510986 62.0
      vertex -2.0807642936706543 -4.586811542510986 62.70650100708008
      vertex -1.1282567977905273 -4.953149318695068 62.70650100708008
    endloop
  endfacet
  facet normal 0.24469146132469177 0.9696009755134583 0.0
    outer loop
      vertex -1.1282567977905273 -4.953149318695068 62.0
      vertex -1.1282567977905273 -4.953149318695068 62.70650100708008
      vertex -0.11776947975158691 -5.20815896987915 62.70650100708008
    endloop
  endfacet
  facet normal 0.14263910055160522 0.989774763584137 0.0
    outer loop
      vertex -0.11776947975158691 -5.20815896987915 62.0
      vertex -0.11776947975158691 -5.20815896987915 62.70650100708008
      vertex 0.933367133140564 -5.359641075134277 62.70650100708008
    endloop
  endfacet
  facet normal 0.04658017307519913 0.9989145398139954 0.0
    outer loop
      vertex 0.933367133140564 -5.359641075134277 62.0
      vertex 0.933367133140564 -5.359641075134277 62.70650100708008
      vertex 2.0 -5.409379005432129 62.70650100708008
    endloop
  endfacet
  facet normal -0.046580176800489426 0.9989145398139954 0.0
    outer loop
      vertex 2.0 -5.409379005432129 62.0
      vertex 2.0 -5.409379005432129 62.70650100708008
      vertex 3.0666327476501465 -5.359641075134277 62.70650100708008
    endloop
  endfacet
  facet normal -0.14263911545276642 0.989774763584137 0.0
    outer loop
      vertex 3.0666327476501465 -5.359641075134277 62.0
      vertex 3.0666327476501465 -5.359641075134277 62.70650100708008
      vertex 4.117769241333008 -5.20815896987915 62.70650100708008
    endloop
  endfacet
  facet normal -0.24469143152236938 0.9696010947227478 0.0
    outer loop
      vertex 4.117769241333008 -5.20815896987915 62.0
      vertex 4.117769241333008 -5.20815896987915 62.70650100708008
      vertex 5.128256797790527 -4.953149318695068 62.70650100708008
    endloop
  endfacet
  facet normal -0.35896944999694824 0.9333493113517761 0.0
    outer loop
      vertex 5.128256797790527 -4.953149318695068 62.0
      vertex 6.080764293670654 -4.586811542510986 62.70650100708008
      vertex 6.080764293670654 -4.586811542510986 62.0
    endloop
  endfacet
  facet normal -0.5008789896965027 0.8655173778533936 0.0
    outer loop
      vertex 6.080764293670654 -4.586811542510986 62.0
      vertex 6.944950580596924 -4.086702823638916 62.70650100708008
      vertex 6.944950580596924 -4.086702823638916 62.0
    endloop
  endfacet
  facet normal -0.7404709458351135 0.6720883846282959 0.0
    outer loop
      vertex 6.944950580596924 -4.086702823638916 62.0
      vertex 7.575969696044922 -3.391479730606079 62.70650100708008
      vertex 7.575969696044922 -3.391479730606079 62.0
    endloop
  endfacet
  facet normal -0.8544921875 0.5194642543792725 0.0
    outer loop
      vertex 7.575969696044922 -3.391479730606079 62.0
      vertex 8.003255844116211 -2.6886157989501953 62.70650100708008
      vertex 8.003255844116211 -2.6886157989501953 62.0
    endloop
  endfacet
  facet normal -0.955212414264679 0.2959211766719818 0.0
    outer loop
      vertex 8.003255844116211 -2.6886157989501953 62.0
      vertex 8.22150993347168 -1.9841071367263794 62.70650100708008
      vertex 8.22150993347168 -1.9841071367263794 62.0
    endloop
  endfacet
  facet normal -0.6360642313957214 0.7716361284255981 0.0
    outer loop
      vertex 8.22150993347168 -1.9841071367263794 62.0
      vertex 8.456960678100586 -1.790023684501648 62.70650100708008
      vertex 8.456960678100586 -1.790023684501648 62.0
    endloop
  endfacet
  facet normal 0.482400506734848 0.8759508728981018 0.0
    outer loop
      vertex 8.456960678100586 -1.790023684501648 62.0
      vertex 8.719683647155762 -1.9347095489501953 62.70650100708008
      vertex 8.719683647155762 -1.9347095489501953 62.0
    endloop
  endfacet
  facet normal 0.9728819131851196 0.23130251467227936 0.0
    outer loop
      vertex 8.719683647155762 -1.9347095489501953 62.0
      vertex 8.790462493896484 -2.232412576675415 62.70650100708008
      vertex 8.790462493896484 -2.232412576675415 62.0
    endloop
  endfacet
  facet normal 0.9721498489379883 -0.2343602478504181 0.0
    outer loop
      vertex 8.790462493896484 -2.232412576675415 62.0
      vertex 8.680337905883789 -2.689220428466797 62.70650100708008
      vertex 8.680337905883789 -2.689220428466797 62.0
    endloop
  endfacet
  facet normal 0.8605504035949707 -0.5093653798103333 0.0
    outer loop
      vertex 8.680337905883789 -2.689220428466797 62.0
      vertex 8.420308113098145 -3.1285293102264404 62.70650100708008
      vertex 8.420308113098145 -3.1285293102264404 62.0
    endloop
  endfacet
  facet normal 0.8694349527359009 -0.4940474331378937 0.0
    outer loop
      vertex 8.420308113098145 -3.1285293102264404 62.0
      vertex 7.958540916442871 -3.9411568641662598 62.70650100708008
      vertex 7.958540916442871 -3.9411568641662598 62.0
    endloop
  endfacet
  facet normal 0.6152817010879517 -0.7883074283599854 0.0
    outer loop
      vertex 7.958540916442871 -3.9411568641662598 62.0
      vertex 7.0904974937438965 -4.618673324584961 62.70650100708008
      vertex 7.0904974937438965 -4.618673324584961 62.0
    endloop
  endfacet
  facet normal 0.5603106617927551 -0.8282825350761414 0.0
    outer loop
      vertex 7.0904974937438965 -4.618673324584961 62.0
      vertex 6.154219627380371 -5.252039909362793 62.70650100708008
      vertex 6.154219627380371 -5.252039909362793 62.0
    endloop
  endfacet
  facet normal 0.44054678082466125 -0.8977296948432922 0.0
    outer loop
      vertex 6.154219627380371 -5.252039909362793 62.0
      vertex 5.229793548583984 -5.705687522888184 62.70650100708008
      vertex 5.229793548583984 -5.705687522888184 62.0
    endloop
  endfacet
  facet normal 0.18739518523216248 -0.9822846055030823 0.0
    outer loop
      vertex 5.229793548583984 -5.705687522888184 62.0
      vertex 4.045014381408691 -5.931713581085205 62.70650100708008
      vertex 4.045014381408691 -5.931713581085205 62.0
    endloop
  endfacet
  facet normal 0.07861614227294922 -0.9969049692153931 0.0
    outer loop
      vertex 4.045014381408691 -5.931713581085205 62.0
      vertex 2.879239559173584 -6.023646831512451 62.70650100708008
      vertex 2.879239559173584 -6.023646831512451 62.0
    endloop
  endfacet
  facet normal 0.02539558708667755 -0.9996775388717651 0.0
    outer loop
      vertex 2.879239559173584 -6.023646831512451 62.0
      vertex 2.0 -6.045982837677002 62.70650100708008
      vertex 2.0 -6.045982837677002 62.0
    endloop
  endfacet
  facet normal -0.025395583361387253 -0.9996775388717651 0.0
    outer loop
      vertex 2.0 -6.045982837677002 62.0
      vertex 1.1207603216171265 -6.023646831512451 62.70650100708008
      vertex 1.1207603216171265 -6.023646831512451 62.0
    endloop
  endfacet
  facet normal -0.07861613482236862 -0.9969049692153931 0.0
    outer loop
      vertex 1.1207603216171265 -6.023646831512451 62.0
      vertex -0.04501461982727051 -5.931713581085205 62.70650100708008
      vertex -0.04501461982727051 -5.931713581085205 62.0
    endloop
  endfacet
  facet normal -0.18739525973796844 -0.9822846055030823 0.0
    outer loop
      vertex -0.04501461982727051 -5.931713581085205 62.0
      vertex -1.2297933101654053 -5.705687522888184 62.70650100708008
      vertex -1.2297933101654053 -5.705687522888184 62.0
    endloop
  endfacet
  facet normal -0.4405466616153717 -0.8977296948432922 0.0
    outer loop
      vertex -1.2297933101654053 -5.705687522888184 62.0
      vertex -2.154219627380371 -5.252039909362793 62.70650100708008
      vertex -2.154219627380371 -5.252039909362793 62.0
    endloop
  endfacet
  facet normal -0.5603106617927551 -0.8282825350761414 0.0
    outer loop
      vertex -2.154219627380371 -5.252039909362793 62.0
      vertex -3.0904974937438965 -4.618673324584961 62.70650100708008
      vertex -3.0904974937438965 -4.618673324584961 62.0
    endloop
  endfacet
  facet normal -0.6152817010879517 -0.7883074283599854 0.0
    outer loop
      vertex -3.0904974937438965 -4.618673324584961 62.0
      vertex -3.958540916442871 -3.9411568641662598 62.70650100708008
      vertex -3.958540916442871 -3.9411568641662598 62.0
    endloop
  endfacet
  facet normal -0.8694349527359009 -0.4940474331378937 0.0
    outer loop
      vertex -3.958540916442871 -3.9411568641662598 62.0
      vertex -4.4203081130981445 -3.1285293102264404 62.70650100708008
      vertex -4.4203081130981445 -3.1285293102264404 62.0
    endloop
  endfacet
  facet normal -0.8605499863624573 -0.5093660950660706 0.0
    outer loop
      vertex -4.4203081130981445 -3.1285293102264404 62.0
      vertex -4.680338382720947 -2.689220428466797 62.70650100708008
      vertex -4.680338382720947 -2.689220428466797 62.0
    endloop
  endfacet
  facet normal -0.9721498489379883 -0.2343602478504181 0.0
    outer loop
      vertex -4.680338382720947 -2.689220428466797 62.0
      vertex -4.790462970733643 -2.232412576675415 62.70650100708008
      vertex -4.790462970733643 -2.232412576675415 62.0
    endloop
  endfacet
  facet normal -0.9728816151618958 0.23130400478839874 0.0
    outer loop
      vertex -4.790462970733643 -2.232412576675415 62.0
      vertex -4.719683647155762 -1.9347095489501953 62.70650100708008
      vertex -4.719683647155762 -1.9347095489501953 62.0
    endloop
  endfacet
  facet normal -0.48240119218826294 0.8759504556655884 0.0
    outer loop
      vertex -4.719683647155762 -1.9347095489501953 62.0
      vertex -4.456961154937744 -1.790023684501648 62.70650100708008
      vertex -4.456961154937744 -1.790023684501648 62.0
    endloop
  endfacet
  facet normal 0.6360634565353394 0.7716366648674011 0.0
    outer loop
      vertex -4.456961154937744 -1.790023684501648 62.0
      vertex -4.22150993347168 -1.9841071367263794 62.70650100708008
      vertex -4.22150993347168 -1.9841071367263794 62.0
    endloop
  endfacet
  facet normal 0.9552121758460999 0.2959217429161072 0.0
    outer loop
      vertex -4.22150993347168 -1.9841071367263794 62.0
      vertex -4.003255367279053 -2.6886157989501953 62.70650100708008
      vertex -4.003255367279053 -2.6886157989501953 62.0
    endloop
  endfacet
  facet normal 0.8544924259185791 0.519463837146759 0.0
    outer loop
      vertex -4.003255367279053 -2.6886157989501953 62.0
      vertex -3.575969696044922 -3.391479730606079 62.70650100708008
      vertex -3.575969696044922 -3.391479730606079 62.0
    endloop
  endfacet
  facet normal 0.7404709458351135 0.6720883846282959 0.0
    outer loop
      vertex -3.575969696044922 -3.391479730606079 62.0
      vertex -2.944950580596924 -4.086702823638916 62.70650100708008
      vertex -2.944950580596924 -4.086702823638916 62.0
    endloop
  endfacet
  facet normal 0.5008789896965027 0.8655173778533936 0.0
    outer loop
      vertex -2.944950580596924 -4.086702823638916 62.0
      vertex -2.0807642936706543 -4.586811542510986 62.70650100708008
      vertex -2.0807642936706543 -4.586811542510986 62.0
    endloop
  endfacet
  facet normal 0.35896944999694824 0.9333493113517761 0.0
    outer loop
      vertex -2.0807642936706543 -4.586811542510986 62.0
      vertex -1.1282567977905273 -4.953149318695068 62.70650100708008
      vertex -1.1282567977905273 -4.953149318695068 62.0
    endloop
  endfacet
  facet normal 0.24469146132469177 0.9696009755134583 0.0
    outer loop
      vertex -1.1282567977905273 -4.953149318695068 62.0
      vertex -0.11776947975158691 -5.20815896987915 62.70650100708008
      vertex -0.11776947975158691 -5.20815896987915 62.0
    endloop
  endfacet
  facet normal 0.14263910055160522 0.989774763584137 0.0
    outer loop
      vertex -0.11776947975158691 -5.20815896987915 62.0
      vertex 0.933367133140564 -5.359641075134277 62.70650100708008
      vertex 0.933367133140564 -5.359641075134277 62.0
    endloop
  endfacet
  facet normal 0.04658017307519913 0.9989145398139954 0.0
    outer loop
      vertex 0.933367133140564 -5.359641075134277 62.0
      vertex 2.0 -5.409379005432129 62.70650100708008
      vertex 2.0 -5.409379005432129 62.0
    endloop
  endfacet
  facet normal -0.046580176800489426 0.9989145398139954 0.0
    outer loop
      vertex 2.0 -5.409379005432129 62.0
      vertex 3.0666327476501465 -5.359641075134277 62.70650100708008
      vertex 3.0666327476501465 -5.359641075134277 62.0
    endloop
  endfacet
  facet normal -0.14263911545276642 0.989774763584137 0.0
    outer loop
      vertex 3.0666327476501465 -5.359641075134277 62.0
      vertex 4.117769241333008 -5.20815896987915 62.70650100708008
      vertex 4.117769241333008 -5.20815896987915 62.0
    endloop
  endfacet
  facet normal -0.24469143152236938 0.9696010947227478 0.0
    outer loop
      vertex 4.117769241333008 -5.20815896987915 62.0
      vertex 5.128256797790527 -4.953149318695068 62.70650100708008
      vertex 5.128256797790527 -4.953149318695068 62.0
    endloop
  endfacet
  facet normal -0.0032710072118788958 -0.0007776813581585884 -0.9999943375587463
    outer loop
      vertex 8.719683647155762 -1.9347095489501953 62.0
      vertex 8.790462493896484 -2.232412576675415 62.0
      vertex 8.478411674499512 -2.219770669937134 62.00101089477539
    endloop
  endfacet
  facet normal -0.0013320640427991748 -0.002418783726170659 -0.9999961853027344
    outer loop
      vertex 8.456960678100586 -1.790023684501648 62.0
      vertex 8.719683647155762 -1.9347095489501953 62.0
      vertex 8.478411674499512 -2.219770669937134 62.00101089477539
    endloop
  endfacet
  facet normal -0.003208169713616371 0.0007734069949947298 -0.9999946355819702
    outer loop
      vertex 8.790462493896484 -2.232412576675415 62.0
      vertex 8.680337905883789 -2.689220428466797 62.0
      vertex 8.478411674499512 -2.219770669937134 62.00101089477539
    endloop
  endfacet
  facet normal 0.0018623798387125134 -0.0022593308240175247 -0.999995768070221
    outer loop
      vertex 8.22150993347168 -1.9841071367263794 62.0
      vertex 8.456960678100586 -1.790023684501648 62.0
      vertex 8.478411674499512 -2.219770669937134 62.00101089477539
    endloop
  endfacet
  facet normal 1.9236706521041924e-06 0.002154183341190219 -0.9999976754188538
    outer loop
      vertex 8.680337905883789 -2.689220428466797 62.0
      vertex 8.003255844116211 -2.6886157989501953 62.0
      vertex 8.478411674499512 -2.219770669937134 62.00101089477539
    endloop
  endfacet
  facet normal 0.0030641432385891676 -0.0009492598474025726 -0.9999948740005493
    outer loop
      vertex 8.22150993347168 -1.9841071367263794 62.0
      vertex 8.478411674499512 -2.219770669937134 62.00101089477539
      vertex 8.003255844116211 -2.6886157989501953 62.0
    endloop
  endfacet
  facet normal 0.0 0.0 -1.0
    outer loop
      vertex 8.680337905883789 -2.689220428466797 62.0
      vertex 8.420308113098145 -3.1285293102264404 62.0
      vertex 8.003255844116211 -2.6886157989501953 62.0
    endloop
  endfacet
  facet normal 0.0 0.0 -1.0
    outer loop
      vertex 8.003255844116211 -2.6886157989501953 62.0
      vertex 8.420308113098145 -3.1285293102264404 62.0
      vertex 7.575969696044922 -3.391479730606079 62.0
    endloop
  endfacet
  facet normal 0.0 0.0 -1.0
    outer loop
      vertex 8.420308113098145 -3.1285293102264404 62.0
      vertex 7.958540916442871 -3.9411568641662598 62.0
      vertex 7.575969696044922 -3.391479730606079 62.0
    endloop
  endfacet
  facet normal 0.0 0.0 -1.0
    outer loop
      vertex 7.575969696044922 -3.391479730606079 62.0
      vertex 7.958540916442871 -3.9411568641662598 62.0
      vertex 6.944950580596924 -4.086702823638916 62.0
    endloop
  endfacet
  facet normal 0.0 0.0 -1.0
    outer loop
      vertex 7.958540916442871 -3.9411568641662598 62.0
      vertex 7.0904974937438965 -4.618673324584961 62.0
      vertex 6.944950580596924 -4.086702823638916 62.0
    endloop
  endfacet
  facet normal 0.0 0.0 -1.0
    outer loop
      vertex 6.944950580596924 -4.086702823638916 62.0
      vertex 7.0904974937438965 -4.618673324584961 62.0
      vertex 6.080764293670654 -4.586811542510986 62.0
    endloop
  endfacet
  facet normal 0.0 0.0 -1.0
    outer loop
      vertex 7.0904974937438965 -4.618673324584961 62.0
      vertex 6.154219627380371 -5.252039909362793 62.0
      vertex 6.080764293670654 -4.586811542510986 62.0
    endloop
  endfacet
  facet normal 0.0 0.0 -1.0
    outer loop
      vertex 6.080764293670654 -4.586811542510986 62.0
      vertex 6.154219627380371 -5.252039909362793 62.0
      vertex 5.128256797790527 -4.953149318695068 62.0
    endloop
  endfacet
  facet normal 0.0 0.0 -1.0
    outer loop
      vertex 6.154219627380371 -5.252039909362793 62.0
      vertex 5.229793548583984 -5.705687522888184 62.0
      vertex 5.128256797790527 -4.953149318695068 62.0
    endloop
  endfacet
  facet normal 0.0 0.0 -1.0
    outer loop
      vertex 5.128256797790527 -4.953149318695068 62.0
      vertex 5.229793548583984 -5.705687522888184 62.0
      vertex 4.117769241333008 -5.20815896987915 62.0
    endloop
  endfacet
  facet normal 0.0 0.0 -1.0
    outer loop
      vertex 5.229793548583984 -5.705687522888184 62.0
      vertex 4.045014381408691 -5.931713581085205 62.0
      vertex 4.117769241333008 -5.20815896987915 62.0
    endloop
  endfacet
  facet normal 0.0 0.0 -1.0
    outer loop
      vertex 4.117769241333008 -5.20815896987915 62.0
      vertex 4.045014381408691 -5.931713581085205 62.0
      vertex 3.0666327476501465 -5.359641075134277 62.0
    endloop
  endfacet
  facet normal 0.0 0.0 -1.0
    outer loop
      vertex 4.045014381408691 -5.931713581085205 62.0
      vertex 2.879239559173584 -6.023646831512451 62.0
      vertex 3.0666327476501465 -5.359641075134277 62.0
    endloop
  endfacet
  facet normal 0.0 0.0 -1.0
    outer loop
      vertex 3.0666327476501465 -5.359641075134277 62.0
      vertex 2.879239559173584 -6.023646831512451 62.0
      vertex 2.0 -5.409379005432129 62.0
    endloop
  endfacet
  facet normal 0.0 0.0 -1.0
    outer loop
      vertex 2.879239559173584 -6.023646831512451 62.0
      vertex 2.0 -6.045982837677002 62.0
      vertex 2.0 -5.409379005432129 62.0
    endloop
  endfacet
  facet normal 0.003271002322435379 -0.0007776855491101742 -0.9999943375587463
    outer loop
      vertex -4.719683647155762 -1.9347095489501953 62.0
      vertex -4.478411674499512 -2.219770669937134 62.00101089477539
      vertex -4.790462970733643 -2.232412576675415 62.0
    endloop
  endfacet
  facet normal 0.0013320655561983585 -0.002418782329186797 -0.9999961853027344
    outer loop
      vertex -4.456961154937744 -1.790023684501648 62.0
      vertex -4.478411674499512 -2.219770669937134 62.00101089477539
      vertex -4.719683647155762 -1.9347095489501953 62.0
    endloop
  endfacet
  facet normal 0.0032081645913422108 0.0007734058308415115 -0.9999946355819702
    outer loop
      vertex -4.790462970733643 -2.232412576675415 62.0
      vertex -4.478411674499512 -2.219770669937134 62.00101089477539
      vertex -4.680338382720947 -2.689220428466797 62.0
    endloop
  endfacet
  facet normal -0.0018623777432367206 -0.0022593331523239613 -0.9999957084655762
    outer loop
      vertex -4.22150993347168 -1.9841071367263794 62.0
      vertex -4.478411674499512 -2.219770669937134 62.00101089477539
      vertex -4.456961154937744 -1.790023684501648 62.0
    endloop
  endfacet
  facet normal -1.9236451862525428e-06 0.0021541835740208626 -0.9999977350234985
    outer loop
      vertex -4.680338382720947 -2.689220428466797 62.0
      vertex -4.478411674499512 -2.219770669937134 62.00101089477539
      vertex -4.003255367279053 -2.6886157989501953 62.0
    endloop
  endfacet
  facet normal -0.0030641418416053057 -0.0009492614772170782 -0.9999949336051941
    outer loop
      vertex -4.22150993347168 -1.9841071367263794 62.0
      vertex -4.003255367279053 -2.6886157989501953 62.0
      vertex -4.478411674499512 -2.219770669937134 62.00101089477539
    endloop
  endfacet
  facet normal 0.0 0.0 -1.0
    outer loop
      vertex -4.680338382720947 -2.689220428466797 62.0
      vertex -4.003255367279053 -2.6886157989501953 62.0
      vertex -4.4203081130981445 -3.1285293102264404 62.0
    endloop
  endfacet
  facet normal 0.0 0.0 -1.0
    outer loop
      vertex -4.003255367279053 -2.6886157989501953 62.0
      vertex -3.575969696044922 -3.391479730606079 62.0
      vertex -4.4203081130981445 -3.1285293102264404 62.0
    endloop
  endfacet
  facet normal 0.0 0.0 -1.0
    outer loop
      vertex -4.4203081130981445 -3.1285293102264404 62.0
      vertex -3.575969696044922 -3.391479730606079 62.0
      vertex -3.958540916442871 -3.9411568641662598 62.0
    endloop
  endfacet
  facet normal 0.0 0.0 -1.0
    outer loop
      vertex -3.575969696044922 -3.391479730606079 62.0
      vertex -2.944950580596924 -4.086702823638916 62.0
      vertex -3.958540916442871 -3.9411568641662598 62.0
    endloop
  endfacet
  facet normal 0.0 0.0 -1.0
    outer loop
      vertex -3.958540916442871 -3.9411568641662598 62.0
      vertex -2.944950580596924 -4.086702823638916 62.0
      vertex -3.0904974937438965 -4.618673324584961 62.0
    endloop
  endfacet
  facet normal 0.0 0.0 -1.0
    outer loop
      vertex -2.944950580596924 -4.086702823638916 62.0
      vertex -2.0807642936706543 -4.586811542510986 62.0
      vertex -3.0904974937438965 -4.618673324584961 62.0
    endloop
  endfacet
  facet normal 0.0 0.0 -1.0
    outer loop
      vertex -3.0904974937438965 -4.618673324584961 62.0
      vertex -2.0807642936706543 -4.586811542510986 62.0
      vertex -2.154219627380371 -5.252039909362793 62.0
    endloop
  endfacet
  facet normal 0.0 0.0 -1.0
    outer loop
      vertex -2.0807642936706543 -4.586811542510986 62.0
      vertex -1.1282567977905273 -4.953149318695068 62.0
      vertex -2.154219627380371 -5.252039909362793 62.0
    endloop
  endfacet
  facet normal 0.0 0.0 -1.0
    outer loop
      vertex -2.154219627380371 -5.252039909362793 62.0
      vertex -1.1282567977905273 -4.953149318695068 62.0
      vertex -1.2297933101654053 -5.705687522888184 62.0
    endloop
  endfacet
  facet normal 0.0 0.0 -1.0
    outer loop
      vertex -1.1282567977905273 -4.953149318695068 62.0
      vertex -0.11776947975158691 -5.20815896987915 62.0
      vertex -1.2297933101654053 -5.705687522888184 62.0
    endloop
  endfacet
  facet normal 0.0 0.0 -1.0
    outer loop
      vertex -1.2297933101654053 -5.705687522888184 62.0
      vertex -0.11776947975158691 -5.20815896987915 62.0
      vertex -0.04501461982727051 -5.931713581085205 62.0
    endloop
  endfacet
  facet normal 0.0 0.0 -1.0
    outer loop
      vertex -0.11776947975158691 -5.20815896987915 62.0
      vertex 0.933367133140564 -5.359641075134277 62.0
      vertex -0.04501461982727051 -5.931713581085205 62.0
    endloop
  endfacet
  facet normal 0.0 0.0 -1.0
    outer loop
      vertex -0.04501461982727051 -5.931713581085205 62.0
      vertex 0.933367133140564 -5.359641075134277 62.0
      vertex 1.1207603216171265 -6.023646831512451 62.0
    endloop
  endfacet
  facet normal 0.0 0.0 -1.0
    outer loop
      vertex 0.933367133140564 -5.359641075134277 62.0
      vertex 2.0 -5.409379005432129 62.0
      vertex 1.1207603216171265 -6.023646831512451 62.0
    endloop
  endfacet
  facet normal 0.0 0.0 -1.0
    outer loop
      vertex 1.1207603216171265 -6.023646831512451 62.0
      vertex 2.0 -5.409379005432129 62.0
      vertex 2.0 -6.045982837677002 62.0
    endloop
  endfacet
endsolid
